<svg width="376" height="293" viewBox="0 0 376 293" fill="none" xmlns="http://www.w3.org/2000/svg">
<path d="M55.0628 264.753C128.48 302.232 247.52 302.232 320.937 264.753C394.354 227.273 394.354 166.505 320.937 129.017C247.52 91.5293 128.513 91.5375 55.0628 129.017C-18.3878 166.497 -18.3207 227.273 55.0628 264.753Z" fill="#F5F5F5"/>
<path d="M34.5971 203.287L10.7319 189.826V139.804L34.5971 153.273V203.287Z" fill="#E0E0E0"/>
<path d="M34.5972 153.274L68.695 134.038V184.051L34.5972 203.288V153.274Z" fill="#EBEBEB"/>
<path d="M68.695 134.038L34.5971 153.274L10.7319 139.804L44.8298 120.568L68.695 134.038Z" fill="#F5F5F5"/>
<path d="M38.0138 155.193L65.287 139.804L65.9166 140.156V158.687L38.6349 174.076L38.0054 173.723L38.0138 155.193Z" fill="#E0E0E0"/>
<path d="M38.6348 155.553L65.9164 140.156V158.687L38.6348 174.076V155.553Z" fill="#F5F5F5"/>
<path d="M49.3295 152.658L53.9716 150.042C54.5676 149.697 55.0545 149.853 55.0545 150.386C55.0112 150.713 54.8909 151.025 54.703 151.298C54.5151 151.572 54.2647 151.799 53.9716 151.961L49.3295 154.578C48.7252 154.922 48.2383 154.767 48.2383 154.233C48.2818 153.906 48.4032 153.593 48.5927 153.319C48.7821 153.046 49.0345 152.82 49.3295 152.658Z" fill="#E0E0E0"/>
<path d="M37.3843 178.637L64.6575 163.249V181.779L65.2871 182.132L38.0055 197.521L37.3843 197.168V178.637Z" fill="#E0E0E0"/>
<path d="M38.0054 178.99L65.287 163.601V182.132L38.0054 197.521V178.99Z" fill="#F5F5F5"/>
<path d="M48.6997 176.102L53.3837 173.493C53.9881 173.149 54.475 173.305 54.475 173.838C54.4315 174.165 54.3101 174.478 54.1206 174.752C53.9311 175.025 53.6788 175.252 53.3837 175.413L48.7417 178.03C48.1373 178.374 47.6504 178.218 47.6504 177.685C47.6881 177.36 47.8025 177.048 47.9846 176.773C48.1666 176.498 48.4114 176.269 48.6997 176.102Z" fill="#E0E0E0"/>
<path d="M34.5971 150.386L10.7319 136.917V86.9028L34.5971 100.364V150.386Z" fill="#E0E0E0"/>
<path d="M34.5972 100.364L68.695 81.1279V131.15L34.5972 150.386V100.364Z" fill="#EBEBEB"/>
<path d="M68.695 81.1277L34.5971 100.364L10.7319 86.9026L44.8298 67.6665L68.695 81.1277Z" fill="#F5F5F5"/>
<path d="M38.0054 102.292L65.287 86.9028L65.9166 87.2556V105.786L38.6349 121.175L38.0054 120.814V102.292Z" fill="#E0E0E0"/>
<path d="M49.3295 99.7486L53.9632 97.1318C54.5676 96.7955 55.0545 96.9514 55.0545 97.4846C55.0097 97.8117 54.8878 98.1242 54.6985 98.3975C54.5091 98.6708 54.2574 98.8974 53.9632 99.0595L49.3295 101.676C48.7252 102.013 48.2383 101.865 48.2383 101.332C48.2825 101.003 48.404 100.689 48.5934 100.415C48.7827 100.14 49.0347 99.912 49.3295 99.7486Z" fill="#E0E0E0"/>
<path d="M37.3843 125.736L64.6575 110.347V128.869L65.2871 129.222L38.0055 144.611L37.3843 144.258V125.736Z" fill="#E0E0E0"/>
<path d="M38.0054 126.088L65.287 110.699V129.222L38.0054 144.611V126.088Z" fill="#F5F5F5"/>
<path d="M48.6997 123.192L53.3837 120.576C53.9797 120.239 54.475 120.395 54.475 120.928C54.4277 121.255 54.3049 121.566 54.1158 121.839C53.9266 122.112 53.6763 122.339 53.3837 122.503L48.6997 125.096C48.0953 125.432 47.6084 125.276 47.6084 124.751C47.6562 124.427 47.7795 124.118 47.9687 123.848C48.1579 123.578 48.4079 123.353 48.6997 123.192Z" fill="#E0E0E0"/>
<path d="M38.0054 102.292L65.287 86.9028V105.425L38.0054 120.814V102.292Z" fill="#E0E0E0"/>
<path d="M78.9277 96.0573L63.9941 87.6328V103.957L78.9277 112.373V96.0573Z" fill="#E0E0E0"/>
<path d="M48.2383 123.455V100.363L54.0891 97.0494L55.0545 98.4439L72.1034 88.8218V109.986L48.2383 123.455Z" fill="#EBEBEB"/>
<path d="M48.2383 123.455L49.9423 103.251L73.8075 89.79L72.1034 109.986L48.2383 123.455Z" fill="#F5F5F5"/>
<path d="M51.646 111.446L38.6348 104.104V120.428L51.646 127.762V111.446Z" fill="#EBEBEB"/>
<path d="M51.6465 109.986L78.9281 94.5972V113.12L51.6465 128.508V109.986Z" fill="#F5F5F5"/>
<path d="M62.3408 107.09L66.9745 104.474C67.5789 104.137 68.0657 104.293 68.0657 104.826C68.0203 105.153 67.8982 105.466 67.7089 105.739C67.5196 106.012 67.2682 106.239 66.9745 106.401L62.3408 109.018C61.7364 109.354 61.2495 109.199 61.2495 108.674C61.2937 108.345 61.4152 108.031 61.6046 107.757C61.794 107.482 62.046 107.254 62.3408 107.09Z" fill="#E0E0E0"/>
<path d="M51.6463 109.986L50.7397 109.478V128L51.6463 128.509V109.986Z" fill="#E0E0E0"/>
<path d="M50.7397 109.477L78.013 94.0801L78.928 94.5969L51.6463 109.986L50.7397 109.477Z" fill="#EBEBEB"/>
<path d="M316.547 172.985L292.673 159.515V109.501L316.547 122.963V172.985Z" fill="#E0E0E0"/>
<path d="M316.547 122.964L350.645 103.728V153.75L316.547 172.986V122.964Z" fill="#EBEBEB"/>
<path d="M350.645 103.727L316.547 122.963L292.673 109.502L326.78 90.2573L350.645 103.727Z" fill="#F5F5F5"/>
<path d="M319.955 124.89L347.236 109.501L347.866 109.854L347.857 128.377L320.584 143.766L319.955 143.413V124.89Z" fill="#E0E0E0"/>
<path d="M320.585 125.244L347.867 109.855L347.858 128.377L320.585 143.766V125.244Z" fill="#F5F5F5"/>
<path d="M331.279 122.348L335.912 119.731C336.517 119.395 337.004 119.551 337.004 120.076C336.96 120.404 336.838 120.718 336.649 120.993C336.459 121.268 336.207 121.496 335.912 121.659L331.279 124.276C330.674 124.612 330.188 124.456 330.188 123.931C330.232 123.603 330.353 123.289 330.543 123.014C330.732 122.74 330.984 122.512 331.279 122.348Z" fill="#E0E0E0"/>
<path d="M319.325 148.335L346.607 132.938V151.468L347.236 151.821L319.955 167.21L319.325 166.857V148.335Z" fill="#E0E0E0"/>
<path d="M319.955 148.688L347.236 133.299V151.821L319.955 167.21V148.688Z" fill="#F5F5F5"/>
<path d="M330.649 145.792L335.291 143.176C335.887 142.839 336.374 142.995 336.374 143.52C336.33 143.847 336.209 144.16 336.021 144.435C335.834 144.709 335.584 144.938 335.291 145.103L330.649 147.72C330.045 148.056 329.558 147.901 329.558 147.367C329.604 147.04 329.726 146.728 329.915 146.455C330.104 146.182 330.356 145.955 330.649 145.792Z" fill="#E0E0E0"/>
<path d="M89.4794 225.263C89.4794 225.263 89.5718 212.253 81.1774 202.5C73.7484 193.862 69.7947 188.382 72.1367 185.856C74.4787 183.329 79.5153 182.722 86.3064 189.711C93.0974 196.7 93.6262 216.059 92.6861 220.44L89.4794 225.263Z" fill="#8B4DC5"/>
<path opacity="0.2" d="M89.4794 225.263C89.4794 225.263 89.5718 212.253 81.1774 202.5C73.7484 193.862 69.7947 188.382 72.1367 185.856C74.4787 183.329 79.5153 182.722 86.3064 189.711C93.0974 196.7 93.6262 216.059 92.6861 220.44L89.4794 225.263Z" fill="black"/>
<path d="M90.8903 211.277C90.7947 211.277 90.7018 211.246 90.627 211.188C90.5522 211.13 90.5 211.048 90.479 210.957C87.5409 197.529 80.0028 190.105 75.7637 186.873C75.6759 186.806 75.6187 186.709 75.6045 186.601C75.5903 186.493 75.6204 186.385 75.6881 186.299C75.7576 186.212 75.8591 186.156 75.9706 186.142C76.0821 186.129 76.1947 186.158 76.2841 186.225C80.6072 189.506 88.3048 197.102 91.3016 210.785C91.3139 210.837 91.3154 210.891 91.3059 210.944C91.2965 210.997 91.2763 211.047 91.2465 211.092C91.2168 211.138 91.1781 211.176 91.1328 211.207C91.0875 211.237 91.0364 211.258 90.9826 211.269L90.8903 211.277Z" fill="white"/>
<path d="M89.1608 230.095L85.7443 232.022C85.3798 231.049 84.7652 230.184 83.9595 229.51C83.1539 228.837 82.1843 228.377 81.1442 228.175C77.4087 227.355 73.5305 227.494 70.9114 224.328C68.2924 221.162 71.4822 217.716 70.9114 215.387C70.3406 213.057 69.9713 212.384 65.2872 210.055C60.6032 207.725 58.7564 203.861 62.282 201.245C65.8077 198.628 71.5158 200.547 74.9743 202.885C78.0466 204.936 80.9679 205.477 84.4012 205.896C87.8344 206.314 93.4251 208.176 92.5689 215.969C92.0082 220.793 90.8642 225.534 89.1608 230.095Z" fill="#8B4DC5"/>
<path d="M76.0486 219.858C75.9592 219.857 75.8722 219.829 75.8 219.777C75.7277 219.726 75.6737 219.653 75.6457 219.57C75.6139 219.466 75.6251 219.354 75.6768 219.257C75.7285 219.161 75.8168 219.088 75.9227 219.054C76.2249 218.963 83.4776 216.716 86.5584 219.127C86.6348 219.198 86.6814 219.294 86.6889 219.396C86.6964 219.499 86.6643 219.6 86.5988 219.681C86.5334 219.761 86.4394 219.815 86.3356 219.831C86.2317 219.847 86.1255 219.824 86.0379 219.767C83.3181 217.634 76.2501 219.816 76.1745 219.841L76.0486 219.858Z" fill="white"/>
<path d="M89.5389 229.471C89.4367 229.472 89.3379 229.435 89.2619 229.368C89.1859 229.302 89.138 229.21 89.1275 229.11C87.2556 211.835 65.9591 203.64 65.7493 203.558C65.6972 203.539 65.6496 203.51 65.6091 203.473C65.5686 203.435 65.5361 203.391 65.5135 203.341C65.4908 203.291 65.4785 203.238 65.4772 203.184C65.4759 203.129 65.4856 203.075 65.5058 203.025C65.5471 202.925 65.6258 202.845 65.7258 202.801C65.8258 202.757 65.9394 202.752 66.0431 202.787C66.2697 202.877 88.0363 211.244 89.9586 229.037C89.9704 229.144 89.9382 229.252 89.869 229.336C89.7998 229.421 89.6992 229.475 89.5892 229.488L89.5389 229.471Z" fill="white"/>
<path d="M298.331 218.75C298.424 218.463 302.025 200.35 298.331 187.504C294.974 175.725 290.592 171.377 284.346 170.417C278.101 169.458 275.39 173.855 278.705 179.81C282.021 185.765 290.004 193.665 291.96 206.97C292.799 212.45 293.437 217.208 293.437 217.208L298.331 218.75Z" fill="#8B4DC5"/>
<path opacity="0.2" d="M298.331 218.75C298.424 218.463 302.025 200.35 298.331 187.504C294.974 175.725 290.592 171.377 284.346 170.417C278.101 169.458 275.39 173.855 278.705 179.81C282.021 185.765 290.004 193.665 291.96 206.97C292.799 212.45 293.437 217.208 293.437 217.208L298.331 218.75Z" fill="black"/>
<path d="M296.225 208.349C296.17 208.346 296.116 208.332 296.066 208.309C296.016 208.285 295.972 208.252 295.935 208.212C295.898 208.171 295.87 208.124 295.852 208.073C295.834 208.022 295.827 207.968 295.83 207.914C296.67 193.247 291.767 180.155 282.978 173.732C282.889 173.667 282.831 173.57 282.815 173.462C282.799 173.354 282.828 173.245 282.894 173.158C282.963 173.073 283.062 173.017 283.171 173.001C283.281 172.986 283.392 173.013 283.482 173.076C292.489 179.638 297.543 193.026 296.661 207.963C296.655 208.071 296.605 208.171 296.524 208.243C296.442 208.316 296.335 208.353 296.225 208.349Z" fill="white"/>
<path d="M307.993 228.183C307.515 224.811 309.496 219.758 314.205 218.561C318.914 217.363 321.013 214.721 319.317 211.834C317.622 208.947 318.016 206.297 322.289 205.099C326.562 203.902 330.305 201.818 327.846 197.405C326.058 194.214 325.663 192.147 330.045 185.863C333.68 180.646 330.708 177.586 326.159 178.161C321.609 178.735 318.797 184.034 315.951 184.92C313.105 185.806 312.451 181.081 308.698 183.197C304.946 185.314 305.173 190.736 305.055 194.517C304.938 198.299 304.686 199.152 301.294 198.693C297.903 198.233 294.579 198.775 294.655 206.789C294.713 213.663 298.466 222.178 298.466 222.178L307.993 228.183Z" fill="#8B4DC5"/>
<path d="M302.042 223.056H302C301.888 223.043 301.785 222.988 301.715 222.902C301.644 222.816 301.611 222.706 301.622 222.596C303.99 201.933 322.138 184.501 326.873 180.966C326.962 180.899 327.074 180.87 327.185 180.885C327.296 180.9 327.397 180.957 327.464 181.044C327.532 181.131 327.562 181.241 327.547 181.349C327.532 181.458 327.474 181.556 327.385 181.622C322.709 185.108 304.796 202.31 302.462 222.686C302.45 222.787 302.4 222.88 302.323 222.948C302.246 223.016 302.146 223.054 302.042 223.056Z" fill="white"/>
<path d="M310.319 200.966C310.234 200.965 310.151 200.94 310.081 200.893C310.011 200.846 309.956 200.78 309.924 200.703C309.889 200.6 309.895 200.487 309.942 200.387C309.988 200.288 310.072 200.21 310.176 200.17C316.942 197.709 324.615 198.874 324.942 198.923C325.051 198.941 325.148 199 325.212 199.088C325.277 199.175 325.303 199.284 325.286 199.391C325.266 199.497 325.205 199.591 325.116 199.655C325.027 199.719 324.917 199.747 324.808 199.735C324.732 199.735 317.026 198.554 310.47 200.941C310.421 200.957 310.37 200.965 310.319 200.966Z" fill="white"/>
<path d="M304.292 213.385C304.233 213.384 304.175 213.371 304.121 213.347C304.068 213.323 304.02 213.289 303.981 213.245C301.167 210.043 299.26 206.177 298.449 202.032C298.441 201.979 298.443 201.924 298.457 201.872C298.47 201.819 298.493 201.77 298.526 201.727C298.559 201.683 298.6 201.646 298.647 201.619C298.695 201.591 298.747 201.572 298.802 201.564C298.856 201.556 298.912 201.559 298.966 201.571C299.019 201.584 299.07 201.608 299.114 201.64C299.159 201.672 299.196 201.712 299.225 201.758C299.253 201.804 299.272 201.855 299.28 201.909C300.083 205.891 301.918 209.605 304.611 212.696C304.663 212.756 304.697 212.83 304.708 212.908C304.719 212.987 304.708 213.067 304.674 213.139C304.641 213.211 304.587 213.273 304.519 213.316C304.452 213.36 304.373 213.383 304.292 213.385Z" fill="white"/>
<path d="M89.1606 103.137V230.104L222.144 155.079L222.136 39.6538L123.259 95.4426L119.842 85.8205L89.1606 103.137Z" fill="#8B4DC5"/>
<path opacity="0.7" d="M89.1606 103.137V230.104L222.144 155.079L222.136 39.6538L123.259 95.4426L119.842 85.8205L89.1606 103.137Z" fill="black"/>
<path d="M89.1606 230.104L95.9769 114.679L228.96 39.6538L222.144 155.079L89.1606 230.104Z" fill="#E0E0E0"/>
<path d="M89.1606 230.103L99.385 116.606L232.368 41.5732L222.144 155.079L89.1606 230.103Z" fill="#8B4DC5"/>
<path opacity="0.7" d="M89.1606 230.103L99.385 116.606L232.368 41.5732L222.144 155.079L89.1606 230.103Z" fill="black"/>
<path d="M109.617 114.679V241.653L242.601 166.62V51.1953L143.715 106.984L140.307 97.362L109.617 114.679Z" fill="#8B4DC5"/>
<path opacity="0.5" d="M109.617 114.679V241.653L242.601 166.62V51.1953L143.715 106.984L140.307 97.362L109.617 114.679Z" fill="black"/>
<path d="M109.617 241.653L116.433 126.22L249.417 51.1953L242.601 166.62L109.617 241.653Z" fill="#E0E0E0"/>
<path d="M109.617 241.654L119.842 128.148L252.825 53.1152L242.601 166.621L109.617 241.654Z" fill="#8B4DC5"/>
<path opacity="0.5" d="M109.617 241.654L119.842 128.148L252.825 53.1152L242.601 166.621L109.617 241.654Z" fill="black"/>
<path d="M222.111 282.053C198.237 268.584 176.093 253.941 165.986 236.764L196.71 219.431L222.111 282.053Z" fill="#E0E0E0"/>
<path d="M133.483 128.147V255.114L266.466 180.089V64.6641L167.581 120.453L164.173 110.831L133.483 128.147Z" fill="#8B4DC5"/>
<path opacity="0.2" d="M133.483 128.147V255.114L266.466 180.089V64.6641L167.581 120.453L164.173 110.831L133.483 128.147Z" fill="black"/>
<path d="M171.794 165.685C171.459 165.685 171.408 165.307 171.408 165.086V56.8058C171.435 56.3857 171.561 55.9775 171.777 55.6132C171.992 55.2488 172.292 54.9382 172.651 54.7058L268.632 0.565822C268.763 0.485707 268.913 0.440464 269.068 0.43457C269.404 0.43457 269.454 0.811912 269.454 1.03339V109.313C269.428 109.735 269.302 110.144 269.087 110.51C268.871 110.876 268.572 111.188 268.212 111.422L172.231 165.562C172.098 165.638 171.948 165.68 171.794 165.685Z" fill="white"/>
<path d="M269.018 0.812229C269.025 0.872202 269.025 0.932724 269.018 0.992697V109.273C268.991 109.622 268.884 109.961 268.705 110.264C268.527 110.568 268.281 110.829 267.986 111.028L172.005 165.168L171.837 165.242C171.826 165.182 171.826 165.121 171.837 165.061V56.7815C171.866 56.4337 171.973 56.0965 172.152 55.7943C172.331 55.4921 172.576 55.2325 172.869 55.0343L268.851 0.894258C268.904 0.858073 268.964 0.832944 269.027 0.820434M269.077 0.000131047C268.849 0.00678139 268.626 0.0718324 268.431 0.188803L172.45 54.3288C172.028 54.5996 171.677 54.9633 171.425 55.3907C171.172 55.818 171.026 56.2972 170.998 56.7897V165.07C170.998 165.71 171.325 166.079 171.837 166.079C172.066 166.073 172.289 166.008 172.483 165.89L268.464 111.75C268.888 111.481 269.241 111.118 269.493 110.69C269.746 110.262 269.891 109.782 269.917 109.289V1.00911C269.917 0.36927 269.589 -0.00807198 269.077 0.000131047Z" fill="#8B4DC5"/>
<path opacity="0.7" d="M269.018 0.812229C269.025 0.872202 269.025 0.932724 269.018 0.992697V109.273C268.991 109.622 268.884 109.961 268.705 110.264C268.527 110.568 268.281 110.829 267.986 111.028L172.005 165.168L171.837 165.242C171.826 165.182 171.826 165.121 171.837 165.061V56.7815C171.866 56.4337 171.973 56.0965 172.152 55.7943C172.331 55.4921 172.576 55.2325 172.869 55.0343L268.851 0.894258C268.904 0.858073 268.964 0.832944 269.027 0.820434M269.077 0.000131047C268.849 0.00678139 268.626 0.0718324 268.431 0.188803L172.45 54.3288C172.028 54.5996 171.677 54.9633 171.425 55.3907C171.172 55.818 171.026 56.2972 170.998 56.7897V165.07C170.998 165.71 171.325 166.079 171.837 166.079C172.066 166.073 172.289 166.008 172.483 165.89L268.464 111.75C268.888 111.481 269.241 111.118 269.493 110.69C269.746 110.262 269.891 109.782 269.917 109.289V1.00911C269.917 0.36927 269.589 -0.00807198 269.077 0.000131047Z" fill="white"/>
<path d="M181.222 60.9153L215.32 41.6792V80.1514L181.222 99.3875V60.9153Z" fill="#8B4DC5"/>
<path opacity="0.8" d="M181.222 60.9153L215.32 41.6792V80.1514L181.222 99.3875V60.9153Z" fill="white"/>
<path d="M210.207 51.269V62.8353L209.133 63.4177V59.8822C209.133 57.9299 207.513 57.2655 205.498 58.3975L191.051 66.5595C189.045 67.6915 187.417 70.1934 187.417 72.1458V75.6813L186.351 76.3047V64.763L210.207 51.269Z" fill="white"/>
<path d="M203.643 80.718C201.897 81.7024 200.478 80.6688 200.478 78.3966V59.8823L196.088 62.212V80.8739C196.088 83.1379 194.67 85.7957 192.924 86.7554L189.75 88.5437V89.7742L206.799 80.152V78.9298L203.643 80.718Z" fill="white"/>
<path d="M222.111 39.7846C222.111 40.851 223.093 41.1545 224.293 40.4818L257.468 21.7379C258.056 21.4119 258.56 20.9571 258.938 20.4092C259.317 19.8612 259.561 19.2351 259.65 18.5797C259.65 17.5215 258.668 17.2098 257.468 17.8907L224.319 36.5936C223.72 36.919 223.209 37.3774 222.825 37.9317C222.442 38.486 222.197 39.1207 222.111 39.7846Z" fill="#455A64"/>
<path d="M222.111 51.2694C222.111 52.3358 223.093 52.6475 224.293 51.9667L257.443 33.2638C258.031 32.9378 258.535 32.483 258.913 31.935C259.292 31.3871 259.536 30.761 259.625 30.1056C259.625 29.0474 258.643 28.7357 257.443 29.4166L224.293 48.1195C223.706 48.4447 223.203 48.8982 222.824 49.4446C222.446 49.991 222.202 50.6155 222.111 51.2694Z" fill="#455A64"/>
<path d="M222.111 62.8355C222.111 63.9019 223.093 64.2136 224.293 63.5327L257.443 44.8298C258.03 44.5046 258.533 44.0511 258.912 43.5047C259.29 42.9583 259.534 42.3337 259.625 41.6798C259.625 40.6134 258.643 40.3017 257.443 40.9826L224.293 59.6855C223.706 60.0107 223.203 60.4642 222.824 61.0106C222.446 61.557 222.202 62.1816 222.111 62.8355Z" fill="#455A64"/>
<path d="M222.111 74.377C222.111 75.4434 223.093 75.7551 224.293 75.0742L257.443 56.3713C258.03 56.0461 258.533 55.5926 258.912 55.0462C259.29 54.4998 259.534 53.8752 259.625 53.2214C259.625 52.155 258.643 51.8432 257.443 52.5241L224.293 71.227C223.706 71.5522 223.203 72.0057 222.824 72.5521C222.446 73.0985 222.202 73.7231 222.111 74.377Z" fill="#455A64"/>
<path d="M181.222 109.01C181.222 110.077 182.195 110.388 183.404 109.708L257.468 67.8721C258.056 67.5479 258.559 67.0946 258.938 66.548C259.317 66.0014 259.561 65.3764 259.65 64.7221C259.65 63.6557 258.668 63.3522 257.468 64.0249L183.404 105.86C182.815 106.184 182.312 106.637 181.933 107.184C181.554 107.731 181.311 108.356 181.222 109.01Z" fill="#455A64"/>
<path d="M181.222 120.552C181.222 121.618 182.195 121.93 183.404 121.249L257.468 79.463C258.056 79.137 258.56 78.6822 258.938 78.1343C259.317 77.5863 259.561 76.9602 259.65 76.3048C259.65 75.2466 258.668 74.9349 257.468 75.6158L183.404 117.402C182.815 117.726 182.312 118.179 181.933 118.726C181.554 119.272 181.311 119.898 181.222 120.552Z" fill="#455A64"/>
<path d="M181.222 132.102C181.222 133.16 182.195 133.472 183.404 132.791L257.468 91.005C258.056 90.679 258.56 90.2242 258.938 89.6763C259.317 89.1283 259.561 88.5022 259.65 87.8468C259.65 86.7886 258.668 86.4769 257.468 87.1578L183.404 128.944C182.814 129.269 182.31 129.723 181.931 130.271C181.552 130.819 181.309 131.446 181.222 132.102Z" fill="#455A64"/>
<path d="M133.483 255.115L157.348 153.159L290.331 78.126L266.466 180.09L133.483 255.115Z" fill="#8B4DC5"/>
<path d="M166.02 161.14V236.764L196.709 219.448V143.832L166.02 161.14Z" fill="#8B4DC5"/>
<path opacity="0.2" d="M166.02 161.14V236.764L196.709 219.448V143.832L166.02 161.14Z" fill="black"/>
<path d="M222.169 281.561C219.559 279.657 194.392 260.864 181.599 233.983C167.984 205.404 168 172.067 168 159.524V159.13L259.23 107.665C259.23 120.322 259.23 153.708 272.905 182.386C285.404 208.636 309.605 227.191 313.441 230.029L222.169 281.561Z" fill="white"/>
<path d="M258.811 108.403C258.811 121.593 259.071 154.34 272.527 182.591C284.606 207.938 307.573 226.165 312.686 230.013L222.194 281.068C218.66 278.468 194.443 259.987 181.985 233.844C168.387 205.346 168.387 172.075 168.387 159.549V159.393L258.777 108.395M259.616 106.975L167.547 158.925C167.547 170.729 167.295 205.026 181.188 234.188C194.862 262.808 222.11 282.053 222.11 282.053L314.205 230.095C314.205 230.095 286.923 210.85 273.291 182.23C259.39 153.068 259.65 118.771 259.65 106.967L259.616 106.975Z" fill="#8B4DC5"/>
<path opacity="0.7" d="M258.811 108.403C258.811 121.593 259.071 154.34 272.527 182.591C284.606 207.938 307.573 226.165 312.686 230.013L222.194 281.068C218.66 278.468 194.443 259.987 181.985 233.844C168.387 205.346 168.387 172.075 168.387 159.549V159.393L258.777 108.395M259.616 106.975L167.547 158.925C167.547 170.729 167.295 205.026 181.188 234.188C194.862 262.808 222.11 282.053 222.11 282.053L314.205 230.095C314.205 230.095 286.923 210.85 273.291 182.23C259.39 153.068 259.65 118.771 259.65 106.967L259.616 106.975Z" fill="white"/>
<path d="M249.232 124.398L220.121 140.804C219.538 141.118 219.041 141.564 218.673 142.105C218.305 142.647 218.076 143.267 218.005 143.913C218.047 144.955 219.063 145.25 220.263 144.57L249.383 128.163C249.959 127.853 250.451 127.413 250.817 126.879C251.184 126.345 251.415 125.734 251.49 125.096C251.44 124.013 250.441 123.717 249.232 124.398Z" fill="#455A64"/>
<path d="M249.854 135.596L220.742 152.002C220.167 152.305 219.678 152.745 219.323 153.281C218.968 153.817 218.757 154.433 218.711 155.07C218.803 156.079 219.861 156.35 221.061 155.669L250.181 139.263C250.754 138.961 251.239 138.522 251.59 137.987C251.941 137.452 252.147 136.838 252.188 136.203C252.104 135.186 251.063 134.94 249.854 135.596Z" fill="#455A64"/>
<path d="M251.021 146.482L221.901 162.888C220.7 163.569 219.827 164.922 219.97 165.898C220.113 166.874 221.212 167.129 222.421 166.448L251.541 150.042C252.741 149.361 253.598 148.016 253.447 147.039C253.295 146.063 252.221 145.801 251.021 146.482Z" fill="#455A64"/>
<path d="M252.767 157.039L223.647 173.445C222.446 174.126 221.615 175.455 221.817 176.406C222.018 177.358 223.16 177.571 224.335 176.89L253.447 160.484C254.655 159.804 255.461 158.483 255.26 157.531C255.058 156.58 254.009 156.358 252.767 157.039Z" fill="#455A64"/>
<path d="M255.134 167.244L226.014 183.65C224.814 184.331 224.033 185.627 224.335 186.537C224.637 187.448 225.787 187.653 226.988 186.972L256.108 170.566C257.317 169.885 258.072 168.597 257.787 167.678C257.501 166.76 256.334 166.563 255.134 167.244Z" fill="#455A64"/>
<path d="M258.207 177.079L187.241 217.118C186.04 217.799 185.31 219.062 185.637 219.94C185.965 220.818 187.216 220.982 188.416 220.301L259.382 180.262C260.591 179.581 261.287 178.326 260.96 177.44C260.633 176.554 259.365 176.398 258.207 177.079Z" fill="#455A64"/>
<path d="M261.942 186.471L190.984 226.51C189.776 227.191 189.113 228.422 189.515 229.258C189.918 230.095 191.194 230.226 192.42 229.546L263.386 189.507C264.595 188.826 265.241 187.595 264.838 186.759C264.435 185.922 263.151 185.799 261.942 186.471Z" fill="#455A64"/>
<path d="M266.601 195.421L195.635 235.459C194.426 236.14 193.83 237.338 194.308 238.134C194.787 238.929 196.155 239.011 197.364 238.331L268.279 198.292C269.48 197.619 270.059 196.429 269.581 195.634C269.102 194.838 267.776 194.74 266.601 195.421Z" fill="#455A64"/>
<path d="M272.032 203.887L201.074 243.917C199.866 244.598 199.328 245.771 199.874 246.518C200.42 247.264 201.855 247.338 203.064 246.649L274.021 206.61C275.23 205.929 275.751 204.773 275.205 204.018C274.659 203.263 273.241 203.206 272.032 203.887Z" fill="#455A64"/>
<path d="M278.227 211.933L207.261 251.964C206.06 252.645 205.582 253.785 206.186 254.499C206.791 255.213 208.276 255.245 209.485 254.565L280.451 214.509C281.652 213.828 282.13 212.704 281.509 211.991C280.888 211.277 279.435 211.228 278.227 211.933Z" fill="#455A64"/>
<path d="M285.068 219.595L214.127 259.626C212.918 260.307 212.448 261.422 213.153 262.087C213.859 262.751 215.353 262.768 216.553 262.087L287.519 222.048C288.728 221.367 289.148 220.268 288.476 219.587C287.804 218.906 286.293 218.923 285.068 219.595Z" fill="#455A64"/>
<path d="M292.623 226.92L221.657 266.951C220.457 267.632 220.063 268.723 220.818 269.371C221.574 270.019 223.118 269.995 224.327 269.314L295.234 229.275C296.434 228.594 296.812 227.527 296.073 226.871C295.335 226.215 293.799 226.24 292.623 226.92Z" fill="#455A64"/>
<path d="M209.569 146.785L176.093 165.652C176.462 177.506 177.847 194.601 182.917 211.819L216.402 192.952C211.324 175.734 209.939 158.63 209.569 146.785Z" fill="#8B4DC5"/>
<path opacity="0.8" d="M209.569 146.785L176.093 165.652C176.462 177.506 177.847 194.601 182.917 211.819L216.402 192.952C211.324 175.734 209.939 158.63 209.569 146.785Z" fill="white"/>
<path d="M189.742 163.044C189.787 162.279 189.665 161.513 189.385 160.797C189.104 160.082 188.671 159.433 188.113 158.893L176.093 165.669C176.194 168.802 176.361 172.305 176.655 176.078C178.219 176.254 179.801 175.968 181.197 175.258C185.923 173.142 189.742 167.654 189.742 163.044Z" fill="#8B4DC5"/>
<path opacity="0.6" d="M189.742 163.044C189.787 162.279 189.665 161.513 189.385 160.797C189.104 160.082 188.671 159.433 188.113 158.893L176.093 165.669C176.194 168.802 176.361 172.305 176.655 176.078C178.219 176.254 179.801 175.968 181.197 175.258C185.923 173.142 189.742 167.654 189.742 163.044Z" fill="white"/>
<path d="M213.557 181.632C211.324 178.884 206.782 170.394 204.843 166.694C204.767 166.548 204.648 166.427 204.501 166.348C204.354 166.269 204.186 166.235 204.019 166.25C203.851 166.265 203.692 166.328 203.563 166.432C203.433 166.536 203.338 166.676 203.29 166.834C201.193 173.841 199.975 181.072 199.664 188.367C196.868 186.198 194.465 183.586 192.554 180.639C192.473 180.525 192.359 180.436 192.228 180.383C192.096 180.329 191.952 180.314 191.812 180.338C191.671 180.362 191.541 180.425 191.436 180.519C191.331 180.613 191.256 180.735 191.219 180.869C187.559 194.642 189.398 208.193 189.398 208.193L216.402 192.952C215.278 189.146 214.346 185.356 213.557 181.632Z" fill="#8B4DC5"/>
<path opacity="0.6" d="M213.557 181.632C211.324 178.884 206.782 170.394 204.843 166.694C204.767 166.548 204.648 166.427 204.501 166.348C204.354 166.269 204.186 166.235 204.019 166.25C203.851 166.265 203.692 166.328 203.563 166.432C203.433 166.536 203.338 166.676 203.29 166.834C201.193 173.841 199.975 181.072 199.664 188.367C196.868 186.198 194.465 183.586 192.554 180.639C192.473 180.525 192.359 180.436 192.228 180.383C192.096 180.329 191.952 180.314 191.812 180.338C191.671 180.362 191.541 180.425 191.436 180.519C191.331 180.613 191.256 180.735 191.219 180.869C187.559 194.642 189.398 208.193 189.398 208.193L216.402 192.952C215.278 189.146 214.346 185.356 213.557 181.632Z" fill="white"/>
</svg>
