<svg width="50" height="50" viewBox="0 0 50 50" fill="none" xmlns="http://www.w3.org/2000/svg">
<path d="M49.5157 19.3242C48.602 20.903 47.4148 21.9198 47.3171 23.3966C48.0499 28.9211 49.4033 30.7148 45.2699 31.2631C41.1365 31.8115 42.7781 34.779 41.7374 37.6225C40.6968 40.466 36.8516 37.5894 35.8011 38.4243C32.684 45.6213 30.6368 43.4445 27.5221 43.1084C24.4073 42.7722 23.2518 46.1227 19.9905 46.2908C16.7292 46.4589 16.1332 41.2706 10.9371 43.6126C7.51698 45.1529 3.99184 40.4109 1.97154 36.705C1.96018 36.6844 1.94238 36.6694 1.92166 36.663C1.90095 36.6566 1.87885 36.6592 1.85976 36.6703C1.84068 36.6814 1.82599 36.7002 1.81864 36.723C1.81129 36.7457 1.8118 36.7708 1.82008 36.7931C2.77038 39.5072 4.10666 41.2017 6.15138 43.957C15.0558 56.0089 32.2394 47.4729 42.033 40.4412C48.9563 35.4816 51.0718 27.5958 49.5157 19.3242Z" fill="#F4BD67"/>
<path d="M31.1376 18.4337C22.8097 17.0753 18.73 25.5976 18.1046 26.9257C18.0836 26.9717 18.0484 27.0074 18.0057 27.0262C17.9629 27.0449 17.9156 27.0455 17.8725 27.0276C17.0737 26.7163 14.2521 25.1788 15.7032 21.8448C17.6576 17.3591 22.5434 15.9869 26.0368 15.8877C28.702 15.8133 30.4829 17.1497 31.2988 18.0645C31.3288 18.096 31.349 18.1375 31.3564 18.1829C31.3637 18.2283 31.358 18.2752 31.3399 18.3166C31.3218 18.3581 31.2924 18.3918 31.2559 18.4129C31.2195 18.434 31.178 18.4413 31.1376 18.4337Z" fill="#F4BD67"/>
<path d="M49.2641 14.8754C47.8863 10.781 45.9026 3.87883 37.1741 1.13726C28.4455 -1.60431 18.2536 0.500774 9.5495 8.65385C1.15562 16.5149 -0.622835 24.2656 0.171115 30.6608C0.22734 31.1182 0.34947 31.5622 0.53267 31.9751C1.68084 34.5651 6.41278 44.4541 10.9346 42.4151C16.1283 40.0731 16.7219 45.2614 19.9881 45.0933C23.2543 44.9252 24.1411 41.5775 27.2607 41.9136C30.3143 42.2415 32.0879 44.3384 35.078 37.6429C35.1573 37.4632 35.2826 37.3146 35.4377 37.2163C35.5928 37.118 35.7705 37.0747 35.9477 37.0918C37.455 37.2488 40.323 39.117 41.1976 36.7253C42.2358 33.8791 40.3279 30.9115 44.4613 30.366C48.5947 29.8204 46.9848 28.0239 46.2422 22.4995C46.4034 20.1519 50.6443 18.9699 49.2641 14.8754ZM10.3679 32.4297L9.90372 32.9533C9.81217 33.0559 9.68834 33.1135 9.55926 33.1135C9.43019 33.1135 9.30636 33.0559 9.21482 32.9533L6.12696 29.4705C6.03596 29.3672 5.98489 29.2276 5.98489 29.082C5.98489 28.9364 6.03596 28.7967 6.12696 28.6935L6.59112 28.17C6.68266 28.0673 6.80649 28.0097 6.93557 28.0097C7.06465 28.0097 7.18848 28.0673 7.28002 28.17L10.3679 31.6527C10.4589 31.756 10.51 31.8957 10.51 32.0412C10.51 32.1868 10.4589 32.3265 10.3679 32.4297ZM10.578 14.7955L7.49011 18.2783C7.39857 18.3809 7.27474 18.4385 7.14566 18.4385C7.01659 18.4385 6.89275 18.3809 6.80121 18.2783L6.33705 17.7548C6.24605 17.6515 6.19498 17.5118 6.19498 17.3663C6.19498 17.2207 6.24605 17.081 6.33705 16.9778L9.42491 13.495C9.51645 13.3924 9.64028 13.3347 9.76936 13.3347C9.89844 13.3347 10.0223 13.3924 10.1138 13.495L10.578 14.0185C10.6682 14.1216 10.7188 14.2607 10.7188 14.4056C10.7188 14.5505 10.6682 14.6896 10.578 14.7928V14.7955ZM21.9913 10.6046L26.2591 9.55484C26.3854 9.52366 26.5175 9.55023 26.6265 9.62874C26.7355 9.70724 26.8125 9.83127 26.8405 9.97365L26.9797 10.6983C27.0074 10.8408 26.9838 10.9898 26.9142 11.1127C26.8446 11.2357 26.7347 11.3225 26.6084 11.3541L22.3406 12.4039C22.2143 12.4351 22.0822 12.4085 21.9732 12.33C21.8642 12.2515 21.7873 12.1274 21.7592 11.9851L21.62 11.2604C21.6059 11.1897 21.6044 11.1165 21.6155 11.0451C21.6265 10.9737 21.65 10.9054 21.6845 10.8442C21.719 10.7831 21.7638 10.7302 21.8165 10.6886C21.8691 10.647 21.9285 10.6175 21.9913 10.6019V10.6046ZM23.3545 32.2231L23.1297 32.9202C23.0851 33.057 22.9943 33.1684 22.8771 33.2298C22.7598 33.2913 22.6258 33.2978 22.5043 33.2481L18.4002 31.5673C18.2789 31.517 18.1802 31.4146 18.1257 31.2824C18.0712 31.1502 18.0654 30.999 18.1095 30.862L18.3342 30.1648C18.3788 30.028 18.4697 29.9167 18.5869 29.8552C18.7041 29.7938 18.8381 29.7872 18.9596 29.837L23.0637 31.5177C23.1845 31.568 23.2828 31.6701 23.3372 31.8016C23.3916 31.9332 23.3978 32.0836 23.3545 32.2203V32.2231ZM31.6335 33.8129L28.2574 36.9375C28.1572 37.0297 28.0287 37.0734 27.9 37.0589C27.7714 37.0444 27.653 36.973 27.5709 36.8603L27.1532 36.2872C27.0714 36.1742 27.0327 36.0293 27.0455 35.8842C27.0584 35.739 27.1217 35.6055 27.2216 35.513L30.5977 32.3884C30.6979 32.2962 30.8264 32.2525 30.9551 32.267C31.0838 32.2815 31.2021 32.3529 31.2842 32.4656L31.7019 33.0387C31.7829 33.1515 31.8212 33.2958 31.8084 33.4403C31.7956 33.5847 31.7327 33.7177 31.6335 33.8102V33.8129ZM28.2672 25.5193C22.431 30.2613 17.5818 27.6988 17.5818 27.6988C13.5877 26.525 12.4859 19.8598 20.7308 16.1815C29.5986 12.2248 32.2491 18.2535 32.2491 18.2535C32.2491 18.2535 34.1058 20.7664 28.2672 25.5193ZM35.5446 4.57869L31.614 6.7251C31.4973 6.78862 31.3631 6.79731 31.2408 6.74926C31.1185 6.70121 31.0181 6.60035 30.9617 6.46885L30.6759 5.80206C30.6196 5.67051 30.6119 5.51913 30.6545 5.38118C30.6971 5.24323 30.7865 5.13 30.9031 5.06638L34.8337 2.92548C34.9504 2.86196 35.0846 2.85327 35.2069 2.90132C35.3292 2.94937 35.4296 3.05023 35.486 3.18172L35.7718 3.84852C35.8266 3.97948 35.8335 4.12951 35.791 4.26614C35.7485 4.40278 35.66 4.51506 35.5446 4.57869ZM41.4541 23.2296L40.7212 28.0846C40.6991 28.2285 40.6273 28.3566 40.5214 28.4409C40.4156 28.5251 40.2845 28.5585 40.1569 28.5337L39.5095 28.4069C39.3819 28.382 39.2683 28.301 39.1936 28.1817C39.1189 28.0623 39.0893 27.9144 39.1113 27.7705L39.8442 22.9155C39.8663 22.7716 39.9381 22.6434 40.0439 22.5592C40.1497 22.475 40.2809 22.4416 40.4085 22.4664L41.0559 22.5932C41.1198 22.6054 41.1809 22.6319 41.2357 22.6711C41.2904 22.7103 41.3377 22.7614 41.3748 22.8214C41.4118 22.8814 41.4379 22.9492 41.4515 23.0207C41.4651 23.0922 41.466 23.166 41.4541 23.2379V23.2296ZM44.7105 14.2334L44.2024 14.7046C44.1022 14.7968 43.9737 14.8405 43.845 14.826C43.7163 14.8115 43.598 14.7401 43.5159 14.6274L40.7554 10.8278C40.6736 10.7148 40.6349 10.5699 40.6477 10.4247C40.6606 10.2796 40.7239 10.1461 40.8238 10.0536L41.3319 9.5824C41.4321 9.49018 41.5606 9.44652 41.6893 9.46098C41.818 9.47544 41.9363 9.54685 42.0184 9.65955L44.7887 13.4674C44.8693 13.5818 44.9064 13.7276 44.8917 13.8728C44.8771 14.018 44.8119 14.1507 44.7105 14.2417V14.2334Z" fill="#FCDDEC"/>
<path d="M5.78444 12.6982C5.36181 13.2273 4.96361 13.7535 4.59473 14.2798C4.96442 13.7545 5.36099 13.2273 5.78444 12.6982Z" fill="white"/>
<path d="M4.21875 14.8268C4.33112 14.6615 4.4435 14.4962 4.56076 14.3281C4.4435 14.499 4.33112 14.6588 4.21875 14.8268Z" fill="white"/>
</svg>
