<svg width="130" height="75" viewBox="0 0 130 75" fill="none" xmlns="http://www.w3.org/2000/svg">
<g clip-path="url(#clip0_4828_15121)">
<path d="M21.4166 65.2724V46.2785L16.2512 65.2724H10.4995L5.37523 46.361V65.2724H0V37.5527H8.5011L13.4999 57.8846L18.5005 37.5527H26.8331V65.2724H21.4166Z" fill="white"/>
<path d="M41.9173 65.2729C41.7372 64.6758 41.6254 64.0601 41.5839 63.4377C40.8811 64.2034 40.0114 64.7961 39.0424 65.1697C37.8735 65.6217 36.628 65.8416 35.3752 65.8171C33.0141 65.8171 31.2848 65.2948 30.1873 64.2502C29.0898 63.2056 28.541 61.8489 28.541 60.1801C28.541 58.7052 28.7776 57.5292 29.2508 56.6523C29.7026 55.7979 30.3796 55.084 31.208 54.5881C32.1316 54.0527 33.1392 53.6783 34.1878 53.481C35.339 53.2445 36.5957 53.0287 37.958 52.8336C39.3202 52.6384 40.2373 52.3807 40.7093 52.0605C41.1812 51.7415 41.4172 51.2198 41.4172 50.4955C41.4172 49.8274 41.1051 49.3051 40.4808 48.9286C39.8565 48.552 39.0162 48.3644 37.9598 48.3656C36.7112 48.3656 35.8154 48.644 35.2722 49.2007C34.7044 49.8114 34.3461 50.5878 34.2496 51.4168H29.2171C29.2345 50.4214 29.4103 49.4351 29.7378 48.4951C30.0508 47.6113 30.5801 46.8203 31.2773 46.1945C32.0807 45.5028 33.0265 44.9973 34.0473 44.714C35.1861 44.3649 36.5751 44.1904 38.2146 44.1904C39.8253 44.1904 41.1931 44.3718 42.3181 44.7346C43.3327 45.0318 44.2615 45.5685 45.0263 46.2996C45.7239 47.0114 46.2325 47.8868 46.5059 48.846C46.8257 49.9659 46.9803 51.1266 46.9648 52.2913V65.2729H41.9173ZM41.5427 55.213C41.1979 55.5285 40.7832 55.7574 40.3328 55.881C39.5794 56.1022 38.8148 56.2832 38.0422 56.4233C36.4852 56.7286 35.4158 57.1183 34.834 57.5924C34.2521 58.0665 33.9599 58.7483 33.9574 59.6378C33.9574 61.169 34.8315 61.9346 36.5795 61.9346C37.2424 61.9407 37.9004 61.8197 38.518 61.5781C39.6526 61.1478 40.5777 60.2955 41.1007 59.1987C41.3639 58.6596 41.4991 58.0668 41.4959 57.4667L41.5427 55.213Z" fill="white"/>
<path d="M63.6261 62.5183C63.2365 63.4378 62.5348 64.1546 61.521 64.6688C60.4247 65.2013 59.218 65.4657 57.9999 65.44C56.3056 65.44 54.8822 65.141 53.7297 64.5431C52.6289 63.9868 51.6741 63.1788 50.9428 62.1843C50.2154 61.1691 49.6918 60.022 49.4014 58.8066C49.081 57.5234 48.92 56.2055 48.922 54.8828C48.9053 53.3971 49.1454 51.9198 49.6318 50.5162C50.0559 49.2806 50.7063 48.1352 51.5496 47.1385C52.332 46.2239 53.2974 45.4842 54.3833 44.9674C55.4738 44.4503 56.6661 44.1848 57.8726 44.1905C60.4297 44.1905 62.3469 45.2207 63.6242 47.2811V44.7347H69.0407V65.4907C69.0695 66.9018 68.7995 68.3031 68.2484 69.6021C67.7543 70.739 67.0141 71.7517 66.0815 72.567C65.1281 73.3803 64.0238 73.9969 62.832 74.3815C60.2449 75.2101 57.4654 75.2173 54.874 74.4022C53.7253 74.0394 52.657 73.4584 51.7276 72.6908C50.8539 71.9537 50.1508 71.0348 49.6674 69.998C49.153 68.8726 48.897 67.6459 48.9182 66.4083H53.9582C53.9582 67.6593 54.3677 68.6263 55.1868 69.3094C56.0059 69.9924 57.0965 70.3333 58.4588 70.3321C59.9022 70.3321 61.1245 69.9355 62.1259 69.1424C63.1273 68.3492 63.6267 67.2709 63.6242 65.9073L63.6261 62.5183ZM59.1667 61.1747C59.7979 61.1875 60.4238 61.0571 60.9976 60.7932C61.5713 60.5294 62.0781 60.1389 62.4799 59.651C63.3539 58.6352 63.7909 57.251 63.7909 55.4983C63.7909 51.0998 62.2489 48.9005 59.1649 48.9005C56.0808 48.9005 54.54 50.9903 54.5425 55.1699C54.5425 57.0051 54.9795 58.4657 55.8536 59.5516C56.7276 60.6374 57.832 61.1785 59.1667 61.1747Z" fill="white"/>
<path d="M84.5428 65.2722V52.8329C84.5428 51.2454 84.2787 50.1739 83.7505 49.6184C83.2224 49.063 82.3196 48.7865 81.0423 48.789C78.2367 48.789 76.8339 50.3615 76.8339 53.5065V65.2778H71.4175V44.7339H76.5829V47.7363C77.1632 46.6296 78.0453 45.7108 79.1263 45.0867C80.1802 44.4887 81.5411 44.1891 83.2093 44.1878C84.1303 44.1795 85.0461 44.328 85.9175 44.6269C86.7209 44.9007 87.4539 45.3493 88.0638 45.9405C88.6781 46.5523 89.1601 47.2844 89.4797 48.091C89.8437 49.0308 90.0206 50.0329 90.0004 51.0408V65.276L84.5428 65.2722Z" fill="white"/>
<path d="M97.3349 56.4231C97.4173 57.9818 97.8687 59.2203 98.689 60.1386C99.5094 61.0568 100.586 61.5159 101.918 61.5159C102.743 61.5326 103.557 61.3237 104.272 60.9117C104.592 60.7323 104.873 60.4905 105.099 60.2004C105.324 59.9103 105.489 59.5779 105.583 59.2228H111.166C110.526 61.3383 109.415 62.9646 107.833 64.1017C106.251 65.2389 104.361 65.8093 102.165 65.8131C95.3328 65.8131 91.916 62.0832 91.9147 54.6235C91.8952 53.1632 92.1206 51.71 92.5815 50.3245C92.9917 49.1018 93.6519 47.9782 94.52 47.0256C95.3818 46.0967 96.4429 45.3761 97.6234 44.9183C98.967 44.4088 100.395 44.1604 101.832 44.1864C104.999 44.1864 107.396 45.2029 109.02 47.2357C110.644 49.2686 111.456 52.3298 111.455 56.4193L97.3349 56.4231ZM105.875 53.0003C105.862 52.3209 105.729 51.6492 105.48 51.0169C105.27 50.484 104.951 50.0009 104.544 49.5982C104.164 49.2274 103.709 48.9426 103.21 48.7632C102.716 48.5826 102.195 48.4905 101.669 48.4911C101.144 48.4865 100.624 48.5897 100.141 48.7943C99.6579 48.9989 99.2217 49.3007 98.8595 49.6808C98.0666 50.4752 97.6152 51.5817 97.5054 53.0003H105.875Z" fill="white"/>
<path d="M124.958 51.7467H130V57.592C130.005 58.6473 129.843 59.6967 129.521 60.7014C129.211 61.6726 128.7 62.5677 128.022 63.3285C127.306 64.1188 126.423 64.7393 125.438 65.1449C124.396 65.5903 123.153 65.813 121.709 65.813C120.21 65.813 118.932 65.5903 117.875 65.1449C116.885 64.7464 115.996 64.1331 115.272 63.3491C114.589 62.5953 114.083 61.6975 113.792 60.722C113.483 59.6936 113.328 58.6248 113.333 57.5507V39.1816H118.667V44.7342H130V48.5735H118.667V57.0065C118.667 58.3163 118.91 59.3253 119.396 60.0333C119.881 60.7414 120.681 61.0967 121.793 61.0992C122.876 61.0992 123.674 60.7514 124.188 60.0558C124.703 59.3603 124.959 58.372 124.958 57.091V51.7467Z" fill="white"/>
<path d="M50.8099 32.8523C50.4784 33.3702 49.4502 34.4398 48.3527 34.7457C44.6724 35.4587 42.1721 32.0566 42.1721 32.0566C36.5534 33.419 31.0171 32.1261 31.0171 32.1261C31.0414 33.175 31.1875 34.0739 31.6426 34.5486C32.4892 35.4325 44.0881 37.6899 52.3476 33.6648L50.8099 32.8523Z" fill="#F4BD67"/>
<path d="M59.9889 22.3311C58.6554 23.6183 54.9564 27.24 53.209 27.8574C53.1884 28.4728 53.8682 29.854 54.0986 30.5802C54.329 31.3064 54.6605 32.1452 54.6605 32.1452C55.3441 31.6667 55.7374 31.267 56.3835 30.7246C57.8388 29.5068 59.5768 28.0619 60.5601 26.784C60.5545 26.7746 59.4907 25.401 59.9889 22.3311Z" fill="#F4BD67"/>
<path d="M51.9993 23.5469C52.0668 25.0725 51.2221 27.9698 49.3042 28.4258C45.1202 29.4091 43.5619 26.4404 43.0188 26.2472C42.4757 26.0539 41.0522 29.6493 41.0522 29.6493C41.9456 30.6419 43.0881 31.8654 44.0021 32.6798C45.7757 34.2598 49.1975 35.2093 50.6415 31.7997C53.2898 33.7588 54.5203 33.1001 53.5838 30.9966C52.7616 29.1482 51.9132 27.495 52.9845 23.9578L51.9993 23.5469Z" fill="#F08657"/>
<path d="M26.6796 22.8466C29.3542 24.3065 36.0854 26.2506 46.5792 21.6569C56.8708 16.0931 59.6071 10.6099 59.2794 9.13688C58.9516 7.66382 53.4397 -4.07744 36.1247 1.48638C23.4039 5.57528 24.0876 16.337 24.8873 20.394C24.9882 20.9095 25.201 21.3965 25.5108 21.8203C25.8205 22.2442 26.2196 22.5946 26.6796 22.8466Z" fill="#F4BD67"/>
<path d="M60.0322 9.59668C60.3693 11.1523 57.3483 16.5116 46.7777 22.3907C35.9991 27.2414 29.0844 25.1885 26.3368 23.646C25.8617 23.3735 25.4515 23.0005 25.1348 22.5529C24.8181 22.1054 24.6026 21.5941 24.5033 21.0546C24.5033 21.0546 21.1676 25.4512 23.3477 25.4043C25.5277 25.3574 25.7487 24.8827 26.5054 25.1172C27.2808 25.5563 31.6465 30.7054 32.9051 28.4574C34.1637 26.2093 38.9696 33.0267 40.8987 28.5325C42.8277 24.0382 43.1461 25.2392 43.5582 25.7177C44.7025 27.0688 48.9278 29.7803 50.6059 26.3238C51.8177 23.8262 51.5573 22.9349 51.2446 22.4732C51.2362 22.4599 51.2327 22.4442 51.2344 22.4285C51.2362 22.4129 51.2432 22.3984 51.2543 22.3873C51.2654 22.3762 51.2799 22.3691 51.2955 22.3674C51.3111 22.3656 51.3268 22.3692 51.3401 22.3775C52.3159 23.0906 54.524 24.3835 55.3031 22.0679C56.2265 19.3207 55.3031 19.0655 55.3031 19.0655C55.3031 19.0655 60.2813 18.8666 60.0584 16.8006C59.8356 14.7345 59.6295 14.7364 59.6295 14.7364C59.6295 14.7364 65.0347 11.9686 63.3566 10.9327C62.3299 10.3062 61.2065 9.85466 60.0322 9.59668Z" fill="#65A18A"/>
<path d="M41.9119 31.3376C35.1395 32.3885 29.1088 31.2251 27.8352 30.3037C26.5073 29.341 25.775 27.6522 25.5634 26.2129C25.5334 26.0121 25.5109 25.8245 25.4922 25.65C25.7413 25.6245 25.9923 25.6245 26.2413 25.65C26.3902 25.6736 26.5264 25.7478 26.6272 25.8601C27.4194 26.7252 31.7608 31.302 32.9033 29.2679C34.0457 27.2337 38.522 32.5292 40.7077 30.1142L41.9119 31.3376Z" fill="#A36045"/>
<path d="M98.4997 17.2383C97.7993 18.3116 96.8872 19.0041 96.8141 20.0117C97.376 23.7648 98.4136 24.9957 95.2446 25.3692C92.0757 25.7426 93.3343 27.7636 92.5364 29.7001C91.7386 31.6367 88.7906 29.6776 87.9853 30.2481C85.5973 35.1495 84.0278 33.667 81.638 33.4381C79.2482 33.2092 78.3642 35.491 75.8526 35.6055C73.341 35.7199 72.9028 32.1846 68.9229 33.7778C66.3008 34.8267 63.5982 31.5973 62.0475 29.0734C62.0387 29.0594 62.0251 29.0492 62.0092 29.0448C61.9933 29.0404 61.9764 29.0422 61.9618 29.0498C61.9471 29.0573 61.9359 29.0701 61.9302 29.0856C61.9246 29.1011 61.925 29.1182 61.9313 29.1334C62.6599 30.9818 63.6844 32.1358 65.252 34.0123C72.0787 42.2201 85.2527 36.4067 92.7612 31.6198C98.069 28.2421 99.6909 22.8715 98.4997 17.2383Z" fill="#F4BD67"/>
<path d="M8.58738 21.4261V36.3668H0.0600586V0.938477H25.2506V7.13093H8.58176V15.183H23.0031V21.4261H8.58738Z" fill="white"/>
<path d="M99.9102 36.3667V0.938398H113.597C115.855 0.915707 118.096 1.32327 120.201 2.13936C122.161 2.89628 123.933 4.07051 125.395 5.58086C126.877 7.14738 128.027 8.99858 128.775 11.0227C129.592 13.1582 130 15.5776 130 18.281C130.03 20.7867 129.662 23.2812 128.908 25.6707C128.254 27.7605 127.196 29.7008 125.794 31.3809C124.465 32.947 122.81 34.2035 120.947 35.0626C118.99 35.9518 116.863 36.4001 114.715 36.3761L99.9102 36.3667ZM113.225 30.3375C116.456 30.3375 118.8 29.333 120.255 27.3239C121.711 25.3148 122.439 22.2999 122.437 18.2791C122.437 16.2863 122.26 14.5787 121.906 13.1563C121.551 11.7339 120.974 10.5686 120.175 9.66038C119.35 8.74039 118.292 8.06092 117.113 7.6938C115.864 7.28473 114.355 7.08019 112.586 7.08019H107.1V30.3488L113.225 30.3375Z" fill="white"/>
<path d="M84.4097 16.6304C78.0231 15.7053 74.8972 21.5093 74.4178 22.4138C74.4014 22.4449 74.3744 22.4689 74.3417 22.4817C74.309 22.4944 74.2729 22.495 74.2398 22.4833C73.6274 22.2712 71.4642 21.2241 72.5767 18.9536C74.075 15.8986 77.8208 14.9641 80.501 14.8966C82.5443 14.8459 83.9096 15.756 84.5352 16.379C84.5571 16.401 84.5715 16.4293 84.5765 16.46C84.5814 16.4907 84.5766 16.5222 84.5627 16.55C84.5489 16.5778 84.5266 16.6005 84.4992 16.6149C84.4717 16.6294 84.4404 16.6348 84.4097 16.6304Z" fill="#F4BD67"/>
<path d="M60.199 21.2045C58.8243 22.3736 57.3354 23.796 55.2789 25.5524C54.5651 26.1611 53.8145 26.7251 53.0314 27.2412C53.0314 27.2412 52.8629 25.2428 53.524 24.0681C54.5953 24.494 55.7153 23.2443 55.9232 22.4881C56.56 20.1743 56.3689 19.8272 56.2041 19.6414C57.7455 19.3337 60.9857 18.872 60.6785 16.8267C60.4912 15.6013 60.5455 15.5844 60.5455 15.5844C61.2676 15.486 61.9792 15.3214 62.6713 15.0928C62.1062 15.76 61.6453 16.5091 61.304 17.3145C60.7995 18.5684 60.4291 19.8724 60.199 21.2045Z" fill="#A36045"/>
<path d="M98.3068 14.2079C97.2505 11.4175 95.7297 6.71879 89.0378 4.85167C82.346 2.98455 74.5416 4.4182 67.8591 9.97076C61.4313 15.3225 60.0584 20.6011 60.669 24.9584C60.7121 25.2699 60.8057 25.5722 60.9462 25.8535C61.8246 27.6174 65.4524 34.3521 68.921 32.9617C72.9028 31.3666 73.3579 34.9001 75.8601 34.7856C78.3623 34.6712 79.044 32.3931 81.4357 32.6201C83.7768 32.8434 85.1366 34.2715 87.4384 29.7116C87.4997 29.5897 87.5959 29.4889 87.7147 29.4221C87.8334 29.3552 87.9694 29.3254 88.1051 29.3363C89.2626 29.4432 91.4595 30.7174 92.13 29.0867C92.926 27.1483 91.4632 25.1273 94.6341 24.7557C97.8049 24.3842 96.5669 23.1588 95.9975 19.3983C96.1118 17.8014 99.3631 16.9964 98.3068 14.2079ZM68.4846 26.1631L68.1288 26.5215C68.0586 26.5914 67.9636 26.6306 67.8647 26.6306C67.7657 26.6306 67.6708 26.5914 67.6006 26.5215L65.2333 24.1477C65.1635 24.0774 65.1243 23.9823 65.1243 23.8831C65.1243 23.784 65.1635 23.6889 65.2333 23.6186L65.5891 23.262C65.6593 23.1921 65.7542 23.1529 65.8532 23.1529C65.9521 23.1529 66.0471 23.1921 66.1173 23.262L68.4846 25.6339C68.5544 25.7042 68.5935 25.7994 68.5935 25.8985C68.5935 25.9977 68.5544 26.0928 68.4846 26.1631ZM68.6476 14.1535L66.2783 16.5254C66.2082 16.5953 66.1132 16.6345 66.0143 16.6345C65.9153 16.6345 65.8204 16.5953 65.7502 16.5254L65.3943 16.167C65.3246 16.0967 65.2854 16.0015 65.2854 15.9024C65.2854 15.8032 65.3246 15.7081 65.3943 15.6378L67.7617 13.2659C67.8318 13.196 67.9268 13.1568 68.0257 13.1568C68.1247 13.1568 68.2196 13.196 68.2898 13.2659L68.6476 13.6224C68.7173 13.6928 68.7565 13.7879 68.7565 13.887C68.7565 13.9862 68.7173 14.0813 68.6476 14.1516V14.1535ZM77.3959 11.2975L80.6678 10.5806C80.7647 10.56 80.8657 10.5786 80.9489 10.6324C81.0321 10.6862 81.0906 10.7708 81.1117 10.8677L81.2203 11.3613C81.2409 11.4583 81.2223 11.5595 81.1686 11.6429C81.115 11.7262 81.0305 11.7848 80.9338 11.806L77.6637 12.5228C77.6156 12.5333 77.5659 12.5342 77.5175 12.5254C77.4691 12.5167 77.4228 12.4985 77.3814 12.4718C77.3401 12.4451 77.3043 12.4106 77.2763 12.37C77.2482 12.3295 77.2284 12.2839 77.218 12.2357L77.1112 11.7422C77.0906 11.6454 77.1089 11.5444 77.1622 11.4611C77.2155 11.3778 77.2995 11.319 77.3959 11.2975ZM78.4428 26.0205L78.2705 26.4952C78.2363 26.5884 78.1667 26.6643 78.0768 26.7061C77.987 26.748 77.8842 26.7524 77.7911 26.7185L74.6446 25.5739C74.5512 25.54 74.4751 25.4704 74.433 25.3803C74.3908 25.2902 74.3861 25.1871 74.4198 25.0935L74.5921 24.6187C74.6263 24.5255 74.696 24.4497 74.7858 24.4079C74.8757 24.366 74.9785 24.3615 75.0716 24.3954L78.2181 25.5401C78.3114 25.574 78.3876 25.6436 78.4297 25.7337C78.4718 25.8238 78.4766 25.9269 78.4428 26.0205ZM84.7901 27.1032L82.2017 29.2312C82.1249 29.294 82.0264 29.3237 81.9278 29.3139C81.8291 29.304 81.7384 29.2554 81.6755 29.1786L81.3552 28.7883C81.2925 28.7114 81.2628 28.6127 81.2727 28.5138C81.2825 28.415 81.331 28.3241 81.4076 28.261L83.996 26.135C84.0726 26.0719 84.1709 26.0419 84.2696 26.0514C84.3682 26.0609 84.4591 26.1091 84.5223 26.1856L84.8425 26.5759C84.9052 26.6529 84.9349 26.7516 84.9251 26.8504C84.9152 26.9493 84.8667 27.0402 84.7901 27.1032ZM82.2092 21.4493C77.733 24.6788 74.0172 22.9336 74.0172 22.9336C70.9531 22.1342 70.1084 17.595 76.4313 15.0899C83.23 12.3952 85.2621 16.4991 85.2621 16.4991C85.2621 16.4991 86.6836 18.2199 82.2092 21.4493ZM87.7867 7.20105L84.7732 8.66284C84.684 8.70551 84.5816 8.71111 84.4883 8.67842C84.3949 8.64573 84.3183 8.5774 84.275 8.48833L84.054 8.03421C84.0115 7.94482 84.0059 7.84219 84.0385 7.74869C84.0711 7.65518 84.1393 7.5784 84.2282 7.53507L87.2417 6.07327C87.3309 6.02988 87.4336 6.02369 87.5274 6.05605C87.6211 6.08841 87.6982 6.15668 87.7418 6.24591L87.9609 6.70002C88.0041 6.78961 88.01 6.89271 87.9773 6.98666C87.9447 7.08061 87.8761 7.15772 87.7867 7.20105ZM92.3192 19.9031L91.7573 23.2095C91.7403 23.3071 91.6855 23.3941 91.6048 23.4514C91.5241 23.5087 91.4241 23.5317 91.3265 23.5154L90.8302 23.429C90.7324 23.4121 90.6453 23.3569 90.588 23.2756C90.5308 23.1943 90.5081 23.0936 90.5249 22.9956L91.0868 19.691C91.1037 19.593 91.1588 19.5057 91.2399 19.4484C91.321 19.391 91.4216 19.3683 91.5194 19.3852L92.0157 19.4696C92.1132 19.487 92.1999 19.5424 92.2567 19.6236C92.3136 19.7048 92.336 19.8053 92.3192 19.9031ZM94.8139 13.7763L94.4243 14.0953C94.3477 14.1583 94.2494 14.1884 94.1507 14.1789C94.0521 14.1694 93.9612 14.1211 93.898 14.0446L91.7723 11.4476C91.7096 11.3706 91.6799 11.2719 91.6897 11.1731C91.6996 11.0742 91.7481 10.9833 91.8247 10.9203L92.2143 10.6013C92.2908 10.5382 92.3892 10.5082 92.4879 10.5177C92.5865 10.5272 92.6774 10.5755 92.7406 10.6519L94.8663 13.249C94.929 13.326 94.9587 13.4247 94.9488 13.5235C94.939 13.6224 94.8905 13.7133 94.8139 13.7763Z" fill="#F8B5A4"/>
<path d="M64.8737 12.2563C64.8119 12.0687 64.3681 12.0199 64.1246 11.9092C63.3273 13.1573 62.1926 14.1529 60.8526 14.7802C59.86 15.2587 61.1336 14.9923 62.9971 14.5081C63.0008 14.5081 64.0328 12.8287 64.8737 12.2563Z" fill="#EF8557"/>
<path d="M64.9712 12.7246C64.6478 13.0849 64.3438 13.4439 64.0591 13.8017C64.3419 13.4433 64.6472 13.0849 64.9712 12.7246Z" fill="white"/>
<path d="M63.7725 14.1736C63.8567 14.061 63.9448 13.9466 64.0328 13.834C63.9448 13.9466 63.8661 14.061 63.7725 14.1736Z" fill="white"/>
</g>
<defs>
<clipPath id="clip0_4828_15121">
<rect width="130" height="75" fill="white"/>
</clipPath>
</defs>
</svg>
