<svg width="564" height="546" viewBox="0 0 564 546" fill="none" xmlns="http://www.w3.org/2000/svg">
<path d="M280.451 172.68H260.622V195.756H280.451V172.68Z" fill="white" stroke="#263238" stroke-linecap="round" stroke-linejoin="round"/>
<path d="M303.503 172.68H283.673V195.756H303.503V172.68Z" fill="white" stroke="#263238" stroke-linecap="round" stroke-linejoin="round"/>
<path d="M326.544 172.68H306.715V195.756H326.544V172.68Z" fill="white" stroke="#263238" stroke-linecap="round" stroke-linejoin="round"/>
<path d="M280.451 172.68H260.622V181.019H280.451V172.68Z" fill="white" stroke="#263238" stroke-linecap="round" stroke-linejoin="round"/>
<path d="M303.503 172.68H283.673V181.019H303.503V172.68Z" fill="white" stroke="#263238" stroke-linecap="round" stroke-linejoin="round"/>
<path d="M326.544 172.68H306.715V181.019H326.544V172.68Z" fill="white" stroke="#263238" stroke-linecap="round" stroke-linejoin="round"/>
<path d="M307.45 257.779H287.621V280.855H307.45V257.779Z" fill="white" stroke="#263238" stroke-linecap="round" stroke-linejoin="round"/>
<path d="M330.503 257.779H310.674V280.855H330.503V257.779Z" fill="white" stroke="#263238" stroke-linecap="round" stroke-linejoin="round"/>
<path d="M353.544 257.779H333.715V280.855H353.544V257.779Z" fill="white" stroke="#263238" stroke-linecap="round" stroke-linejoin="round"/>
<path d="M307.45 257.779H287.621V266.117H307.45V257.779Z" fill="white" stroke="#263238" stroke-linecap="round" stroke-linejoin="round"/>
<path d="M330.503 257.779H310.674V266.117H330.503V257.779Z" fill="white" stroke="#263238" stroke-linecap="round" stroke-linejoin="round"/>
<path d="M353.544 257.779H333.715V266.117H353.544V257.779Z" fill="white" stroke="#263238" stroke-linecap="round" stroke-linejoin="round"/>
<path d="M366.098 172.68H346.269V195.756H366.098V172.68Z" fill="white" stroke="#263238" stroke-linecap="round" stroke-linejoin="round"/>
<path d="M389.15 172.68H369.321V195.756H389.15V172.68Z" fill="white" stroke="#263238" stroke-linecap="round" stroke-linejoin="round"/>
<path d="M412.191 172.68H392.362V195.756H412.191V172.68Z" fill="white" stroke="#263238" stroke-linecap="round" stroke-linejoin="round"/>
<path d="M366.098 172.68H346.269V181.019H366.098V172.68Z" fill="white" stroke="#263238" stroke-linecap="round" stroke-linejoin="round"/>
<path d="M389.15 172.68H369.321V181.019H389.15V172.68Z" fill="white" stroke="#263238" stroke-linecap="round" stroke-linejoin="round"/>
<path d="M412.191 172.68H392.362V181.019H412.191V172.68Z" fill="white" stroke="#263238" stroke-linecap="round" stroke-linejoin="round"/>
<path d="M453.533 172.68H433.703V195.756H453.533V172.68Z" fill="white" stroke="#263238" stroke-linecap="round" stroke-linejoin="round"/>
<path d="M476.584 172.68H456.755V195.756H476.584V172.68Z" fill="white" stroke="#263238" stroke-linecap="round" stroke-linejoin="round"/>
<path d="M499.626 172.68H479.796V195.756H499.626V172.68Z" fill="white" stroke="#263238" stroke-linecap="round" stroke-linejoin="round"/>
<path d="M453.533 172.68H433.703V181.019H453.533V172.68Z" fill="white" stroke="#263238" stroke-linecap="round" stroke-linejoin="round"/>
<path d="M476.584 172.68H456.755V181.019H476.584V172.68Z" fill="white" stroke="#263238" stroke-linecap="round" stroke-linejoin="round"/>
<path d="M499.626 172.68H479.796V181.019H499.626V172.68Z" fill="white" stroke="#263238" stroke-linecap="round" stroke-linejoin="round"/>
<path d="M489.279 235.216V216.158H481.735V235.216L475.487 244.769V282.571H495.527V244.769L489.279 235.216Z" fill="white" stroke="#263238" stroke-linecap="round" stroke-linejoin="round"/>
<path d="M489.267 216.158H481.734V226.107H489.267V216.158Z" fill="white" stroke="#263238" stroke-linecap="round" stroke-linejoin="round"/>
<path d="M490.973 254.334H475.487V270.274H490.973V254.334Z" fill="white" stroke="#263238" stroke-linecap="round" stroke-linejoin="round"/>
<path d="M463.318 235.216V216.158H455.786V235.216L449.538 244.769V282.571H469.566V244.769L463.318 235.216Z" fill="white" stroke="#263238" stroke-linecap="round" stroke-linejoin="round"/>
<path d="M463.319 216.158H455.786V226.107H463.319V216.158Z" fill="white" stroke="#263238" stroke-linecap="round" stroke-linejoin="round"/>
<path d="M465.023 254.334H449.538V270.274H465.023V254.334Z" fill="white" stroke="#263238" stroke-linecap="round" stroke-linejoin="round"/>
<path d="M277.356 235.216V216.158H269.824V235.216L263.576 244.769V282.571H283.616V244.769L277.356 235.216Z" fill="white" stroke="#263238" stroke-linecap="round" stroke-linejoin="round"/>
<path d="M277.356 216.158H269.823V226.107H277.356V216.158Z" fill="white" stroke="#263238" stroke-linecap="round" stroke-linejoin="round"/>
<path d="M279.061 254.334H263.576V270.274H279.061V254.334Z" fill="white" stroke="#263238" stroke-linecap="round" stroke-linejoin="round"/>
<path d="M252.061 196.621H507.672" stroke="#263238" stroke-width="4" stroke-linecap="round" stroke-linejoin="round"/>
<path d="M336.494 112.479V283.47" stroke="#263238" stroke-width="4" stroke-linecap="round" stroke-linejoin="round"/>
<path d="M424.944 112.479V283.47" stroke="#263238" stroke-width="4" stroke-linecap="round" stroke-linejoin="round"/>
<path d="M509.471 110.249H251.688V283.623H509.471V110.249Z" stroke="#263238" stroke-width="4" stroke-linecap="round" stroke-linejoin="round"/>
<path d="M211.421 213.238H56.2422V329.26H211.421V213.238Z" fill="white" stroke="#263238" stroke-linecap="round" stroke-linejoin="round"/>
<path d="M211.421 249.382H56.2422V254.672H211.421V249.382Z" fill="white" stroke="#263238" stroke-linecap="round" stroke-linejoin="round"/>
<path d="M62.6067 283.785C62.6067 283.785 70.6646 273.555 82.4595 274.174C94.2544 274.793 96.4733 284.1 96.4733 284.1H58.8931L62.6067 283.785Z" fill="white" stroke="#263238" stroke-linecap="round" stroke-linejoin="round"/>
<path d="M72.8364 285.023C72.8364 285.023 75.0086 274.151 82.4475 274.151" stroke="#263238" stroke-linecap="round" stroke-linejoin="round"/>
<path d="M84.3052 284.404C84.3052 284.404 85.2394 276.043 91.7558 277.281" stroke="#263238" stroke-linecap="round" stroke-linejoin="round"/>
<path d="M116.245 283.785C116.245 283.785 124.303 273.555 136.098 274.174C147.893 274.793 150.111 284.1 150.111 284.1H112.52L116.245 283.785Z" fill="white" stroke="#263238" stroke-linecap="round" stroke-linejoin="round"/>
<path d="M126.475 285.023C126.475 285.023 128.635 274.174 136.074 274.174" stroke="#263238" stroke-linecap="round" stroke-linejoin="round"/>
<path d="M137.942 284.404C137.942 284.404 138.865 276.043 145.381 277.281" stroke="#263238" stroke-linecap="round" stroke-linejoin="round"/>
<path d="M169.87 283.785C169.87 283.785 177.928 273.555 189.723 274.174C201.518 274.793 203.667 284.1 203.667 284.1H166.145L169.87 283.785Z" fill="white" stroke="#263238" stroke-linecap="round" stroke-linejoin="round"/>
<path d="M180.101 285.023C180.101 285.023 182.273 274.174 189.712 274.174" stroke="#263238" stroke-linecap="round" stroke-linejoin="round"/>
<path d="M191.568 284.404C191.568 284.404 192.503 276.043 199.007 277.281" stroke="#263238" stroke-linecap="round" stroke-linejoin="round"/>
<path d="M211.421 284.113H56.2422V289.403H211.421V284.113Z" fill="white" stroke="#263238" stroke-linecap="round" stroke-linejoin="round"/>
<path d="M211.421 213.238H56.2422V218.505H211.421V213.238Z" fill="white" stroke="#263238" stroke-linecap="round" stroke-linejoin="round"/>
<path d="M211.421 313.88H56.2422V329.249H211.421V313.88Z" fill="white" stroke="#263238" stroke-linecap="round" stroke-linejoin="round"/>
<path d="M85.8578 231.082H64.7788V249.685H85.8578V231.082Z" fill="white" stroke="#263238" stroke-linecap="round" stroke-linejoin="round"/>
<path d="M85.8578 231.082H64.7788V233.814H85.8578V231.082Z" fill="white" stroke="#263238" stroke-linecap="round" stroke-linejoin="round"/>
<path d="M169.556 231.082H104.766V249.685H169.556V231.082Z" fill="white" stroke="#263238" stroke-linecap="round" stroke-linejoin="round"/>
<path d="M169.556 231.082H104.766V233.814H169.556V231.082Z" fill="white" stroke="#263238" stroke-linecap="round" stroke-linejoin="round"/>
<path d="M152.505 231.082H134.836V249.685H152.505V231.082Z" fill="white" stroke="#263238" stroke-linecap="round" stroke-linejoin="round"/>
<path d="M152.505 231.082H134.836V233.814H152.505V231.082Z" fill="white" stroke="#263238" stroke-linecap="round" stroke-linejoin="round"/>
<path d="M376.841 410.984L393.448 522.989L391.311 526.2V531.829C391.311 531.829 380.8 541.172 380.59 542.339C380.445 543.315 380.445 544.307 380.59 545.282H411.409C411.409 545.282 411.409 540.996 411.14 538.579C410.871 536.162 410.066 536.71 410.334 533.756C410.603 530.801 411.946 525.721 411.677 523.047C411.409 520.373 409.797 520.361 409.528 515.807C409.26 511.252 406.025 410.236 406.025 410.236L376.841 410.984Z" fill="#263238" stroke="#263238" stroke-linecap="round" stroke-linejoin="round"/>
<path d="M441.211 410.984L424.593 522.989L426.742 526.2V531.829C426.742 531.829 437.182 541.172 437.451 542.339C437.596 543.315 437.596 544.307 437.451 545.282H406.644C406.644 545.282 406.644 540.996 406.913 538.579C407.181 536.162 407.975 536.71 407.718 533.756C407.461 530.801 406.107 525.721 406.375 523.047C406.644 520.373 408.244 520.361 408.512 515.807C408.781 511.252 412.016 410.236 412.016 410.236L441.211 410.984Z" fill="#263238" stroke="#263238" stroke-linecap="round" stroke-linejoin="round"/>
<path d="M457.105 298.243L460.784 326.703C460.784 326.703 456.895 329.973 453.216 328.139C449.538 326.306 443.594 319.544 443.185 318.516C442.776 317.489 441.34 299.843 441.34 299.843L457.105 298.243Z" fill="#B5B5B5" stroke="#263238" stroke-linecap="round" stroke-linejoin="round"/>
<path d="M457.105 298.243L441.34 299.878C441.34 299.878 441.573 302.669 441.877 306.091H458.121L457.105 298.243Z" fill="#263238" stroke="#263238" stroke-linecap="round" stroke-linejoin="round"/>
<path d="M360.107 297.835L357.655 325.454C357.655 325.454 356.837 334.656 356.837 338.954C356.837 343.251 356.931 380.785 356.931 380.785C356.931 380.785 355.494 391.015 356.522 392.463C357.55 393.911 361.835 399.622 361.835 399.622C361.835 399.622 366.133 400.848 366.752 401.058C367.371 401.268 369.204 398.606 368.177 398.185C367.176 397.844 366.154 397.571 365.117 397.368L361.835 390.618L364.299 384.066C364.299 384.066 366.133 392.463 366.133 393.28C366.133 394.098 367.161 395.943 367.768 393.479C368.375 391.015 367.569 388.983 368.177 385.911C368.784 382.84 367.569 380.423 366.331 378.087C365.094 375.751 364.486 374.817 364.486 374.817C364.486 374.817 371.972 332.776 372.579 330.942C373.187 329.109 375.674 298.034 375.674 298.034L360.107 297.835Z" fill="#B5B5B5" stroke="#263238" stroke-linecap="round" stroke-linejoin="round"/>
<path d="M359.383 306.091H375.008C375.394 301.42 375.662 298.034 375.662 298.034L360.107 297.835L359.383 306.091Z" fill="#263238" stroke="#263238" stroke-linecap="round" stroke-linejoin="round"/>
<path d="M440.99 301.116L465.911 299.505C465.911 299.505 455.727 261.457 455.727 260.395C455.727 259.332 425.177 236.011 425.177 236.011L423.297 235.742L408.559 237.949L393.822 235.719L391.953 235.987C391.953 235.987 361.403 259.344 361.403 260.371C361.403 261.399 351.22 299.481 351.22 299.481L376.141 301.093L374.004 330.288C374.004 330.288 370.781 349.849 371.855 361.913C372.929 373.976 371.516 415.235 371.516 415.235H445.602C445.602 415.235 445.275 372.89 445.275 361.913C445.275 349.802 442.589 330.288 442.589 330.288L440.99 301.116Z" fill="white" stroke="#263238" stroke-linecap="round" stroke-linejoin="round"/>
<path d="M433.212 242.433L432.102 241.265L429.86 239.537L435.36 267.565H382.307L386.861 240.506L383.918 242.643C383.918 242.643 377.484 266 377.215 268.908C376.946 271.815 376.141 301.058 376.141 301.058L374.004 330.253C374.004 330.253 370.78 349.814 371.855 361.877C372.929 373.941 371.516 415.2 371.516 415.2H445.602C445.602 415.2 445.275 372.855 445.275 361.877C445.275 349.767 442.589 330.253 442.589 330.253L440.989 301.058L442.064 271.045L433.212 242.433Z" fill="#DBB6FF" stroke="#263238" stroke-linecap="round" stroke-linejoin="round"/>
<path d="M394.02 225.103C392.369 226.644 391.187 228.619 390.61 230.802C389.442 234.679 385.6 256.494 387.188 256.319C388.776 256.144 399.719 248.798 400.863 248.144C402.008 247.49 409.283 253.61 409.283 253.61C409.283 253.61 415.671 247.689 417.259 247.233C418.848 246.778 430.701 255.408 430.934 253.388C431.168 251.368 424.103 229.693 421.358 226.528C418.614 223.363 411.794 223.106 411.794 223.106C411.794 223.106 401.774 219.86 394.02 225.103Z" fill="white" stroke="#263238" stroke-linecap="round" stroke-linejoin="round"/>
<path d="M392.198 218.26C392.198 218.26 394.931 235.345 395.386 237.401C395.842 239.456 408.372 253.808 409.283 253.575C410.194 253.341 418.17 235.123 418.404 233.979C418.638 232.834 419.77 218.097 419.77 218.097L392.198 218.26Z" fill="#B5B5B5" stroke="#263238" stroke-linecap="round" stroke-linejoin="round"/>
<path d="M411.035 218.097L392.198 218.249C392.198 218.249 394.195 230.674 395.059 235.602L407.497 230.931L411.035 218.097Z" fill="#263238" stroke="#263238" stroke-linecap="round" stroke-linejoin="round"/>
<path d="M387.188 199.809C387.188 199.809 382.178 197.298 382.178 203.23C382.233 205.157 382.735 207.044 383.645 208.742C384.555 210.441 385.848 211.904 387.422 213.017C388.099 213.484 387.188 199.809 387.188 199.809Z" fill="#B5B5B5" stroke="#263238" stroke-linecap="round" stroke-linejoin="round"/>
<path d="M421.219 199.809C421.219 199.809 426.229 197.298 426.229 203.23C426.173 205.155 425.671 207.041 424.764 208.739C423.856 210.437 422.566 211.901 420.997 213.017C420.249 213.484 421.219 199.809 421.219 199.809Z" fill="#B5B5B5" stroke="#263238" stroke-linecap="round" stroke-linejoin="round"/>
<path d="M393.564 171.559C393.564 171.559 383.054 178.846 383.544 184.311C384.035 189.777 387.422 215.305 388.788 217.349C390.154 219.392 400.863 232.157 402.229 232.39C403.596 232.624 411.152 232.927 411.572 232.017C411.992 231.106 421.79 218.949 422.246 215.982C422.701 213.016 423.157 183.634 422.246 180.668C421.335 177.702 412.938 163.349 393.564 171.559Z" fill="#B5B5B5" stroke="#263238" stroke-linecap="round" stroke-linejoin="round"/>
<path d="M393.564 171.559C393.564 171.559 383.054 178.846 383.544 184.311C383.813 187.476 385.063 197.344 386.336 205.507C387.176 204.129 389.582 199.866 389.01 196.842C388.541 193.065 388.314 189.261 388.333 185.456C392.832 186.946 397.501 187.865 402.229 188.188C409.75 188.644 419.081 185 419.081 185C419.081 185 418.626 196.164 419.536 197.531C420.214 198.547 421.872 202.085 422.725 203.825C422.876 194.308 422.841 182.489 422.281 180.667C421.358 177.713 412.938 163.349 393.564 171.559Z" fill="#263238" stroke="#263238" stroke-linecap="round" stroke-linejoin="round"/>
<path d="M401.774 217.582C401.774 217.582 405.64 218.949 407.462 218.493C408.682 218.151 409.838 217.611 410.883 216.893" stroke="#263238" stroke-linecap="round" stroke-linejoin="round"/>
<path d="M399.719 220.315C401.565 221.673 403.804 222.391 406.095 222.358C408.733 221.989 411.281 221.142 413.616 219.859" stroke="#263238" stroke-linecap="round" stroke-linejoin="round"/>
<path d="M394.02 207.329C395.159 207.981 396.441 208.342 397.753 208.381C399.064 208.419 400.365 208.134 401.541 207.551" stroke="#263238" stroke-linecap="round" stroke-linejoin="round"/>
<path d="M410.883 207.586C410.883 207.586 415.215 208.497 417.715 206.418" stroke="#263238" stroke-linecap="round" stroke-linejoin="round"/>
<path d="M401.774 203.685C401.774 203.685 397.208 202.085 394.02 203.907" stroke="#263238" stroke-linecap="round" stroke-linejoin="round"/>
<path d="M410.708 204.14C410.708 204.14 414.808 201.63 417.715 203.907" stroke="#263238" stroke-linecap="round" stroke-linejoin="round"/>
<path d="M446.046 314.196C446.046 314.196 454.443 317.477 458.122 320.747C461.8 324.017 460.994 330.568 459.289 333.593C457.584 336.618 450.905 338.089 448.651 337.482C446.397 336.874 444.19 332.694 442.531 330.276C440.873 327.859 435.968 316.811 435.968 316.811L446.046 314.196Z" fill="#B5B5B5" stroke="#263238" stroke-linecap="round" stroke-linejoin="round"/>
<path d="M433.983 310.354C432.614 310.961 431.168 311.378 429.685 311.592C427.641 311.79 423.542 310.155 423.344 312.199C423.145 314.243 425.995 315.878 427.84 316.298C429.608 316.517 431.397 316.517 433.165 316.298C435.551 318.632 438.078 320.816 440.733 322.838C442.986 324.274 449.117 322.639 448.907 319.766C448.697 316.894 443.991 312.818 441.538 311.592C439.086 310.365 433.983 310.354 433.983 310.354Z" fill="#B5B5B5" stroke="#263238" stroke-linecap="round" stroke-linejoin="round"/>
<path d="M434.999 305.6C434.999 305.6 432.138 315.013 433.166 316.251C434.193 317.489 435.209 317.477 436.027 316.858C436.844 316.239 439.705 310.307 440.324 308.064C440.943 305.822 437.463 301.922 434.999 305.6Z" fill="#B5B5B5" stroke="#263238" stroke-linecap="round" stroke-linejoin="round"/>
<path d="M440.324 308.018C440.324 308.018 444.213 308.836 444.411 310.669C444.61 312.502 441.141 317.839 439.098 319.066C437.054 320.292 436.026 316.812 436.026 316.812L440.324 308.018Z" fill="#B5B5B5" stroke="#263238" stroke-linecap="round" stroke-linejoin="round"/>
<path d="M444.411 310.716C444.411 310.716 447.692 312.561 447.692 314.406C447.692 316.251 444.411 319.521 442.577 320.537C440.744 321.553 439.074 319.112 439.074 319.112L444.411 310.716Z" fill="#B5B5B5" stroke="#263238" stroke-linecap="round" stroke-linejoin="round"/>
<path d="M447.693 314.406C447.693 314.406 449.737 318.902 448.919 319.72C448.102 320.537 443.594 323.41 442.578 323.001C441.562 322.592 442.578 320.537 442.578 320.537C442.578 320.537 446.911 316.251 447.693 314.406Z" fill="#B5B5B5" stroke="#263238" stroke-linecap="round" stroke-linejoin="round"/>
<path d="M244.961 324.04H244.879C243.552 323.922 242.261 323.537 241.086 322.909C239.91 322.281 238.873 321.423 238.036 320.385C237.55 319.736 237.204 318.992 237.021 318.202C236.838 317.412 236.822 316.592 236.973 315.796C237.036 315.193 237.246 314.615 237.587 314.114C237.927 313.612 238.386 313.203 238.923 312.923C239.617 312.689 240.352 312.607 241.08 312.684C241.807 312.761 242.51 312.993 243.139 313.367C243.389 313.506 243.572 313.739 243.65 314.013C243.728 314.288 243.693 314.583 243.554 314.832C243.414 315.081 243.182 315.265 242.907 315.343C242.632 315.421 242.338 315.386 242.088 315.247C241.41 314.844 240.604 314.715 239.834 314.885C239.609 315.026 239.42 315.218 239.282 315.445C239.144 315.672 239.061 315.928 239.04 316.193C238.94 316.7 238.949 317.222 239.066 317.725C239.183 318.228 239.405 318.701 239.718 319.112C241.074 320.709 243.003 321.711 245.089 321.903C245.374 321.92 245.641 322.05 245.83 322.263C246.02 322.477 246.117 322.757 246.1 323.042C246.083 323.327 245.953 323.593 245.74 323.783C245.526 323.972 245.246 324.069 244.961 324.052V324.04Z" fill="white" stroke="#263238" stroke-linecap="round" stroke-linejoin="round"/>
<path d="M249.55 326.213C247.942 326.212 246.391 325.615 245.197 324.536C244.004 323.457 243.254 321.974 243.092 320.373L242.193 311.521H256.872L255.996 320.362C255.835 321.961 255.087 323.444 253.896 324.525C252.706 325.605 251.158 326.206 249.55 326.213Z" fill="white" stroke="#263238" stroke-linecap="round" stroke-linejoin="round"/>
<path d="M265.608 326.096H234.416L237.02 328.256H263.015L265.608 326.096Z" fill="white" stroke="#263238" stroke-linecap="round" stroke-linejoin="round"/>
<path d="M245.696 309.595C245.696 309.595 246.467 306.091 248.476 304.515C250.484 302.938 253.147 302.039 253.147 300.042" stroke="#263238" stroke-linecap="round" stroke-linejoin="round"/>
<path d="M251.244 309.595C251.244 309.595 250.625 307.598 253.58 306.208" stroke="#263238" stroke-linecap="round" stroke-linejoin="round"/>
<path d="M467.685 282.326H401.541V328.408H467.685V282.326Z" fill="white" stroke="#263238" stroke-linecap="round" stroke-linejoin="round"/>
<path d="M464.323 288.503H404.881V328.407H464.323V288.503Z" fill="white" stroke="#263238" stroke-linecap="round" stroke-linejoin="round"/>
<path d="M444.271 308.449H424.943V328.396H444.271V308.449Z" fill="white" stroke="#263238" stroke-linecap="round" stroke-linejoin="round"/>
<path d="M404.88 288.503L401.541 282.326H467.674L464.322 288.503H404.88Z" fill="white" stroke="#263238" stroke-linecap="round" stroke-linejoin="round"/>
<path d="M539.506 328.431H47.8921V545.223H539.506V328.431Z" fill="white" stroke="#263238" stroke-linecap="round" stroke-linejoin="round"/>
<path d="M539.506 328.431H47.8921V345.679H539.506V328.431Z" fill="#263238" stroke="#263238" stroke-linecap="round" stroke-linejoin="round"/>
<path d="M539.506 328.431H47.8921V339.455H539.506V328.431Z" fill="white" stroke="#263238" stroke-linecap="round" stroke-linejoin="round"/>
<path d="M14.8197 432.694C16.8867 433.593 21.9667 433.477 21.9667 433.477C21.9667 433.477 20.8806 430.16 20.7989 429.973C19.6894 427.637 16.1276 423.795 13.3015 424.134C12.8279 424.212 12.3759 424.388 11.9749 424.652C11.574 424.916 11.233 425.261 10.9742 425.665C10.7154 426.07 10.5445 426.524 10.4726 426.998C10.4008 427.473 10.4296 427.957 10.5571 428.42C11.0243 430.44 13.0563 431.912 14.8197 432.694Z" fill="#263238"/>
<path d="M16.5835 447.386C18.7322 447.701 23.2633 446.393 23.5903 446.288C24.3391 448.877 25.2599 451.412 26.3464 453.879C26.9653 455.327 27.6426 456.763 28.3317 458.188C27.9112 457.581 27.5375 457.02 27.4791 457.02C25.7975 455.07 21.3832 452.29 18.7205 453.423C18.2841 453.623 17.8945 453.912 17.5772 454.272C17.2598 454.633 17.0218 455.056 16.8787 455.514C16.7355 455.972 16.6903 456.455 16.7461 456.932C16.8019 457.409 16.9573 457.868 17.2024 458.281C18.1834 460.068 20.5423 460.956 22.4459 461.236C24.3494 461.516 28.2849 460.477 29.2893 460.185C29.5695 460.722 29.8265 461.271 30.1067 461.82C31.4147 464.436 32.7343 467.028 33.9488 469.621C34.3809 470.532 34.7663 471.443 35.1166 472.365L34.3809 471.314C32.6876 469.364 28.2733 466.584 25.6223 467.705C25.1842 467.905 24.7931 468.195 24.4747 468.556C24.1562 468.917 23.9176 469.341 23.7743 469.801C23.631 470.261 23.5863 470.745 23.6431 471.223C23.7 471.701 23.8571 472.162 24.1042 472.575C25.0851 474.362 27.4324 475.238 29.3476 475.518C31.2629 475.798 34.7897 474.864 36.0042 474.526C36.3779 475.471 36.7516 476.417 37.0786 477.352C37.2771 477.994 37.5223 478.601 37.6858 479.255C37.8493 479.909 38.0479 480.551 38.223 481.182C38.515 482.42 38.8303 483.693 39.0872 484.907C39.2741 485.748 39.4376 486.554 39.601 487.36C39.1923 486.449 38.3398 484.674 38.2464 484.534C36.88 482.35 32.9328 478.94 30.1301 479.652C29.6682 479.784 29.2393 480.012 28.8712 480.32C28.5031 480.629 28.2041 481.012 27.9937 481.444C27.7833 481.875 27.6662 482.347 27.65 482.827C27.6337 483.307 27.7188 483.785 27.8996 484.23C28.6002 486.145 30.7957 487.371 32.6409 487.932C34.486 488.493 39.1573 487.99 39.7178 487.932C39.9864 489.275 40.2433 490.583 40.4536 491.821C40.944 494.554 41.3061 497.006 41.6214 499.073H43.5483C43.2096 496.936 42.7775 494.402 42.2053 491.506C41.9367 490.139 41.633 488.691 41.2944 487.196C42.6464 486.658 43.9645 486.037 45.2416 485.339C46.9899 486.829 48.9351 488.071 51.0223 489.03C50.5084 490.303 49.9946 491.529 49.4807 492.685C48.4414 495.091 47.4371 497.239 46.5612 499.05H48.6166C49.364 497.38 50.1931 495.464 51.069 493.351C51.5945 492.066 52.1317 490.676 52.6806 489.252C53.2177 489.368 57.6671 490.268 59.7458 489.801C61.626 489.368 63.9032 488.306 64.7441 486.449C64.957 486.018 65.0768 485.547 65.0957 485.067C65.1146 484.587 65.0321 484.108 64.8536 483.662C64.6751 483.216 64.4047 482.812 64.0598 482.477C63.715 482.143 63.3035 481.884 62.8522 481.719C60.1195 480.797 55.9271 483.915 54.3972 485.993C54.3038 486.11 53.4747 487.547 52.9608 488.469C53.1827 487.885 53.4046 487.301 53.6148 486.717C54.0586 485.55 54.4556 484.323 54.8877 483.027C55.0863 482.397 55.2731 481.754 55.4716 481.112C55.6702 480.47 55.8103 479.781 55.9855 479.115C56.3592 477.55 56.6511 475.939 56.9197 474.315C57.9707 474.701 61.6961 475.997 63.6346 475.857C65.5732 475.717 67.9672 475.016 69.0767 473.311C69.3521 472.916 69.5413 472.468 69.6318 471.996C69.7223 471.523 69.7121 471.037 69.6019 470.568C69.4917 470.1 69.2839 469.66 68.9922 469.278C68.7005 468.895 68.3313 468.578 67.9088 468.348C65.3396 467.028 60.7268 469.516 58.905 471.291C58.7882 471.407 57.6204 472.856 57.0015 473.626C57.1533 472.645 57.3051 471.676 57.4336 470.683C57.7839 467.811 58.0525 464.903 58.3444 461.995C58.4262 461.107 58.5196 460.22 58.613 459.332C58.9867 459.472 63.3894 461.107 65.5499 460.956C67.4767 460.827 69.8824 460.115 71.0035 458.41C71.279 458.015 71.4682 457.567 71.5587 457.094C71.6492 456.622 71.639 456.135 71.5288 455.667C71.4186 455.199 71.2108 454.759 70.9191 454.376C70.6274 453.994 70.2582 453.677 69.8357 453.446C67.2665 452.115 62.6654 454.614 60.8319 456.389C60.6918 456.518 59.0218 458.62 58.6247 459.169C58.8232 457.219 59.0568 455.268 59.3488 453.33C59.7405 450.751 60.2983 448.199 61.0187 445.692C61.1939 445.762 65.7717 447.491 68.0256 447.339C69.9525 447.199 72.3582 446.498 73.4793 444.781C73.7548 444.387 73.9439 443.939 74.0344 443.466C74.1249 442.993 74.1148 442.507 74.0045 442.039C73.8943 441.57 73.6866 441.13 73.3949 440.748C73.1031 440.365 72.734 440.048 72.3115 439.818C69.7423 438.498 65.1411 440.986 63.3077 442.761C63.1675 442.901 61.3691 445.155 61.0655 445.587C61.0655 445.447 61.1355 445.295 61.1822 445.143C61.976 442.653 62.9881 440.238 64.2069 437.926C64.8608 436.642 65.5615 435.439 66.2739 434.294C67.0914 434.703 70.8634 436.537 72.872 436.63C74.8807 436.723 77.2747 436.268 78.571 434.691C78.89 434.332 79.1295 433.909 79.2735 433.45C79.4175 432.991 79.4629 432.507 79.4066 432.03C79.3504 431.552 79.1938 431.092 78.9471 430.679C78.7005 430.266 78.3693 429.911 77.9754 429.635C75.5697 428.035 70.7233 429.962 68.7029 431.573C68.5862 431.655 67.5351 432.671 66.8461 433.419C67.1731 432.905 67.5001 432.367 67.8271 431.889C68.9949 430.067 70.2561 428.467 71.3305 427.066C71.9612 426.283 72.4983 425.571 73.0939 424.917C74.1099 424.917 78.1973 424.777 79.984 423.936C81.7708 423.095 83.7327 421.6 84.1531 419.592C84.2543 419.132 84.2598 418.656 84.1693 418.194C84.0788 417.732 83.8941 417.293 83.6269 416.905C83.3596 416.518 83.0155 416.189 82.6158 415.94C82.2161 415.691 81.7695 415.527 81.3037 415.458C78.4308 415.154 75.0091 419.089 73.9581 421.448C73.8764 421.659 72.7903 425.01 72.872 425.01H72.9304C72.3816 425.618 71.7626 426.295 71.2021 427.031C70.0343 428.42 68.8665 429.985 67.5585 431.784C66.1906 433.717 64.9313 435.725 63.7865 437.798C62.5008 440.114 61.426 442.541 60.575 445.05V445.132C60.575 444.291 60.575 441.92 60.575 441.733C60.248 439.176 58.0992 434.423 55.2614 433.897C54.7864 433.823 54.301 433.85 53.8369 433.975C53.3729 434.101 52.9405 434.323 52.5681 434.627C52.1957 434.932 51.8915 435.311 51.6755 435.74C51.4594 436.17 51.3363 436.64 51.3142 437.12C51.1507 439.152 52.6222 441.184 54.0586 442.469C55.6818 443.917 60.1779 445.319 60.5399 445.435C59.7303 448.006 59.0944 450.627 58.6364 453.283C58.3678 454.836 58.1342 456.401 57.924 457.954C57.924 457.219 57.924 456.565 57.924 456.471C57.5854 453.914 55.4483 449.161 52.5988 448.635C52.124 448.563 51.6393 448.591 51.176 448.717C50.7127 448.844 50.2812 449.066 49.9091 449.37C49.5371 449.674 49.233 450.052 49.0164 450.481C48.7998 450.909 48.6755 451.379 48.6516 451.858C48.4881 453.89 49.9595 455.922 51.396 457.207C52.8324 458.491 56.6745 459.788 57.6905 460.103C57.6087 460.71 57.527 461.271 57.4569 461.925C57.1182 464.821 56.7796 467.764 56.3708 470.555C56.219 471.548 56.0439 472.529 55.8687 473.498C55.8687 472.856 55.8687 472.33 55.8687 472.225C55.53 469.656 53.3812 464.914 50.5435 464.389C50.0694 464.315 49.5849 464.341 49.1216 464.466C48.6583 464.591 48.2265 464.812 47.8543 465.115C47.4821 465.418 47.1777 465.796 46.9609 466.224C46.7442 466.652 46.6199 467.121 46.5962 467.6C46.4328 469.632 47.9042 471.676 49.3406 472.961C50.777 474.245 54.2454 475.401 55.4483 475.798C55.2381 476.791 55.0279 477.795 54.7826 478.753C54.5958 479.395 54.4556 480.038 54.2337 480.68C54.0119 481.322 53.825 481.953 53.6265 482.572C53.1944 483.74 52.7506 485.001 52.2952 486.157C51.9915 486.963 51.6762 487.722 51.3726 488.493C51.5244 487.5 51.793 485.55 51.793 485.386C51.7173 483.095 51.0494 480.862 49.8544 478.905C49.8719 478.652 49.8719 478.398 49.8544 478.146C49.7939 477.669 49.6335 477.21 49.3837 476.799C49.1339 476.388 48.8004 476.035 48.4048 475.762C48.0093 475.488 47.5606 475.302 47.088 475.213C46.6154 475.125 46.1295 475.137 45.662 475.25C42.8709 475.985 41.0958 480.89 40.9907 483.424C40.9907 483.576 41.0842 485.234 41.1659 486.285C41.0258 485.678 40.8973 485.118 40.7455 484.464C40.4419 483.226 40.1149 482 39.7645 480.68C39.5777 480.049 39.3908 479.407 39.1923 478.765C38.9938 478.122 38.7369 477.468 38.515 476.814C37.9661 475.308 37.3472 473.801 36.6582 472.295C37.7442 472.038 41.563 471.057 43.1045 469.878C44.646 468.698 46.2576 466.783 46.2459 464.751C46.2572 464.271 46.1676 463.793 45.9828 463.35C45.7981 462.907 45.5224 462.507 45.1735 462.177C44.8245 461.846 44.4102 461.593 43.9573 461.433C43.5043 461.273 43.0228 461.21 42.5439 461.247C39.6711 461.551 37.172 466.141 36.7049 468.663C36.7049 468.827 36.4947 470.683 36.4246 471.699C36.0159 470.8 35.6071 469.901 35.1634 469.002C33.8788 466.421 32.5007 463.84 31.1344 461.259L29.8965 458.924C30.2819 458.83 34.8597 457.756 36.5764 456.448C38.1062 455.28 39.7295 453.353 39.7178 451.321C39.7309 450.84 39.6426 450.362 39.4585 449.918C39.2744 449.474 38.9987 449.073 38.6494 448.742C38.3 448.412 37.885 448.159 37.4312 447.999C36.9774 447.84 36.4952 447.778 36.0159 447.818C33.143 448.133 30.6439 452.711 30.1768 455.233C30.1768 455.42 29.8965 458.094 29.8615 458.737C28.9623 456.985 28.0747 455.233 27.2689 453.493C26.1742 451.128 25.2341 448.693 24.4545 446.206C24.6297 446.206 29.406 445.038 31.1694 443.719C32.6993 442.551 34.3225 440.624 34.3109 438.58C34.3258 438.099 34.2387 437.62 34.0553 437.175C33.8718 436.73 33.5961 436.328 33.2464 435.997C32.8967 435.666 32.4808 435.413 32.0262 435.255C31.5716 435.096 31.0886 435.035 30.6089 435.077C27.7361 435.38 25.2486 439.958 24.7698 442.492C24.7698 442.691 24.4662 445.564 24.4662 446.089C24.4662 445.949 24.3494 445.797 24.3144 445.657C23.5991 443.141 23.1106 440.565 22.8546 437.961C22.6911 436.525 22.6094 435.147 22.5743 433.792C23.4852 433.687 27.6426 433.127 29.3593 432.087C31.076 431.048 32.8628 429.366 33.0496 427.334C33.1154 426.858 33.0802 426.373 32.9461 425.911C32.812 425.45 32.582 425.021 32.2713 424.654C31.9606 424.288 31.576 423.99 31.1427 423.782C30.7094 423.574 30.237 423.459 29.7564 423.445C26.8602 423.445 23.9173 427.72 23.0882 430.172C23.0882 430.3 22.7495 431.713 22.5627 432.741C22.5627 432.134 22.5627 431.503 22.5627 430.919C22.5627 428.736 22.7028 426.739 22.8429 424.964C22.9247 423.959 23.0298 423.048 23.1232 422.196C23.964 421.624 27.304 419.265 28.3317 417.525C29.3593 415.785 30.1651 413.507 29.406 411.604C29.2447 411.156 28.9917 410.747 28.6633 410.402C28.3348 410.058 27.9381 409.786 27.4984 409.603C27.0588 409.421 26.5859 409.332 26.1101 409.343C25.6342 409.353 25.1658 409.463 24.7348 409.665C22.1656 410.996 21.4883 416.17 21.9204 418.716C21.9204 418.938 22.9247 422.313 22.9714 422.278C22.8546 423.095 22.7495 423.971 22.6444 424.928C22.4692 426.704 22.2824 428.712 22.2357 430.908C22.1537 433.272 22.2082 435.639 22.3992 437.996C22.613 440.638 23.0545 443.255 23.7188 445.821C23.7239 445.848 23.7239 445.875 23.7188 445.902C23.2633 445.19 21.932 443.24 21.8036 443.1C20.1219 441.149 15.7076 438.37 13.045 439.491C12.6081 439.692 12.2184 439.983 11.901 440.344C11.5836 440.705 11.3456 441.129 11.2025 441.588C11.0593 442.047 11.0143 442.531 11.0701 443.009C11.126 443.487 11.2816 443.947 11.5268 444.361C12.3209 446.229 14.6682 447.105 16.5835 447.386Z" fill="#263238"/>
<path d="M66.2036 433.803C66.2036 433.803 67.1261 430.428 67.1612 430.206C67.5115 427.661 66.694 422.511 64.0898 421.249C63.6516 421.048 63.1756 420.942 62.6933 420.938C62.211 420.934 61.7333 421.032 61.2919 421.226C60.8504 421.421 60.4551 421.706 60.1322 422.064C59.8093 422.423 59.5661 422.845 59.4186 423.305C58.7179 425.232 59.6054 427.579 60.5864 429.144C61.8593 431.094 66.2036 433.803 66.2036 433.803Z" fill="#263238"/>
<path d="M60.5283 495.417H29.3711L32.4892 545.225H57.4103L60.5283 495.417Z" fill="#263238"/>
<path d="M327.712 406.441H321.44V545.224H327.712V406.441Z" fill="white" stroke="#263238" stroke-linecap="round" stroke-linejoin="round"/>
<path d="M344.762 459.308H305.43V462.029H344.762V459.308Z" fill="white" stroke="#263238" stroke-linecap="round" stroke-linejoin="round"/>
<path d="M347.809 505.179H302.381V507.9H347.809V505.179Z" fill="white" stroke="#263238" stroke-linecap="round" stroke-linejoin="round"/>
<path d="M301.284 545.224H294.581L306.236 404.888H312.927L301.284 545.224Z" fill="white" stroke="#263238" stroke-linecap="round" stroke-linejoin="round"/>
<path d="M348.919 545.224H355.611L343.968 404.888H337.265L348.919 545.224Z" fill="white" stroke="#263238" stroke-linecap="round" stroke-linejoin="round"/>
<path d="M347.377 396.34H301.763V408.392H347.377V396.34Z" fill="white" stroke="#263238" stroke-linecap="round" stroke-linejoin="round"/>
<path d="M347.377 396.34H301.763V402.12H347.377V396.34Z" fill="#263238" stroke="#263238" stroke-linecap="round" stroke-linejoin="round"/>
<path d="M350.94 394.004H298.213V399.061H350.94V394.004Z" fill="white" stroke="#263238" stroke-linecap="round" stroke-linejoin="round"/>
<path d="M195.457 37.1555H71.2598V203.802H195.457V37.1555Z" fill="#263238" stroke="#263238" stroke-linecap="round" stroke-linejoin="round"/>
<path d="M85.4019 79.606H129.171" stroke="white" stroke-linecap="round" stroke-linejoin="round"/>
<path d="M85.4019 98.4663H129.171" stroke="white" stroke-linecap="round" stroke-linejoin="round"/>
<path d="M85.4019 117.338H129.171" stroke="white" stroke-linecap="round" stroke-linejoin="round"/>
<path d="M85.4019 136.21H129.171" stroke="white" stroke-linecap="round" stroke-linejoin="round"/>
<path d="M85.4019 155.07H129.171" stroke="white" stroke-linecap="round" stroke-linejoin="round"/>
<path d="M85.4019 173.942H129.171" stroke="white" stroke-linecap="round" stroke-linejoin="round"/>
<path d="M138.327 79.606H182.097" stroke="white" stroke-linecap="round" stroke-linejoin="round"/>
<path d="M138.327 98.4663H182.097" stroke="white" stroke-linecap="round" stroke-linejoin="round"/>
<path d="M138.327 117.338H182.097" stroke="white" stroke-linecap="round" stroke-linejoin="round"/>
<path d="M138.327 136.21H182.097" stroke="white" stroke-linecap="round" stroke-linejoin="round"/>
<path d="M138.327 155.07H182.097" stroke="white" stroke-linecap="round" stroke-linejoin="round"/>
<path d="M138.327 173.942H182.097" stroke="white" stroke-linecap="round" stroke-linejoin="round"/>
<path d="M112.39 67.8453C111.333 67.8974 110.284 67.6461 109.365 67.1213C108.627 66.6527 108.074 65.9429 107.801 65.1127C107.481 64.149 107.327 63.1382 107.345 62.1231V55.922C107.322 54.8798 107.476 53.8412 107.801 52.8506C108.08 52.0126 108.652 51.3035 109.412 50.8537C110.335 50.3424 111.383 50.0996 112.437 50.153C113.443 50.1049 114.445 50.3182 115.345 50.7719C116.032 51.1581 116.561 51.7742 116.839 52.512C117.144 53.3536 117.291 54.2445 117.271 55.1395V56.576H113.873V54.9644C113.877 54.574 113.853 54.1838 113.803 53.7966C113.782 53.4818 113.659 53.1825 113.453 52.9441C113.321 52.8211 113.164 52.7282 112.992 52.6718C112.821 52.6154 112.639 52.5967 112.46 52.6171C112.277 52.6008 112.092 52.6225 111.917 52.6807C111.742 52.739 111.581 52.8326 111.444 52.9557C111.224 53.205 111.081 53.5137 111.035 53.8433C110.978 54.2299 110.951 54.6203 110.954 55.0111V62.8471C110.947 63.2705 110.986 63.6934 111.07 64.1083C111.123 64.4261 111.279 64.7176 111.514 64.9375C111.782 65.1496 112.119 65.2538 112.46 65.2294C112.636 65.2521 112.814 65.2344 112.982 65.1777C113.15 65.1211 113.303 65.0269 113.429 64.9025C113.639 64.6514 113.766 64.3412 113.791 64.0149C113.849 63.6284 113.876 63.2379 113.873 62.8471V61.2472H117.271V62.6719C117.287 63.5809 117.144 64.4857 116.851 65.3462C116.579 66.1045 116.061 66.7499 115.38 67.1797C114.467 67.6832 113.43 67.9142 112.39 67.8453Z" fill="white"/>
<path d="M123.087 67.8219C122.305 67.8419 121.529 67.6779 120.822 67.3431C120.217 67.0385 119.723 66.5526 119.409 65.9534C119.071 65.2429 118.907 64.4625 118.93 63.6762V59.2735C118.907 58.4873 119.071 57.7069 119.409 56.9963C119.723 56.3971 120.217 55.9112 120.822 55.6066C121.533 55.2908 122.303 55.1277 123.081 55.1277C123.86 55.1277 124.63 55.2908 125.341 55.6066C125.94 55.8952 126.437 56.3596 126.766 56.9379C127.113 57.6455 127.281 58.4274 127.256 59.2152V63.6528C127.281 64.4406 127.113 65.2225 126.766 65.9301C126.447 66.5301 125.949 67.0158 125.341 67.3198C124.64 67.6616 123.867 67.8336 123.087 67.8219ZM123.087 65.6498C123.198 65.6582 123.31 65.6428 123.415 65.6045C123.52 65.5662 123.615 65.506 123.694 65.4279C123.852 65.2569 123.95 65.04 123.975 64.809C124.025 64.5119 124.048 64.211 124.045 63.9098V59.0283C124.048 58.7232 124.025 58.4184 123.975 58.1174C123.945 57.8879 123.847 57.6724 123.694 57.4985C123.616 57.4183 123.521 57.3559 123.416 57.3156C123.311 57.2753 123.199 57.258 123.087 57.2649C122.973 57.2571 122.859 57.2739 122.752 57.3142C122.645 57.3545 122.549 57.4173 122.468 57.4985C122.343 57.6772 122.27 57.8876 122.258 58.1057C122.208 58.4067 122.184 58.7115 122.188 59.0166V63.9448C122.185 64.246 122.208 64.5469 122.258 64.844C122.287 65.0762 122.389 65.293 122.55 65.463C122.705 65.5961 122.906 65.6632 123.111 65.6498H123.087Z" fill="white"/>
<path d="M129.709 67.6122V57.499H128.471V55.3035H129.709V54.451C129.696 53.8055 129.77 53.1612 129.93 52.5358C130.061 52.0205 130.383 51.574 130.83 51.2862C131.469 50.9389 132.194 50.781 132.92 50.8308H133.714C133.971 50.8308 134.251 50.8308 134.555 50.9125V53.2481C134.433 53.2117 134.308 53.1844 134.181 53.1664C134.053 53.1548 133.924 53.1548 133.796 53.1664C133.672 53.1567 133.547 53.1759 133.432 53.2225C133.316 53.2691 133.213 53.3418 133.13 53.435C132.969 53.6843 132.895 53.98 132.92 54.2758V55.2568H134.555V57.4523H132.92V67.5655L129.709 67.6122ZM135.735 67.6122V57.499H134.497V55.3035H135.735V54.451C135.721 53.8055 135.796 53.1612 135.956 52.5358C136.087 52.0205 136.409 51.574 136.856 51.2862C137.495 50.9389 138.22 50.781 138.946 50.8308H139.74C139.997 50.8308 140.277 50.8308 140.581 50.9125V53.2481C140.459 53.2117 140.334 53.1844 140.207 53.1664C140.079 53.1548 139.95 53.1548 139.822 53.1664C139.698 53.1567 139.573 53.1759 139.457 53.2225C139.342 53.2691 139.239 53.3418 139.156 53.435C138.995 53.6843 138.921 53.98 138.946 54.2758V55.2568H140.581V57.4523H138.946V67.5655L135.735 67.6122Z" fill="white"/>
<path d="M145.801 67.8228C145.012 67.8507 144.228 67.6779 143.524 67.3207C142.906 66.9968 142.41 66.4803 142.111 65.8492C141.783 65.1153 141.623 64.3173 141.644 63.5136V59.3912C141.623 58.5876 141.783 57.7895 142.111 57.0556C142.413 56.4328 142.909 55.9247 143.524 55.6075C144.221 55.2542 144.996 55.0815 145.778 55.1054C146.589 55.0572 147.398 55.2351 148.114 55.6192C148.698 55.9535 149.151 56.4765 149.398 57.1023C149.691 57.8454 149.834 58.6393 149.819 59.4379V61.6101H144.879V63.9457C144.869 64.2421 144.909 64.538 144.995 64.8216C145.052 65.0115 145.166 65.1789 145.322 65.3004C145.487 65.3893 145.672 65.4336 145.86 65.4288C146.039 65.4322 146.217 65.3879 146.374 65.3004C146.534 65.196 146.654 65.0392 146.712 64.8566C146.791 64.6036 146.827 64.3391 146.817 64.0742V62.9064H149.795V63.9457C149.832 64.4651 149.76 64.9864 149.585 65.4768C149.411 65.9672 149.136 66.416 148.779 66.7952C148.375 67.1539 147.904 67.4293 147.393 67.6056C146.882 67.7819 146.341 67.8558 145.801 67.8228ZM144.844 60.0919H146.782V58.9241C146.791 58.6362 146.756 58.3487 146.677 58.0716C146.625 57.8765 146.505 57.7066 146.338 57.5928C146.165 57.5039 145.973 57.4598 145.778 57.4643C145.593 57.4572 145.41 57.506 145.252 57.6045C145.101 57.7451 144.995 57.9283 144.949 58.13C144.868 58.4742 144.833 58.8276 144.844 59.181V60.0919Z" fill="white"/>
<path d="M155.6 67.822C154.791 67.8599 153.986 67.6868 153.264 67.3198C152.658 66.9913 152.174 66.475 151.886 65.8484C151.552 65.1162 151.392 64.3169 151.419 63.5127V59.3904C151.392 58.5862 151.552 57.7869 151.886 57.0547C152.187 56.4351 152.678 55.9278 153.287 55.6066C153.988 55.2514 154.767 55.0786 155.553 55.1045C156.344 55.0671 157.131 55.2447 157.83 55.6183C158.408 55.9596 158.859 56.4804 159.115 57.1014C159.404 57.8454 159.543 58.6392 159.523 59.4371V61.6092H154.595V63.9448C154.586 64.2412 154.625 64.5371 154.712 64.8207C154.764 65.0128 154.879 65.1817 155.039 65.2995C155.2 65.3885 155.381 65.4328 155.565 65.428C155.748 65.4296 155.928 65.3855 156.09 65.2995C156.247 65.1939 156.363 65.037 156.417 64.8557C156.496 64.6028 156.532 64.3382 156.522 64.0733V62.9055H159.512V63.9448C159.546 64.465 159.472 64.9866 159.296 65.4769C159.119 65.9672 158.842 66.4157 158.484 66.7943C157.693 67.4998 156.658 67.8686 155.6 67.822ZM154.642 60.0911H156.569V58.9232C156.578 58.6354 156.542 58.3479 156.464 58.0707C156.417 57.8765 156.301 57.7062 156.137 57.5919C155.964 57.5031 155.771 57.4589 155.576 57.4635C155.391 57.4548 155.207 57.5038 155.051 57.6036C154.895 57.7412 154.789 57.9257 154.747 58.1291C154.666 58.4734 154.631 58.8267 154.642 59.1802V60.0911Z" fill="white"/>
<path d="M161.135 406.441H154.864V545.224H161.135V406.441Z" fill="white" stroke="#263238" stroke-linecap="round" stroke-linejoin="round"/>
<path d="M178.196 459.308H138.864V462.029H178.196V459.308Z" fill="white" stroke="#263238" stroke-linecap="round" stroke-linejoin="round"/>
<path d="M181.245 505.18H135.817V507.901H181.245V505.18Z" fill="white" stroke="#263238" stroke-linecap="round" stroke-linejoin="round"/>
<path d="M134.708 545.224H128.016L139.671 404.888H146.362L134.708 545.224Z" fill="white" stroke="#263238" stroke-linecap="round" stroke-linejoin="round"/>
<path d="M182.354 545.224H189.046L177.391 404.888H170.699L182.354 545.224Z" fill="white" stroke="#263238" stroke-linecap="round" stroke-linejoin="round"/>
<path d="M180.813 396.34H135.198V408.392H180.813V396.34Z" fill="white" stroke="#263238" stroke-linecap="round" stroke-linejoin="round"/>
<path d="M180.813 396.34H135.198V402.12H180.813V396.34Z" fill="#263238" stroke="#263238" stroke-linecap="round" stroke-linejoin="round"/>
<path d="M184.374 394.004H131.647V399.061H184.374V394.004Z" fill="white" stroke="#263238" stroke-linecap="round" stroke-linejoin="round"/>
<path d="M210.428 511.218C210.428 511.218 200.899 519.252 201.786 520.443C202.674 521.634 211.911 534.457 215.193 537.715C218.474 540.973 228.039 545.75 229.779 543.963C231.519 542.176 224.722 528.478 223.531 525.5C222.575 522.32 222.27 518.98 222.632 515.679C222.935 514.721 210.428 511.218 210.428 511.218Z" fill="#263238" stroke="#263238" stroke-linecap="round" stroke-linejoin="round"/>
<path d="M215.193 532.623C211.853 528.618 206.504 520.782 204.029 517.08C202.546 518.621 201.459 519.988 201.786 520.42C202.686 521.588 211.911 534.434 215.193 537.692C218.475 540.95 228.039 545.726 229.779 543.94C229.918 543.732 230.014 543.5 230.062 543.255C230.11 543.011 230.109 542.759 230.059 542.515C225.972 540.611 218.521 536.617 215.193 532.623Z" fill="white" stroke="#263238" stroke-linecap="round" stroke-linejoin="round"/>
<path d="M177.975 512.081C177.975 512.081 168.446 520.116 169.333 521.307C170.221 522.498 179.458 535.321 182.74 538.579C186.021 541.837 195.586 546.625 197.326 544.838C199.066 543.052 192.257 529.353 191.066 526.375C190.107 523.192 189.805 519.846 190.179 516.542C190.471 515.655 177.975 512.081 177.975 512.081Z" fill="#263238" stroke="#263238" stroke-linecap="round" stroke-linejoin="round"/>
<path d="M182.739 533.522C179.388 529.505 174.051 521.669 171.575 517.979C170.08 519.52 169.006 520.875 169.333 521.307C170.232 522.475 179.458 535.321 182.739 538.579C186.021 541.837 195.585 546.625 197.325 544.838C197.465 544.629 197.561 544.394 197.607 544.148C197.653 543.901 197.649 543.647 197.594 543.402C193.495 541.498 186.056 537.516 182.739 533.522Z" fill="white" stroke="#263238" stroke-linecap="round" stroke-linejoin="round"/>
<path d="M181.689 348.892C181.689 348.892 209.062 371.232 209.378 373.755C209.514 375.858 209.408 377.97 209.062 380.049C209.062 380.049 235.817 431.34 236.763 438.265C237.709 445.19 244.003 519.463 244.003 519.463L235.829 519.147L237.405 525.757C237.405 525.757 223.87 531.421 209.378 527.018C194.885 522.616 173.176 512.222 173.176 512.222L187.656 459.028C187.656 459.028 174.81 458.398 173.806 455.256C172.802 452.115 136.039 382.852 136.039 382.852C136.039 382.852 147.367 345.715 150.205 344.77C153.042 343.824 181.689 348.892 181.689 348.892Z" fill="#B5B5B5" stroke="#263238" stroke-linecap="round" stroke-linejoin="round"/>
<path d="M197.63 416.555C200.736 416.858 202.138 416.858 202.138 416.858" stroke="#263238" stroke-linecap="round" stroke-linejoin="round"/>
<path d="M151.781 397.344C151.781 397.344 170.98 412.444 183.884 414.651C188.076 415.364 191.475 415.819 194.149 416.181" stroke="#263238" stroke-linecap="round" stroke-linejoin="round"/>
<path d="M194.278 393.268C194.278 393.268 222.305 440.471 222.597 441.417C222.889 442.363 235.817 516.636 235.817 516.636" stroke="#263238" stroke-linecap="round" stroke-linejoin="round"/>
<path d="M196.473 396.082L200.256 388.526" stroke="#263238" stroke-linecap="round" stroke-linejoin="round"/>
<path d="M198.283 447.315C200.326 448.089 202.478 448.538 204.659 448.646" stroke="#263238" stroke-linecap="round" stroke-linejoin="round"/>
<path d="M159.021 418.12C159.021 418.12 188.613 442.352 194.277 445.493" stroke="#263238" stroke-linecap="round" stroke-linejoin="round"/>
<path d="M187.667 459.028L198.68 469.725" stroke="#263238" stroke-linecap="round" stroke-linejoin="round"/>
<path d="M197.244 500.146C194.538 502.644 191.243 504.416 187.667 505.296" stroke="#263238" stroke-linecap="round" stroke-linejoin="round"/>
<path d="M216.302 446.754C216.302 446.754 203.398 489.554 199.953 496.479" stroke="#263238" stroke-linecap="round" stroke-linejoin="round"/>
<path d="M209.845 511.053C209.422 513.041 208.848 514.993 208.128 516.893" stroke="#263238" stroke-linecap="round" stroke-linejoin="round"/>
<path d="M216.617 468.779C216.617 468.779 213.394 494.354 210.334 508.776" stroke="#263238" stroke-linecap="round" stroke-linejoin="round"/>
<path d="M218.439 318.68L212.18 321.892L208.805 324.776L205.757 320.607L215.87 311.3L218.439 318.68Z" fill="white" stroke="#263238" stroke-linecap="round" stroke-linejoin="round"/>
<path d="M220.519 295.732L205.606 318.516L214.75 317.722L229.511 296.538L220.519 295.732Z" fill="#263238" stroke="#263238" stroke-linecap="round" stroke-linejoin="round"/>
<path d="M226.942 307.445C226.942 307.445 220.367 305.845 219.725 307.282C219.082 308.718 220.203 309.372 221.803 310.178C223.403 310.984 225.657 311.614 226.778 309.851C227.899 308.088 226.942 307.445 226.942 307.445Z" fill="white" stroke="#263238" stroke-linecap="round" stroke-linejoin="round"/>
<path d="M223.73 311.521C223.73 311.521 216.349 310.073 215.87 311.358C215.392 312.642 211.374 318.259 212.367 318.902C213.36 319.544 219.374 320.069 220.542 318.738C221.71 317.407 223.73 311.521 223.73 311.521Z" fill="white" stroke="#263238" stroke-linecap="round" stroke-linejoin="round"/>
<path d="M190.996 327.66L205.606 318.516L211.701 326.224L179.773 355.583L178.804 335.204L190.996 327.66Z" fill="#263238" stroke="#263238" stroke-linecap="round" stroke-linejoin="round"/>
<path d="M179.925 302.471C179.925 302.471 182.331 321.086 182.658 328.466C182.985 335.847 183.616 353.177 183.616 353.177L195.177 351.25C195.177 351.25 193.729 329.272 191.323 317.874C189.957 311.21 187.633 304.778 184.421 298.781L179.925 302.471Z" fill="#DBB6FF" stroke="#263238" stroke-linecap="round" stroke-linejoin="round"/>
<path d="M178.641 299.901C181.045 313.325 182.606 326.887 183.312 340.506C184.27 361.679 176.725 387.359 176.725 387.359C176.725 387.359 168.387 391.843 149.609 384.311C138.703 379.979 128.139 374.83 118.008 368.907C118.008 368.907 120.087 324.134 127.35 307.445C134.614 290.757 138.258 283.062 145.638 280.971C153.019 278.881 178.641 299.901 178.641 299.901Z" fill="#263238" stroke="#263238" stroke-linecap="round" stroke-linejoin="round"/>
<path d="M159.395 291.564L163.132 315.025L126.031 310.074C126.031 310.074 112.426 363.326 112.262 369.632C112.099 375.938 120.437 384.545 136.973 389.683C153.509 394.822 159.594 397.858 165.001 393.374C170.408 388.889 177.204 333.523 176.679 327.743C176.153 321.962 175.885 319.404 175.885 319.404L165.293 314.908L161.439 292.72L159.395 291.564Z" fill="white" stroke="#263238" stroke-linecap="round" stroke-linejoin="round"/>
<path d="M149.119 268.137C149.119 268.137 140.617 271.348 140.453 276.16C140.29 280.971 144.471 285.304 145.907 285.946C147.343 286.588 169.497 298.617 171.903 299.259C174.308 299.901 184.422 296.059 184.422 292.848C184.422 289.636 159.547 269.9 156.663 267.494C153.778 265.089 149.119 268.137 149.119 268.137Z" fill="#DBB6FF" stroke="#263238" stroke-linecap="round" stroke-linejoin="round"/>
<path d="M158.461 258.83C158.461 258.83 152.202 256.261 150.438 259.145C148.675 262.03 147.869 266.853 149.154 268.137C150.438 269.422 166.321 295.09 171.938 299.259C177.555 303.429 178.84 304.725 181.572 302.763C184.305 300.801 188.147 297.625 189.91 293.42C191.674 289.216 194.243 288.609 190.237 283.144C186.232 277.678 185.414 277.375 185.414 277.375L158.461 258.83Z" fill="#DBB6FF" stroke="#263238" stroke-linecap="round" stroke-linejoin="round"/>
<path d="M201.752 259.145C201.752 259.145 199.019 265.089 197.898 266.374C196.777 267.658 195.013 267.658 195.013 268.943C195.013 270.228 195.971 275.354 194.85 276.16C193.729 276.966 188.754 277.608 188.754 277.608C188.754 277.608 184.258 284.346 182.331 284.989C180.404 285.631 175.593 282.735 172.066 280.656C168.539 278.577 163.401 270.706 160.668 266.374C157.935 262.041 157.783 259.472 158.426 258.83C159.068 258.187 157.783 249.359 171.739 246.953C185.694 244.547 194.371 247.28 196.777 250.165C199.182 253.049 201.752 259.145 201.752 259.145Z" fill="white" stroke="#263238" stroke-linecap="round" stroke-linejoin="round"/>
<path d="M191.032 268.312C190.483 269.246 189.735 269.83 189.362 269.608C188.988 269.386 189.128 268.44 189.677 267.518C190.226 266.595 190.973 265.999 191.347 266.221C191.721 266.443 191.58 267.366 191.032 268.312Z" fill="#263238"/>
<path d="M194.336 265.801C194.336 265.801 191.72 264.096 189.665 265.147" stroke="#263238" stroke-linecap="round" stroke-linejoin="round"/>
<path d="M186.208 277.584C185.379 277.147 184.671 276.512 184.145 275.736C183.62 274.96 183.293 274.067 183.195 273.135" stroke="#263238" stroke-linecap="round" stroke-linejoin="round"/>
<path d="M164.043 226.096C164.043 226.096 156.499 232.834 155.541 242.305C154.584 251.776 157.293 257.23 158.461 258.83C159.629 260.43 162.151 259.787 164.242 258.187C166.332 256.588 170.011 252.734 173.584 252.897C177.158 253.061 179.517 252.897 179.517 252.897C177.845 256.939 175.688 260.762 173.094 264.283C171.711 266.147 170.146 267.868 168.422 269.422C168.422 269.422 177.566 262.041 180.614 259.636C183.662 257.23 185.426 252.091 185.426 252.091V255.595L192.328 258.643L195.831 253.353L194.395 259.764C194.395 259.764 195.831 260.091 197.758 260.733C200.082 261.248 202.446 261.568 204.823 261.691C204.823 261.691 206.914 251.262 206.914 244.687C206.914 238.113 198.062 227.439 188.112 224.169C178.162 220.899 168.212 222.406 164.043 226.096Z" fill="#263238" stroke="#263238" stroke-linecap="round" stroke-linejoin="round"/>
<path d="M164.043 226.096C160.725 223.376 156.735 221.601 152.493 220.957C145.591 220 140.453 226.797 138.853 231.071C137.879 233.348 137.654 235.875 138.211 238.288L150.566 242.142C150.566 242.142 152.645 230.592 156.499 228.502C158.575 227.271 161.02 226.816 163.401 227.217L164.043 226.096Z" fill="#263238" stroke="#263238" stroke-linecap="round" stroke-linejoin="round"/>
<path d="M172.708 256.739C172.708 256.739 171.108 249.043 166.612 249.522C162.116 250 162.921 262.519 164.521 263.535C166.121 264.551 169.193 263.22 169.193 263.22" fill="white"/>
<path d="M172.708 256.739C172.708 256.739 171.108 249.043 166.612 249.522C162.116 250 162.921 262.519 164.521 263.535C166.121 264.551 169.193 263.22 169.193 263.22" stroke="#263238" stroke-linecap="round" stroke-linejoin="round"/>
<path d="M194.044 316.11C194.044 316.11 197.419 310.82 197.898 309.699C198.377 308.578 200.63 295.09 201.752 293.969C202.873 292.848 209.447 290.921 211.853 290.115C214.259 289.309 218.113 288.352 218.276 289.157C218.44 289.963 214.913 291.236 213.138 292.521C211.363 293.805 208.805 298.944 207.521 302.634C206.236 306.324 206.084 310.341 204.321 312.105C202.557 313.868 197.582 320.128 197.582 320.128L194.044 316.11Z" fill="white" stroke="#263238" stroke-linecap="round" stroke-linejoin="round"/>
<path d="M134.194 306.85C134.194 306.85 149.118 355.898 151.372 356.225C153.626 356.552 198.867 322.849 198.867 322.849L194.663 313.705L165.468 324.613C165.468 324.613 160.493 295.733 158.881 293.806C157.27 291.879 146.689 285.304 139.472 292.521" fill="#263238"/>
<path d="M134.194 306.85C134.194 306.85 149.118 355.898 151.372 356.225C153.626 356.552 198.867 322.849 198.867 322.849L194.663 313.705L165.468 324.613C165.468 324.613 160.493 295.733 158.881 293.806C157.27 291.879 146.689 285.304 139.472 292.521" stroke="#263238" stroke-linecap="round" stroke-linejoin="round"/>
<path d="M224.01 55.4319L216.209 44.2793H185.67L177.858 55.4319C173.718 61.3352 171.596 68.4175 171.806 75.6244C172.017 82.8314 174.549 89.7778 179.026 95.4295L182.634 99.9957H219.187L222.807 95.4295C227.291 89.7824 229.83 82.8378 230.047 75.6304C230.264 68.4229 228.146 61.3383 224.01 55.4319Z" fill="white" stroke="#263238" stroke-linecap="round" stroke-linejoin="round"/>
<path d="M177.858 55.4321H192.21" stroke="#263238" stroke-linecap="round" stroke-linejoin="round"/>
<path d="M208.069 59.998H195.982" stroke="#263238" stroke-linecap="round" stroke-linejoin="round"/>
<path d="M229.592 81.1465H201.272" stroke="#263238" stroke-linecap="round" stroke-linejoin="round"/>
<path d="M177.858 80.7732H188.812" stroke="#263238" stroke-linecap="round" stroke-linejoin="round"/>
<path d="M215.625 75.1096H206.936" stroke="#263238" stroke-linecap="round" stroke-linejoin="round"/>
<path d="M189.185 89.0762H196.741" stroke="#263238" stroke-linecap="round" stroke-linejoin="round"/>
<path d="M217.89 47.9106H211.467" stroke="#263238" stroke-linecap="round" stroke-linejoin="round"/>
<path d="M200.934 44.2324V1" stroke="#263238" stroke-linecap="round" stroke-linejoin="round"/>
<path d="M316.769 55.4319L308.968 44.2793H278.43L270.571 55.4319C266.431 61.3352 264.309 68.4175 264.519 75.6244C264.73 82.8314 267.262 89.7778 271.739 95.4295L275.347 99.9957H311.876L315.496 95.4295C319.989 89.7893 322.54 82.849 322.769 75.6419C322.998 68.4348 320.894 61.3464 316.769 55.4319Z" fill="white" stroke="#263238" stroke-linecap="round" stroke-linejoin="round"/>
<path d="M270.617 55.4321H284.97" stroke="#263238" stroke-linecap="round" stroke-linejoin="round"/>
<path d="M300.829 59.998H288.742" stroke="#263238" stroke-linecap="round" stroke-linejoin="round"/>
<path d="M322.352 81.1465H294.032" stroke="#263238" stroke-linecap="round" stroke-linejoin="round"/>
<path d="M270.617 80.7732H281.571" stroke="#263238" stroke-linecap="round" stroke-linejoin="round"/>
<path d="M308.384 75.1096H299.696" stroke="#263238" stroke-linecap="round" stroke-linejoin="round"/>
<path d="M281.945 89.0762H289.501" stroke="#263238" stroke-linecap="round" stroke-linejoin="round"/>
<path d="M310.65 47.9106H304.227" stroke="#263238" stroke-linecap="round" stroke-linejoin="round"/>
<path d="M293.693 44.2324V1" stroke="#263238" stroke-linecap="round" stroke-linejoin="round"/>
<path d="M409.54 55.4319L401.74 44.2793H371.19L363.377 55.4319C359.237 61.3352 357.115 68.4175 357.325 75.6244C357.536 82.8314 360.068 89.7778 364.545 95.4295L368.153 99.9957H404.682L408.373 95.4762C412.86 89.8204 415.399 82.865 415.609 75.6481C415.82 68.4312 413.691 61.3397 409.54 55.4319Z" fill="white" stroke="#263238" stroke-linecap="round" stroke-linejoin="round"/>
<path d="M363.377 55.4321H377.729" stroke="#263238" stroke-linecap="round" stroke-linejoin="round"/>
<path d="M393.588 59.998H381.501" stroke="#263238" stroke-linecap="round" stroke-linejoin="round"/>
<path d="M415.111 81.1465H386.792" stroke="#263238" stroke-linecap="round" stroke-linejoin="round"/>
<path d="M363.377 80.7732H374.331" stroke="#263238" stroke-linecap="round" stroke-linejoin="round"/>
<path d="M401.132 75.1096H392.455" stroke="#263238" stroke-linecap="round" stroke-linejoin="round"/>
<path d="M374.704 89.0762H382.26" stroke="#263238" stroke-linecap="round" stroke-linejoin="round"/>
<path d="M403.409 47.9106H396.986" stroke="#263238" stroke-linecap="round" stroke-linejoin="round"/>
<path d="M386.452 44.2324V1" stroke="#263238" stroke-linecap="round" stroke-linejoin="round"/>
<path d="M0 545.224H563.458" stroke="#263238" stroke-miterlimit="10"/>
</svg>
