<svg width="393" height="352" viewBox="0 0 393 352" fill="none" xmlns="http://www.w3.org/2000/svg">
<path d="M338.869 39.6788C332.259 36.0664 329.261 39.075 326.856 36.0664C324.451 33.0578 333.466 25.25 315.404 17.4423C315.404 17.4423 314.207 0.619116 289.566 0.0153147C264.925 -0.588486 271.566 16.8385 264.956 21.0443C258.345 25.25 256.544 18.6811 249.934 22.8452C243.323 27.0094 246.332 35.4626 240.929 36.6598C235.526 37.857 228.301 31.2568 221.69 35.4626C215.08 39.6684 215.08 43.2704 212.082 43.2704C209.083 43.2704 203.066 40.8656 199.464 43.2704C195.862 45.6752 191.646 48.6838 191.646 48.6838H343.637C343.637 48.6838 345.48 43.2808 338.869 39.6788Z" fill="#DBB6FF"/>
<path opacity="0.5" d="M338.869 39.6788C332.259 36.0664 329.261 39.075 326.856 36.0664C324.451 33.0578 333.466 25.25 315.404 17.4423C315.404 17.4423 314.207 0.619116 289.566 0.0153147C264.925 -0.588486 271.566 16.8385 264.956 21.0443C258.345 25.25 256.544 18.6811 249.934 22.8452C243.323 27.0094 246.332 35.4626 240.929 36.6598C235.526 37.857 228.301 31.2568 221.69 35.4626C215.08 39.6684 215.08 43.2704 212.082 43.2704C209.083 43.2704 203.066 40.8656 199.464 43.2704C195.862 45.6752 191.646 48.6838 191.646 48.6838H343.637C343.637 48.6838 345.48 43.2808 338.869 39.6788Z" fill="white"/>
<path d="M166.505 174.732C161.862 172.203 159.749 174.305 158.062 172.203C156.376 170.1 162.705 164.603 150.046 159.117C150.046 159.117 149.203 147.301 131.891 146.874C114.578 146.447 119.232 158.69 114.589 161.646C109.946 164.603 108.686 159.96 104.043 162.917C99.3998 165.873 101.503 171.776 97.7133 172.619C93.924 173.462 88.8437 168.819 84.1799 171.776C79.516 174.732 79.5369 177.262 77.434 177.262C75.3311 177.262 71.094 175.576 68.5643 177.262C66.0346 178.949 63.0781 181.062 63.0781 181.062H169.878C169.878 181.062 171.148 177.262 166.505 174.732Z" fill="white"/>
<path opacity="0.5" d="M166.505 174.732C161.862 172.203 159.749 174.305 158.062 172.203C156.376 170.1 162.705 164.603 150.046 159.117C150.046 159.117 149.203 147.301 131.891 146.874C114.578 146.447 119.232 158.69 114.589 161.646C109.946 164.603 108.686 159.96 104.043 162.917C99.3998 165.873 101.503 171.776 97.7133 172.619C93.924 173.462 88.8437 168.819 84.1799 171.776C79.516 174.732 79.5369 177.262 77.434 177.262C75.3311 177.262 71.094 175.576 68.5643 177.262C66.0346 178.949 63.0781 181.062 63.0781 181.062H169.878C169.878 181.062 171.148 177.262 166.505 174.732Z" fill="white"/>
<path d="M298.498 350.637H364.292C363.032 342.589 357.858 344.005 357.171 331.534C356.827 325.287 362.647 317.48 362.137 309.235C361.72 302.437 355.026 295.472 354.506 287.696C354.037 280.679 359.711 272.892 359.201 265.334C358.67 258.193 351.914 251.332 351.279 243.899C350.696 236.612 356.296 228.794 355.63 221.465C354.964 214.136 348.062 207.4 347.302 200.176C346.542 192.753 351.966 184.758 351.133 177.658C350.258 170.11 343.138 163.594 342.17 156.639C341.129 148.905 346.136 140.639 344.96 133.955C343.512 125.773 335.892 119.849 334.289 113.811C331.301 102.558 331.676 91.7204 328.147 91.0125C324.389 90.263 323.525 100.892 320.672 112.77C319.236 118.735 311.792 124.784 310.564 132.977C309.575 139.608 314.842 147.676 313.978 155.38C313.208 162.282 306.264 168.913 305.587 176.419C304.952 183.477 310.584 191.254 310.033 198.635C309.491 205.808 302.745 212.647 302.298 219.934C301.85 227.222 307.638 234.842 307.243 242.036C306.837 249.406 300.226 256.371 299.883 263.46C299.529 270.966 305.452 278.534 305.161 285.489C304.838 293.203 298.321 300.261 298.082 307.007C297.79 315.189 303.797 322.737 303.61 328.973C303.214 342.506 297.02 339.685 296.801 350.574L298.498 350.637Z" fill="#DBB6FF"/>
<path d="M326.741 112.635V347.597" stroke="black" stroke-miterlimit="10"/>
<path d="M337.016 137.266L326.304 146.52L317.539 134.83" stroke="black" stroke-miterlimit="10"/>
<path d="M337.016 178.168L326.304 187.412L317.539 175.732" stroke="black" stroke-miterlimit="10"/>
<path d="M337.016 216.624L326.304 225.879L317.539 214.188" stroke="black" stroke-miterlimit="10"/>
<path d="M337.016 262.398L326.304 271.643L317.539 259.962" stroke="black" stroke-miterlimit="10"/>
<path d="M337.016 308.652L326.304 317.896L317.539 306.216" stroke="black" stroke-miterlimit="10"/>
<path d="M253.681 350.637H304.474C303.495 344.39 299.508 345.515 298.977 335.895C298.706 331.044 303.193 325.048 302.808 318.677C302.485 313.472 297.322 308.048 296.916 302.02C296.551 296.607 300.965 290.569 300.538 284.76C300.132 279.242 294.896 273.954 294.428 268.218C293.959 262.482 298.3 256.548 297.79 250.895C297.28 245.242 291.94 240.037 291.377 234.467C290.794 228.731 294.979 222.568 294.334 217.072C293.657 211.252 288.161 206.224 287.421 200.863C286.589 194.887 290.482 188.505 289.566 183.352C288.452 177.033 282.57 172.453 281.342 167.799C279.031 159.117 279.322 150.737 276.595 150.195C273.69 149.612 273.024 157.816 270.827 166.998C269.724 171.599 263.967 176.273 263.02 182.613C262.26 187.735 266.32 193.96 265.653 199.905C265.06 205.235 259.709 210.315 259.178 216.145C258.689 221.59 263.04 227.596 262.614 233.291C262.197 238.829 257.002 244.107 256.638 249.729C256.274 255.35 260.802 261.243 260.459 266.791C260.115 272.34 255.045 277.858 254.785 283.333C254.504 289.122 259.074 294.962 258.855 300.334C258.606 306.288 253.577 311.785 253.39 316.99C253.161 323.299 257.804 329.139 257.658 333.938C257.346 344.349 252.568 342.215 252.401 350.595L253.681 350.637Z" fill="#DBB6FF"/>
<path d="M275.491 166.925V348.294" stroke="black" stroke-miterlimit="10"/>
<path d="M283.413 185.934L275.148 193.076L268.381 184.05" stroke="black" stroke-miterlimit="10"/>
<path d="M283.413 217.498L275.148 224.64L268.381 215.625" stroke="black" stroke-miterlimit="10"/>
<path d="M283.413 247.189L275.148 254.33L268.381 245.315" stroke="black" stroke-miterlimit="10"/>
<path d="M283.413 282.521L275.148 289.663L268.381 280.637" stroke="black" stroke-miterlimit="10"/>
<path d="M283.413 318.229L275.148 325.36L268.381 316.345" stroke="black" stroke-miterlimit="10"/>
<path d="M208.407 350.147V139.67H219.515V350.147" fill="#2E353A"/>
<path d="M208.407 350.147V139.67H219.515V350.147" stroke="#2E353A" stroke-linecap="round" stroke-linejoin="round"/>
<path d="M202.858 350.147V139.67H213.966V350.147" fill="#DBB6FF"/>
<path d="M202.858 350.147V139.67H213.966V350.147" stroke="#2E353A" stroke-linecap="round" stroke-linejoin="round"/>
<g style="mix-blend-mode:multiply" opacity="0.3">
<path d="M213.966 139.67H202.858V164.655H213.966V139.67Z" fill="#2E353A"/>
</g>
<path d="M250.256 57.5015H167.952L203.826 145.615H286.141V93.3756C286.141 88.6637 285.213 83.9979 283.409 79.6448C281.606 75.2916 278.962 71.3364 275.63 68.0051C272.298 64.6737 268.342 62.0315 263.988 60.2292C259.634 58.427 254.968 57.5001 250.256 57.5015Z" fill="#DBB6FF" stroke="#2E353A" stroke-linecap="round" stroke-linejoin="round"/>
<g style="mix-blend-mode:multiply" opacity="0.3">
<path d="M197.549 130.186L203.795 145.615H286.141V93.3754C286.141 92.5842 286.141 91.793 286.058 91.0122H197.57L197.549 130.186Z" fill="black"/>
</g>
<path d="M249.653 91.0122H240.991" stroke="#2E353A" stroke-linecap="round" stroke-linejoin="round"/>
<path d="M286.058 91.0122H259.844" stroke="#2E353A" stroke-linecap="round" stroke-linejoin="round"/>
<path d="M167.952 57.5015C177.469 57.5015 186.597 61.2822 193.326 68.0118C200.056 74.7415 203.837 83.8688 203.837 93.386V145.625H132.068V93.3756C132.07 83.8602 135.852 74.7355 142.582 68.0081C149.311 61.2807 158.437 57.5015 167.952 57.5015Z" fill="#2E353A" stroke="#2E353A" stroke-linecap="round" stroke-linejoin="round"/>
<path d="M203.826 139.67H141.989V145.615H203.826V139.67Z" fill="#DBB6FF" stroke="#2E353A" stroke-linecap="round" stroke-linejoin="round"/>
<path d="M203.826 139.67H75.8516V145.615H203.826V139.67Z" fill="#DBB6FF" stroke="#2E353A" stroke-linecap="round" stroke-linejoin="round"/>
<path opacity="0.3" d="M203.826 139.67H141.989V145.615H203.826V139.67Z" fill="black"/>
<path d="M255.607 36.2642H229.925V54.3053H255.607V36.2642Z" fill="#2E353A" stroke="#2E353A" stroke-linecap="round" stroke-linejoin="round"/>
<path d="M232.007 36.2642H226.458V92.4801H232.007V36.2642Z" fill="white" stroke="#2E353A" stroke-linecap="round" stroke-linejoin="round"/>
<path d="M229.227 100.111C232.677 100.111 235.474 97.3146 235.474 93.8649C235.474 90.4152 232.677 87.6187 229.227 87.6187C225.778 87.6187 222.981 90.4152 222.981 93.8649C222.981 97.3146 225.778 100.111 229.227 100.111Z" fill="#2E353A" stroke="#2E353A" stroke-linecap="round" stroke-linejoin="round"/>
<path d="M137.627 71.9302C152.118 79.2903 177.311 91.0853 200.547 97.0192" stroke="white" stroke-linecap="round" stroke-linejoin="round" stroke-dasharray="2 4"/>
<path d="M125.467 65.5278C125.467 65.5278 130.11 68.1512 137.627 71.9719" stroke="#2E353A" stroke-linecap="round" stroke-linejoin="round" stroke-dasharray="2 4"/>
<path d="M120.252 65.1428L130.673 40.387L55.1037 21.9502L120.252 65.1428Z" fill="white" stroke="#2E353A" stroke-width="1.2629" stroke-linecap="round" stroke-linejoin="round"/>
<path d="M125.332 43.3851L120.252 65.1428L55.1037 21.9502L125.332 43.3851Z" fill="#DBB6FF" stroke="#2E353A" stroke-width="1.2629" stroke-linecap="round" stroke-linejoin="round"/>
<path d="M125.332 43.3851L113.475 53.5457L55.1037 21.9502L125.332 43.3851Z" fill="white" stroke="#2E353A" stroke-width="1.2629" stroke-linecap="round" stroke-linejoin="round"/>
<path d="M130.673 40.387L141.229 36.0979L55.1037 21.9502L130.673 40.387Z" fill="white" stroke="#2E353A" stroke-width="1.2629" stroke-linecap="round" stroke-linejoin="round"/>
<path d="M105.573 61.291L108.02 62.7901" stroke="#2E353A" stroke-linecap="round" stroke-linejoin="round"/>
<path d="M92.2271 53.1084L100.42 58.1262" stroke="#2E353A" stroke-linecap="round" stroke-linejoin="round"/>
<path d="M83.0243 112.531V85.6826L159.832 98.0293L83.0243 112.531Z" fill="white" stroke="#2E353A" stroke-width="1.2629" stroke-linecap="round" stroke-linejoin="round"/>
<path d="M86.7824 90.5127L83.0243 112.531L159.832 98.029L86.7824 90.5127Z" fill="#DBB6FF" stroke="#2E353A" stroke-width="1.2629" stroke-linecap="round" stroke-linejoin="round"/>
<path d="M86.7824 90.5127L93.7678 104.473L159.832 98.029L86.7824 90.5127Z" fill="white" stroke="#2E353A" stroke-width="1.2629" stroke-linecap="round" stroke-linejoin="round"/>
<path d="M83.0243 85.6826L74.9667 77.625L159.832 98.0293L83.0243 85.6826Z" fill="white" stroke="#2E353A" stroke-width="1.2629" stroke-linecap="round" stroke-linejoin="round"/>
<path d="M110.529 112.031L117.191 110.678" stroke="#2E353A" stroke-linecap="round" stroke-linejoin="round"/>
<path d="M87.126 116.788L103.876 113.384" stroke="#2E353A" stroke-linecap="round" stroke-linejoin="round"/>
<path d="M73.7695 110.875C73.7695 110.875 13.3894 121.286 1.93795 175.42C-9.51345 229.554 50.8667 232.677 61.277 206.651C71.6874 180.625 25.8818 170.215 15.4714 195.199C5.06106 220.184 36.2922 262.867 78.9747 264.949C114.443 266.677 213.883 225.275 275.731 214.813C275.731 214.813 321.536 202.133 392.327 204.912" stroke="#2E353A" stroke-linecap="round" stroke-linejoin="round" stroke-dasharray="2 4"/>
<path d="M371.849 280.564H389.204" stroke="#2E353A" stroke-linecap="round" stroke-linejoin="round"/>
<path d="M371.849 306.236H389.204" stroke="#2E353A" stroke-linecap="round" stroke-linejoin="round"/>
<path d="M6.44562 305.549H369.767V281.251H6.44562" fill="white"/>
<path d="M6.44562 305.549H369.767V281.251H6.44562" stroke="#2E353A" stroke-linecap="round" stroke-linejoin="round"/>
<path d="M31.7012 350.314V228.076C31.7014 227.776 31.7624 227.479 31.8805 227.203C31.9986 226.928 32.1713 226.679 32.3883 226.472L41.8825 217.53C42.3101 217.13 42.8783 216.916 43.4634 216.933C44.0484 216.951 44.6028 217.199 45.0056 217.623L53.3339 226.483C53.7118 226.895 53.9232 227.433 53.9273 227.992V350.314" fill="#2E353A"/>
<path d="M31.7012 350.314V228.076C31.7014 227.776 31.7624 227.479 31.8805 227.203C31.9986 226.928 32.1713 226.679 32.3883 226.472L41.8825 217.53C42.3101 217.13 42.8783 216.916 43.4634 216.933C44.0484 216.951 44.6028 217.199 45.0056 217.623L53.3339 226.483C53.7118 226.895 53.9232 227.433 53.9273 227.992V350.314" stroke="#2E353A" stroke-linecap="round" stroke-linejoin="round"/>
<path d="M29.0049 351.355V228.075C29.0046 227.775 29.0664 227.477 29.1864 227.201C29.3064 226.925 29.4821 226.677 29.7024 226.472L39.1966 217.53C39.4077 217.33 39.656 217.175 39.9273 217.072C40.1986 216.969 40.4875 216.92 40.7776 216.929C41.0677 216.937 41.3532 217.003 41.6179 217.122C41.8825 217.242 42.121 217.412 42.3197 217.623L50.648 226.483C51.0303 226.892 51.2424 227.432 51.2414 227.992V351.355" fill="white"/>
<path d="M29.0049 351.355V228.075C29.0046 227.775 29.0664 227.477 29.1864 227.201C29.3064 226.925 29.4821 226.677 29.7024 226.472L39.1966 217.53C39.4077 217.33 39.656 217.175 39.9273 217.072C40.1986 216.969 40.4875 216.92 40.7776 216.929C41.0677 216.937 41.3532 217.003 41.6179 217.122C41.8825 217.242 42.121 217.412 42.3197 217.623L50.648 226.483C51.0303 226.892 51.2424 227.432 51.2414 227.992V351.355" stroke="#2E353A" stroke-linecap="round" stroke-linejoin="round"/>
<path d="M111.757 350.314V228.075C111.757 227.776 111.818 227.479 111.936 227.203C112.054 226.928 112.227 226.679 112.444 226.472L121.949 217.53C122.16 217.33 122.408 217.175 122.679 217.072C122.951 216.969 123.24 216.92 123.53 216.929C123.82 216.937 124.105 217.003 124.37 217.122C124.634 217.242 124.873 217.412 125.072 217.623L133.4 226.483C133.782 226.892 133.994 227.432 133.993 227.992V350.314" fill="#2E353A"/>
<path d="M111.757 350.314V228.075C111.757 227.776 111.818 227.479 111.936 227.203C112.054 226.928 112.227 226.679 112.444 226.472L121.949 217.53C122.16 217.33 122.408 217.175 122.679 217.072C122.951 216.969 123.24 216.92 123.53 216.929C123.82 216.937 124.105 217.003 124.37 217.122C124.634 217.242 124.873 217.412 125.072 217.623L133.4 226.483C133.782 226.892 133.994 227.432 133.993 227.992V350.314" stroke="#2E353A" stroke-linecap="round" stroke-linejoin="round"/>
<path d="M109.508 351.355V228.076C109.508 227.775 109.57 227.477 109.69 227.201C109.81 226.925 109.985 226.677 110.206 226.472L119.7 217.53C120.128 217.13 120.696 216.916 121.281 216.933C121.866 216.951 122.42 217.199 122.823 217.623L131.151 226.483C131.537 226.891 131.752 227.431 131.755 227.992V351.355" fill="white"/>
<path d="M109.508 351.355V228.076C109.508 227.775 109.57 227.477 109.69 227.201C109.81 226.925 109.985 226.677 110.206 226.472L119.7 217.53C120.128 217.13 120.696 216.916 121.281 216.933C121.866 216.951 122.42 217.199 122.823 217.623L131.151 226.483C131.537 226.891 131.752 227.431 131.755 227.992V351.355" stroke="#2E353A" stroke-linecap="round" stroke-linejoin="round"/>
<path d="M192.26 350.314V228.076C192.26 227.775 192.322 227.477 192.442 227.201C192.562 226.925 192.737 226.677 192.958 226.472L202.452 217.53C202.88 217.13 203.448 216.916 204.033 216.933C204.618 216.951 205.172 217.199 205.575 217.623L213.903 226.483C214.289 226.891 214.504 227.431 214.507 227.992V351.355" fill="#2E353A"/>
<path d="M192.26 350.314V228.076C192.26 227.775 192.322 227.477 192.442 227.201C192.562 226.925 192.737 226.677 192.958 226.472L202.452 217.53C202.88 217.13 203.448 216.916 204.033 216.933C204.618 216.951 205.172 217.199 205.575 217.623L213.903 226.483C214.289 226.891 214.504 227.431 214.507 227.992V351.355" stroke="#2E353A" stroke-linecap="round" stroke-linejoin="round"/>
<path d="M190.022 351.355V228.075C190.022 227.776 190.083 227.479 190.201 227.203C190.319 226.928 190.492 226.679 190.709 226.472L200.214 217.53C200.425 217.33 200.673 217.175 200.944 217.072C201.216 216.969 201.505 216.92 201.795 216.929C202.085 216.937 202.37 217.003 202.635 217.122C202.9 217.242 203.138 217.412 203.337 217.623L211.665 226.483C212.047 226.892 212.26 227.432 212.259 227.992V351.355" fill="white"/>
<path d="M190.022 351.355V228.075C190.022 227.776 190.083 227.479 190.201 227.203C190.319 226.928 190.492 226.679 190.709 226.472L200.214 217.53C200.425 217.33 200.673 217.175 200.944 217.072C201.216 216.969 201.505 216.92 201.795 216.929C202.085 216.937 202.37 217.003 202.635 217.122C202.9 217.242 203.138 217.412 203.337 217.623L211.665 226.483C212.047 226.892 212.26 227.432 212.259 227.992V351.355" stroke="#2E353A" stroke-linecap="round" stroke-linejoin="round"/>
<path d="M272.774 350.314V228.076C272.774 227.776 272.835 227.479 272.953 227.203C273.071 226.928 273.244 226.679 273.461 226.472L282.955 217.53C283.383 217.13 283.951 216.916 284.536 216.933C285.121 216.951 285.676 217.199 286.078 217.623L294.407 226.483C294.785 226.895 294.996 227.433 295 227.992V350.314" fill="#2E353A"/>
<path d="M272.774 350.314V228.076C272.774 227.776 272.835 227.479 272.953 227.203C273.071 226.928 273.244 226.679 273.461 226.472L282.955 217.53C283.383 217.13 283.951 216.916 284.536 216.933C285.121 216.951 285.676 217.199 286.078 217.623L294.407 226.483C294.785 226.895 294.996 227.433 295 227.992V350.314" stroke="#2E353A" stroke-linecap="round" stroke-linejoin="round"/>
<path d="M270.525 351.355V228.075C270.525 227.775 270.587 227.477 270.707 227.201C270.827 226.925 271.003 226.677 271.223 226.472L280.717 217.53C280.928 217.33 281.177 217.175 281.448 217.072C281.719 216.969 282.008 216.92 282.298 216.929C282.588 216.937 282.874 217.003 283.138 217.122C283.403 217.242 283.642 217.412 283.84 217.623L292.169 226.483C292.551 226.892 292.763 227.432 292.762 227.992V351.355" fill="white"/>
<path d="M270.525 351.355V228.075C270.525 227.775 270.587 227.477 270.707 227.201C270.827 226.925 271.003 226.677 271.223 226.472L280.717 217.53C280.928 217.33 281.177 217.175 281.448 217.072C281.719 216.969 282.008 216.92 282.298 216.929C282.588 216.937 282.874 217.003 283.138 217.122C283.403 217.242 283.642 217.412 283.84 217.623L292.169 226.483C292.551 226.892 292.763 227.432 292.762 227.992V351.355" stroke="#2E353A" stroke-linecap="round" stroke-linejoin="round"/>
<path d="M353.277 350.314V228.075C353.278 227.776 353.339 227.479 353.457 227.203C353.575 226.928 353.748 226.679 353.964 226.472L363.469 217.53C363.68 217.33 363.929 217.175 364.2 217.072C364.471 216.969 364.76 216.92 365.05 216.929C365.34 216.937 365.626 217.003 365.89 217.122C366.155 217.242 366.394 217.412 366.592 217.623L374.921 226.483C375.303 226.892 375.515 227.432 375.514 227.992V350.314" fill="#2E353A"/>
<path d="M353.277 350.314V228.075C353.278 227.776 353.339 227.479 353.457 227.203C353.575 226.928 353.748 226.679 353.964 226.472L363.469 217.53C363.68 217.33 363.929 217.175 364.2 217.072C364.471 216.969 364.76 216.92 365.05 216.929C365.34 216.937 365.626 217.003 365.89 217.122C366.155 217.242 366.394 217.412 366.592 217.623L374.921 226.483C375.303 226.892 375.515 227.432 375.514 227.992V350.314" stroke="#2E353A" stroke-linecap="round" stroke-linejoin="round"/>
<path d="M351.029 351.355V228.076C351.028 227.775 351.09 227.477 351.21 227.201C351.33 226.925 351.506 226.677 351.726 226.472L361.221 217.53C361.648 217.13 362.216 216.916 362.801 216.933C363.386 216.951 363.941 217.199 364.344 217.623L372.672 226.483C373.057 226.891 373.273 227.431 373.276 227.992V351.355" fill="white"/>
<path d="M351.029 351.355V228.076C351.028 227.775 351.09 227.477 351.21 227.201C351.33 226.925 351.506 226.677 351.726 226.472L361.221 217.53C361.648 217.13 362.216 216.916 362.801 216.933C363.386 216.951 363.941 217.199 364.344 217.623L372.672 226.483C373.057 226.891 373.273 227.431 373.276 227.992V351.355" stroke="#2E353A" stroke-linecap="round" stroke-linejoin="round"/>
<path d="M42.3093 217.624V226.535" stroke="#2E353A" stroke-linecap="round" stroke-linejoin="round"/>
<path d="M45.8801 222.225V243.316" stroke="#2E353A" stroke-linecap="round" stroke-linejoin="round"/>
<path d="M113.891 223.953V250.634" stroke="#2E353A" stroke-linecap="round" stroke-linejoin="round"/>
<path d="M117.337 220.507V232.125" stroke="#2E353A" stroke-linecap="round" stroke-linejoin="round"/>
<path d="M200.214 217.53V243.754" stroke="#2E353A" stroke-linecap="round" stroke-linejoin="round"/>
<path d="M205.159 219.643V258.39" stroke="#2E353A" stroke-linecap="round" stroke-linejoin="round"/>
<path d="M274.461 223.953V253.216" stroke="#2E353A" stroke-linecap="round" stroke-linejoin="round"/>
<path d="M285.652 220.507V227.825" stroke="#2E353A" stroke-linecap="round" stroke-linejoin="round"/>
<path d="M358.399 220.07V235.571" stroke="#2E353A" stroke-linecap="round" stroke-linejoin="round"/>
<path d="M367.873 221.798V266.562" stroke="#2E353A" stroke-linecap="round" stroke-linejoin="round"/>
<path d="M350.654 287.227H341.181" stroke="#2E353A" stroke-linecap="round" stroke-linejoin="round"/>
<path d="M350.654 294.546H317.508" stroke="#2E353A" stroke-linecap="round" stroke-linejoin="round"/>
<path d="M227.104 294.545H212.04" stroke="#2E353A" stroke-linecap="round" stroke-linejoin="round"/>
<path d="M147.902 294.545H132.838" stroke="#2E353A" stroke-linecap="round" stroke-linejoin="round"/>
<path d="M28.6613 290.673H13.5975" stroke="#2E353A" stroke-linecap="round" stroke-linejoin="round"/>
<path d="M28.6613 297.554H22.6337" stroke="#2E353A" stroke-linecap="round" stroke-linejoin="round"/>
<path d="M219.358 290.673H212.04" stroke="#2E353A" stroke-linecap="round" stroke-linejoin="round"/>
<path d="M139.292 298.845H131.974" stroke="#2E353A" stroke-linecap="round" stroke-linejoin="round"/>
<path d="M108.727 298.845H101.409" stroke="#2E353A" stroke-linecap="round" stroke-linejoin="round"/>
<path d="M379.917 294.545H373.463" stroke="#2E353A" stroke-linecap="round" stroke-linejoin="round"/>
<path d="M388.527 294.545H384.654" stroke="#2E353A" stroke-linecap="round" stroke-linejoin="round"/>
<path d="M50.8666 249.792C50.8666 249.792 48.264 272.163 45.1409 295.056C42.0178 317.948 47.7435 341.372 49.3051 343.454" stroke="#2E353A" stroke-linecap="round" stroke-linejoin="round"/>
<path d="M40.5708 295.076C41.0705 290.61 41.4869 287.789 41.4869 287.789" stroke="#2E353A" stroke-linecap="round" stroke-linejoin="round"/>
<path d="M48.2537 340.851C48.2537 340.851 38.8843 338.769 38.8843 322.112C38.8843 315.273 39.3216 308.266 39.8421 302.333" stroke="#2E353A" stroke-linecap="round" stroke-linejoin="round"/>
<path d="M126.862 223.245C126.862 223.245 128.944 224.807 125.301 242.504C121.657 260.202 122.178 286.228 126.862 300.802" stroke="#2E353A" stroke-linecap="round" stroke-linejoin="round"/>
<path d="M132.067 256.038C132.067 256.038 126.862 271.653 130.506 293.515" stroke="#2E353A" stroke-linecap="round" stroke-linejoin="round"/>
<path d="M191.407 265.917C191.407 265.917 194.009 281.012 196.612 296.617C199.214 312.222 197.132 334.094 195.05 339.81C192.968 345.525 190.886 350.22 190.886 350.22" stroke="#2E353A" stroke-linecap="round" stroke-linejoin="round"/>
<path d="M201.213 342.569C198.892 349.689 196.008 341.372 196.008 341.372" stroke="#2E353A" stroke-linecap="round" stroke-linejoin="round"/>
<path d="M201.119 289.351C201.119 289.351 206.023 314.658 203.254 333.709" stroke="#2E353A" stroke-linecap="round" stroke-linejoin="round"/>
<path d="M190.366 297.679C190.366 297.679 195.571 308.61 190.886 319.02" stroke="#2E353A" stroke-linecap="round" stroke-linejoin="round"/>
<path d="M287.494 299.22C288.191 302.402 289.106 305.532 290.232 308.589" stroke="#2E353A" stroke-linecap="round" stroke-linejoin="round"/>
<path d="M291.794 245.107C288.491 255.592 286.395 266.419 285.548 277.379C285.237 282.924 285.547 288.487 286.474 293.963" stroke="#2E353A" stroke-linecap="round" stroke-linejoin="round"/>
<path d="M281.904 292.974C281.904 292.974 286.589 310.671 289.191 316.917C291.794 323.164 290.753 338.248 287.63 345.536" stroke="#2E353A" stroke-linecap="round" stroke-linejoin="round"/>
<path d="M352.153 252.915C352.153 252.915 362.564 271.653 352.674 302.353" stroke="#2E353A" stroke-linecap="round" stroke-linejoin="round"/>
<path d="M361.72 284.916C361.783 290.767 361.262 298.179 358.92 304.425C354.235 316.918 352.153 321.082 352.153 321.082" stroke="#2E353A" stroke-linecap="round" stroke-linejoin="round"/>
<path d="M361.002 274.776C361.002 274.776 361.345 277.015 361.554 280.46" stroke="#2E353A" stroke-linecap="round" stroke-linejoin="round"/>
</svg>
