<svg width="177" height="180" viewBox="0 0 177 180" fill="none" xmlns="http://www.w3.org/2000/svg">
<path d="M57.7771 3.35455C46.6445 7.92782 37.7802 16.7298 33.1285 27.8298C28.4767 38.9298 28.4174 51.4216 32.9633 62.5654L61.1476 131.36L73.7242 126.191L45.5526 57.3838C42.3638 49.5954 42.3996 40.8591 45.6521 33.0971C48.9045 25.335 55.1073 19.1828 62.8958 15.9941C70.6842 12.8053 79.4204 12.8411 87.1825 16.0936C94.9446 19.3461 101.097 25.5488 104.285 33.3373L116.925 28.1557C112.354 17.0365 103.562 8.18251 92.4756 3.53374C81.3888 -1.11503 68.9113 -1.17946 57.7771 3.35455Z" fill="#DBB6FF"/>
<g opacity="0.3">
<path d="M57.7767 3.35455C46.6441 7.92782 37.7798 16.7298 33.1281 27.8298C28.4763 38.9298 28.417 51.4216 32.9629 62.5654L61.1472 131.36L73.7239 126.191L45.5522 57.3838C42.3634 49.5954 42.3992 40.8591 45.6517 33.0971C48.9041 25.335 55.1069 19.1828 62.8954 15.9941C70.6838 12.8053 79.42 12.8411 87.1821 16.0936C94.9442 19.3461 101.096 25.5488 104.285 33.3373L116.925 28.1557C112.354 17.0365 103.562 8.18251 92.4752 3.53374C81.3884 -1.11503 68.9109 -1.17946 57.7767 3.35455Z" fill="black"/>
</g>
<path d="M140.487 63.1313L40.7801 103.963C37.0456 105.493 35.2579 109.76 36.7873 113.494L60.9996 172.618C62.5289 176.353 66.7962 178.14 70.5307 176.611L170.238 135.779C173.973 134.25 175.76 129.982 174.231 126.248L150.019 67.1241C148.489 63.3896 144.222 61.6019 140.487 63.1313Z" fill="#DBB6FF"/>
<g opacity="0.5">
<path d="M111.076 106.533C110.362 104.768 109.168 103.238 107.631 102.115C106.093 100.992 104.273 100.32 102.374 100.176C100.476 100.032 98.5747 100.42 96.8851 101.298C95.1955 102.176 93.7846 103.508 92.8112 105.144C91.8379 106.781 91.3408 108.657 91.376 110.56C91.4112 112.464 91.9772 114.32 93.0103 115.919C94.0435 117.519 95.5027 118.798 97.2235 119.613C98.9444 120.427 100.859 120.745 102.75 120.531L108.536 134.68L113.705 132.567L107.907 118.418C109.658 117.053 110.916 115.154 111.488 113.008C112.06 110.863 111.915 108.589 111.076 106.533Z" fill="black"/>
</g>
<path d="M66.9709 170.02C66.7068 170.134 61.5378 158.098 55.4255 143.157C49.3133 128.216 44.5467 116.016 44.8108 115.903C45.0749 115.79 50.2439 127.826 56.3562 142.779C62.4684 157.733 67.2224 169.92 66.9709 170.02Z" fill="#FAFAFA"/>
<path d="M99.1671 125.587C98.7071 125.619 98.2454 125.559 97.8088 125.411C96.5882 125.086 95.4226 124.582 94.3502 123.915C92.5301 122.842 90.9701 121.379 89.7822 119.632C88.5943 117.884 87.808 115.896 87.4798 113.809C87.1516 111.721 87.2895 109.587 87.8838 107.56C88.478 105.532 89.5138 103.661 90.9168 102.082C91.7205 101.098 92.6757 100.249 93.7465 99.5662C94.5011 99.1009 95.0042 98.9248 95.0042 98.9751C93.7428 100.053 92.5656 101.226 91.4827 102.484C90.2364 104.026 89.3273 105.813 88.8141 107.728C88.3008 109.644 88.1948 111.646 88.503 113.604C88.8111 115.563 89.5265 117.436 90.6029 119.101C91.6794 120.767 93.0931 122.188 94.7527 123.273C96.164 124.154 97.6396 124.928 99.1671 125.587Z" fill="#FAFAFA"/>
<path d="M18.903 137.988L19.5192 136.202L20.6888 137.686C21.6295 138.855 22.887 139.728 24.3109 140.202L26.0968 140.818L24.6128 141.987C23.4505 142.934 22.5787 144.19 22.0974 145.609L21.4937 147.433L20.2361 145.962C19.2872 144.796 18.0267 143.924 16.6014 143.446L14.8281 142.83L16.2996 141.66C17.5021 140.712 18.4059 139.437 18.903 137.988Z" fill="#DBB6FF"/>
<path d="M78.5915 67.8223L78.9437 66.791L79.6228 67.6462C80.1657 68.3494 80.8991 68.8819 81.7357 69.1806L82.767 69.5327L81.9118 70.2244C81.2214 70.7662 80.7018 71.4954 80.4151 72.3247L80.063 73.356L79.3461 72.4505C78.8073 71.76 78.0767 71.2438 77.2458 70.9665L76.202 70.6017L77.0698 69.9226C77.7668 69.3818 78.2948 68.6531 78.5915 67.8223Z" fill="#DBB6FF"/>
<path d="M6.81654 76.5634L7.84783 73.5576L9.82236 76.0729C11.3953 78.0625 13.5089 79.5559 15.9095 80.3742L18.9027 81.4055L16.3874 83.38C14.3979 84.9556 12.901 87.0679 12.0736 89.4671L11.0423 92.4603L9.08034 89.945C7.50812 87.9519 5.39473 86.4542 2.99324 85.6312L0 84.5999L2.51533 82.638C4.49773 81.0635 5.98986 78.9562 6.81654 76.5634Z" fill="#DBB6FF"/>
</svg>
