<svg width="229" height="236" viewBox="0 0 229 236" fill="none" xmlns="http://www.w3.org/2000/svg">
<path d="M17.187 125.357C17.9192 128.851 19.9858 131.921 22.947 133.914C25.9012 135.877 29.3107 137.047 32.8478 137.312C36.2718 137.632 39.9518 137.242 42.6846 135.155C45.4174 133.069 46.7551 128.928 44.8863 126.042C42.243 121.958 36.5662 121.613 31.715 121.965C26.8638 122.317 21.763 123.731 17.187 125.357Z" fill="#E0E0E0"/>
<path d="M60.7276 100.007C63.5105 102.242 65.3108 105.475 65.7452 109.018C66.1581 112.543 65.6532 116.114 64.2796 119.386C62.9996 122.586 60.9964 125.684 57.8796 127.175C54.7628 128.666 50.4812 127.981 48.7596 125.005C46.3212 120.8 48.5932 115.578 51.0956 111.412C53.598 107.245 57.2012 103.348 60.7276 100.007Z" fill="#E0E0E0"/>
<path d="M7.67041 103.475C7.6874 106.885 9.03273 110.154 11.4208 112.588C13.8107 114.988 16.777 116.733 20.0352 117.657C23.1776 118.617 26.6976 118.937 29.6352 117.523C32.5729 116.108 34.6337 112.473 33.4753 109.42C31.7792 105.094 26.5248 103.66 21.9232 103.078C17.3216 102.496 12.2656 102.835 7.67041 103.475Z" fill="#E0E0E0"/>
<path d="M53.258 88.0645C55.4345 90.6898 56.502 94.06 56.234 97.4597C55.9409 100.833 54.7861 104.075 52.8804 106.874C51.082 109.626 48.5988 112.141 45.418 112.948C42.2372 113.754 38.3396 112.308 37.2964 109.172C35.818 104.768 38.9412 100.314 42.0836 96.8965C45.226 93.4789 49.3476 90.5157 53.258 88.0645Z" fill="#E0E0E0"/>
<path d="M1.55245 81.5108C1.29638 84.7536 2.31591 87.9683 4.39405 90.4708C6.47058 92.9411 9.14872 94.8345 12.1701 95.9684C15.0757 97.1268 18.3973 97.722 21.3157 96.6084C24.2341 95.4948 26.4357 92.2116 25.5717 89.21C24.2917 84.9732 19.4277 83.2196 15.1077 82.2788C10.7877 81.338 5.96845 81.2676 1.55245 81.5108Z" fill="#E0E0E0"/>
<path d="M46.0647 70.5156C47.9238 73.1812 48.6679 76.4676 48.1384 79.674C47.6 82.8522 46.2534 85.8385 44.2279 88.3461C42.3079 90.8165 39.7479 93.0117 36.6631 93.5237C33.5783 94.0357 29.9943 92.3269 29.2519 89.2933C28.1959 84.9988 31.5175 81.0116 34.7687 78.0228C38.1891 75.0365 41.9869 72.5125 46.0647 70.5156Z" fill="#E0E0E0"/>
<path d="M0.323069 60.8193C-0.308423 63.8409 0.265738 66.9896 1.92307 69.5937C3.58684 72.1734 5.88536 74.2824 8.59828 75.7186C11.1967 77.1586 14.2559 78.1186 17.1423 77.4146C20.0287 76.7106 22.5247 73.8881 22.0447 70.9505C21.3599 66.8033 16.9759 64.5505 13.0143 63.1553C8.90434 61.8246 4.63748 61.0392 0.323069 60.8193Z" fill="#E0E0E0"/>
<path d="M43.5874 55.7949C45.0164 58.5322 45.324 61.7181 44.445 64.6781C43.566 67.609 41.9484 70.2646 39.7474 72.3901C37.6354 74.4893 34.9602 76.2302 31.9906 76.3582C29.021 76.4862 25.8466 74.4382 25.5074 71.4749C25.0338 67.3021 28.6434 63.9485 32.0674 61.5165C35.6421 59.1161 39.5148 57.1927 43.5874 55.7949Z" fill="#E0E0E0"/>
<path d="M3.66526 37.9775C2.643 40.7199 2.73025 43.7528 3.90846 46.4319C5.09686 49.0875 6.95084 51.3912 9.29087 53.12C11.5245 54.8416 14.2509 56.1792 17.0605 55.9296C19.8701 55.68 22.6029 53.3696 22.5709 50.5728C22.5261 46.5855 18.7309 43.8591 15.2173 41.9775C11.5574 40.1463 7.67384 38.8016 3.66526 37.9775Z" fill="#E0E0E0"/>
<path d="M44.9507 39.4746C45.9027 42.2432 45.7374 45.274 44.4898 47.9226C43.2308 50.5457 41.3177 52.8005 38.9346 54.4698C36.6626 56.1338 33.9042 57.401 31.101 57.081C28.2978 56.761 25.6226 54.4058 25.725 51.5898C25.8722 47.6026 29.7378 44.9722 33.2962 43.1866C37.0019 41.4447 40.9202 40.1967 44.9507 39.4746Z" fill="#E0E0E0"/>
<path d="M10.4225 17.0752C9.11555 19.5134 8.81242 22.3656 9.57773 25.024C10.3526 27.662 11.7941 30.0557 13.7633 31.9744C15.6321 33.8944 18.0129 35.4752 20.6753 35.5968C23.3377 35.7184 26.1922 33.9328 26.525 31.2896C26.9858 27.552 23.7857 24.512 20.7649 22.3296C17.5641 20.1301 14.0865 18.3633 10.4225 17.0752Z" fill="#E0E0E0"/>
<path d="M48.9004 23.75C49.437 26.4653 48.8928 29.2827 47.3836 31.6028C45.8727 33.8997 43.7937 35.7671 41.3484 37.0236C39.006 38.3036 36.2284 39.1292 33.6684 38.47C31.1084 37.8108 28.8748 35.27 29.3356 32.6332C29.9756 28.9276 33.9372 26.9564 37.4956 25.734C41.194 24.5763 45.0283 23.9092 48.9004 23.75Z" fill="#E0E0E0"/>
<path d="M35.1602 7.05854C35.0028 6.79529 34.7488 6.60385 34.4524 6.52496C34.156 6.44608 33.8405 6.48597 33.573 6.63615C30.8207 8.05191 28.5525 10.2555 27.0578 12.9658C26.0159 14.8442 25.7037 17.041 26.181 19.1354C27.2114 23.3978 32.869 24.7482 35.6402 21.3434C37.7778 18.713 38.0978 15.0714 37.6242 11.7434C37.3618 9.93855 36.0946 8.60735 35.1602 7.05854Z" fill="#E0E0E0"/>
<path d="M94.5959 150.368C79.6903 148.915 65.3478 142.419 53.047 131.635C41.2881 121.236 32.5134 107.891 27.6262 92.973C20.1126 69.6001 21.783 42.4513 32.3366 16.5312L33.5206 17.0177C23.1078 42.6369 21.4246 69.4721 28.8678 92.5954C38.6534 123.027 65.7382 146.279 94.7367 149.127L94.5959 150.368Z" fill="#E0E0E0"/>
<path d="M211.813 125.357C211.082 128.851 209.015 131.922 206.053 133.914C203.096 135.876 199.684 137.046 196.146 137.312C192.728 137.632 189.042 137.242 186.309 135.155C183.576 133.069 182.238 128.928 184.107 126.042C186.75 121.958 192.427 121.613 197.285 121.965C202.142 122.317 207.237 123.731 211.813 125.357Z" fill="#E0E0E0"/>
<path d="M168.272 100.007C165.494 102.244 163.698 105.477 163.267 109.018C162.857 112.543 163.362 116.113 164.733 119.386C166.013 122.586 168.016 125.684 171.133 127.175C174.25 128.666 178.531 127.981 180.253 125.005C182.691 120.8 180.426 115.578 177.917 111.412C175.408 107.245 171.798 103.348 168.272 100.007Z" fill="#E0E0E0"/>
<path d="M221.329 103.475C221.312 106.885 219.967 110.154 217.579 112.588C215.19 114.989 212.223 116.735 208.964 117.657C205.822 118.617 202.302 118.937 199.364 117.523C196.427 116.108 194.366 112.473 195.563 109.42C197.252 105.094 202.507 103.66 207.083 103.078C211.659 102.496 216.734 102.835 221.329 103.475Z" fill="#E0E0E0"/>
<path d="M175.741 88.0645C173.563 90.6891 172.498 94.0605 172.771 97.4597C173.058 100.835 174.214 104.078 176.125 106.874C177.917 109.626 180.4 112.141 183.581 112.948C186.761 113.754 190.659 112.308 191.702 109.172C193.181 104.768 190.057 100.314 186.915 96.8965C183.773 93.4789 179.677 90.5157 175.741 88.0645Z" fill="#E0E0E0"/>
<path d="M227.448 81.5108C227.704 84.7536 226.684 87.9683 224.606 90.4708C222.53 92.9411 219.851 94.8345 216.83 95.9684C213.924 97.1268 210.609 97.722 207.684 96.6084C204.76 95.4948 202.564 92.2116 203.435 89.21C204.715 84.9732 209.572 83.2196 213.892 82.2788C218.212 81.338 223.032 81.2676 227.448 81.5108Z" fill="#E0E0E0"/>
<path d="M182.942 70.5156C181.078 73.1792 180.332 76.4667 180.862 79.674C181.406 82.854 182.759 85.8405 184.792 88.3461C186.712 90.8165 189.272 93.0117 192.363 93.5237C195.454 94.0357 199.025 92.3269 199.774 89.2933C200.824 84.9988 197.508 81.0116 194.251 78.0228C190.826 75.0365 187.024 72.5126 182.942 70.5156Z" fill="#E0E0E0"/>
<path d="M228.677 60.8193C229.308 63.8409 228.734 66.9896 227.077 69.5937C225.413 72.1734 223.114 74.2824 220.402 75.7186C217.803 77.1586 214.75 78.1186 211.858 77.4146C208.965 76.7106 206.475 73.8881 206.955 70.9505C207.64 66.8033 212.024 64.5505 215.992 63.1553C220.1 61.8243 224.364 61.0389 228.677 60.8193Z" fill="#E0E0E0"/>
<path d="M185.386 55.7949C183.957 58.5322 183.649 61.7181 184.528 64.6781C185.427 67.6137 187.064 70.2692 189.284 72.3901C191.389 74.4893 194.064 76.2302 197.034 76.3582C200.004 76.4862 203.178 74.4382 203.517 71.4749C203.991 67.3021 200.388 63.9485 196.957 61.5165C193.367 59.1122 189.476 57.1886 185.386 55.7949Z" fill="#E0E0E0"/>
<path d="M225.347 37.9775C226.368 40.7208 226.278 43.7537 225.098 46.4319C223.909 49.0875 222.055 51.3912 219.715 53.12C217.482 54.8416 214.755 56.1792 211.952 55.9296C209.149 55.68 206.403 53.3696 206.435 50.5728C206.48 46.5855 210.275 43.8591 213.789 41.9775C217.451 40.1458 221.337 38.801 225.347 37.9775Z" fill="#E0E0E0"/>
<path d="M184.049 39.4746C183.097 42.2432 183.262 45.274 184.509 47.9226C185.768 50.5457 187.682 52.8005 190.065 54.4698C192.337 56.1338 195.095 57.401 197.898 57.081C200.701 56.761 203.377 54.4058 203.274 51.5898C203.127 47.6026 199.268 44.9722 195.703 43.1866C191.997 41.4447 188.079 40.1967 184.049 39.4746Z" fill="#E0E0E0"/>
<path d="M218.578 17.0752C219.885 19.5134 220.188 22.3656 219.422 25.024C218.651 27.6635 217.209 30.0581 215.237 31.9744C213.368 33.8944 210.987 35.4752 208.325 35.5968C205.662 35.7184 202.808 33.9328 202.475 31.2896C202.014 27.552 205.214 24.512 208.267 22.3296C211.458 20.1321 214.925 18.3654 218.578 17.0752Z" fill="#E0E0E0"/>
<path d="M180.101 23.75C179.564 26.4653 180.108 29.2827 181.617 31.6028C183.128 33.8997 185.207 35.7671 187.653 37.0236C189.995 38.3036 192.741 39.1292 195.333 38.47C197.925 37.8108 200.126 35.27 199.665 32.6332C199.025 28.9276 195.07 26.9564 191.505 25.734C187.807 24.5763 183.973 23.9092 180.101 23.75Z" fill="#E0E0E0"/>
<path d="M193.842 7.05901C194 6.7953 194.256 6.60372 194.553 6.52487C194.851 6.44603 195.167 6.4861 195.435 6.63661C198.185 8.05435 200.45 10.2576 201.944 12.9662C202.986 14.8447 203.298 17.0415 202.821 19.1358C201.791 23.3982 196.133 24.7486 193.362 21.3438C191.224 18.7134 190.904 15.0718 191.384 11.7438C191.64 9.93901 192.907 8.60781 193.842 7.05901Z" fill="#E0E0E0"/>
<path d="M134.404 150.368L134.282 149.088C163.268 146.247 190.372 122.995 200.151 92.5953C207.575 69.504 205.911 42.6752 195.479 17.0303L196.67 16.5439C207.217 42.464 208.887 69.6128 201.374 92.9857C196.488 107.899 187.715 121.24 175.959 131.635C163.677 142.419 149.309 148.915 134.404 150.368Z" fill="#E0E0E0"/>
<path d="M95.6647 136.57L91.8247 156.749H96.6247L103.351 140.653C103.351 140.653 102.871 135.61 95.6647 136.57Z" fill="#E0E0E0"/>
<path d="M137.667 136.57L141.507 156.749H136.707L129.987 140.653C129.987 140.653 130.474 135.61 137.667 136.57Z" fill="#E0E0E0"/>
<path d="M123.138 235.814C170.965 235.814 209.736 213.504 209.736 185.983C209.736 158.462 170.965 136.152 123.138 136.152C75.3113 136.152 36.54 158.462 36.54 185.983C36.54 213.504 75.3113 235.814 123.138 235.814Z" fill="#F5F5F5"/>
<path d="M102.847 218.196L70.6558 199.551C69.9266 199.126 69.9266 198.437 70.6558 198.012L147.769 153.492C148.181 153.283 148.637 153.174 149.099 153.174C149.561 153.174 150.016 153.283 150.428 153.492L182.671 172.109C183.4 172.528 183.4 173.217 182.671 173.642L105.494 218.196C105.084 218.405 104.631 218.514 104.171 218.514C103.711 218.514 103.257 218.405 102.847 218.196Z" fill="#E0E0E0"/>
<path d="M85.3943 186.255C85.3943 186.255 86.6461 177.831 84.2745 170.406C81.903 162.981 77.3838 157.526 72.2674 155.723C67.151 153.92 61.6786 157.589 66.3758 162.373C71.073 167.156 80.0884 173.157 81.3575 186.697L85.3943 186.255Z" fill="#8B4DC5"/>
<g opacity="0.15">
<path d="M85.3943 186.255C85.3943 186.255 86.6461 177.831 84.2745 170.406C81.903 162.981 77.3838 157.526 72.2674 155.723C67.151 153.92 61.6786 157.589 66.3758 162.373C71.073 167.156 80.0884 173.157 81.3575 186.697L85.3943 186.255Z" fill="black"/>
</g>
<path d="M84.4361 183.723H84.4936C84.5314 183.718 84.568 183.707 84.6012 183.688C84.6344 183.67 84.6637 183.645 84.6872 183.615C84.7107 183.585 84.728 183.551 84.7381 183.514C84.7483 183.477 84.751 183.439 84.7462 183.401C82.857 168.385 73.899 159.932 69.42 157.561C69.3522 157.525 69.273 157.518 69.1998 157.54C69.1266 157.563 69.0653 157.614 69.0295 157.681C68.9937 157.749 68.9863 157.828 69.009 157.902C69.0316 157.975 69.0824 158.036 69.1501 158.072C73.5372 160.369 82.3172 168.695 84.172 183.47C84.1798 183.536 84.2105 183.598 84.2587 183.644C84.3069 183.69 84.3696 183.718 84.4361 183.723Z" fill="white"/>
<path d="M59.3595 174.328C59.526 175.477 60.4735 176.28 61.3751 176.97C62.2766 177.659 63.2585 178.411 63.5456 179.508C64.1199 181.73 61.5588 183.912 62.2249 186.106C62.3994 186.555 62.6635 186.965 63.0011 187.309C63.3387 187.654 63.7428 187.926 64.1888 188.11C64.9066 188.46 65.676 188.684 66.4283 188.954C66.7957 189.045 67.1675 189.118 67.5423 189.172C68.6725 189.228 69.7525 189.656 70.6144 190.389C71.895 191.664 71.8261 193.714 72.3371 195.448C72.665 196.48 73.2126 197.429 73.9422 198.229C74.6718 199.029 75.566 199.661 76.5635 200.082C78.223 200.789 80.9104 201.122 81.5707 200.484C82.0703 200.002 81.5707 197.969 81.7143 197.297C82.1334 195.56 82.391 193.788 82.4838 192.003C82.4924 191.187 82.6004 190.375 82.8053 189.585C83.0523 188.707 83.2992 187.828 83.5403 186.944C83.7815 186.06 84.2294 185.302 84.1548 184.251C84.0359 183.244 83.7669 182.261 83.3566 181.334C82.9967 180.411 82.6273 179.489 82.2483 178.566C81.8402 177.466 81.2983 176.421 80.6347 175.454C80.0195 174.637 79.2436 173.955 78.3548 173.449C77.466 172.943 76.4831 172.625 75.4667 172.514C73.7957 172.336 71.9754 172.801 70.3445 172.267C68.7137 171.733 67.3069 170.877 65.6301 170.544C64.7558 170.326 63.8432 170.309 62.9616 170.496C62.0801 170.683 61.2527 171.069 60.5424 171.623C60.1403 171.944 59.8223 172.358 59.6162 172.829C59.4101 173.301 59.322 173.815 59.3595 174.328Z" fill="#8B4DC5"/>
<path d="M81.341 195.822C81.4086 195.822 81.4735 195.795 81.5218 195.748C81.5701 195.701 81.5979 195.637 81.5994 195.569C81.7717 179.491 66.6005 172.933 62.8336 172.169C62.7675 172.157 62.6993 172.172 62.6435 172.209C62.5878 172.247 62.5489 172.304 62.535 172.37C62.5275 172.403 62.5268 172.437 62.533 172.47C62.5392 172.503 62.5521 172.535 62.5709 172.563C62.5897 172.591 62.6141 172.615 62.6425 172.633C62.6709 172.651 62.7027 172.663 62.736 172.669C66.4168 173.415 81.2606 179.824 81.1113 195.563C81.111 195.627 81.1342 195.689 81.1766 195.737C81.219 195.784 81.2776 195.815 81.341 195.822Z" fill="white"/>
<path d="M65.9226 183.355C65.9748 183.361 66.0275 183.349 66.0719 183.321C67.8812 182.464 69.8572 182.017 71.8591 182.011C73.8611 182.005 75.8397 182.44 77.6541 183.287C77.6846 183.3 77.7175 183.307 77.7508 183.308C77.7841 183.308 77.8171 183.302 77.8481 183.29C77.879 183.277 77.9072 183.259 77.9311 183.236C77.955 183.213 77.974 183.185 77.9871 183.154C78.0146 183.093 78.0167 183.023 77.9931 182.959C77.9695 182.896 77.922 182.844 77.8608 182.816C75.9703 181.937 73.909 181.487 71.8243 181.498C69.7397 181.509 67.6832 181.981 65.802 182.879C65.7726 182.895 65.7469 182.918 65.7263 182.945C65.7057 182.971 65.6907 183.002 65.6821 183.035C65.6735 183.067 65.6716 183.101 65.6764 183.135C65.6812 183.168 65.6927 183.2 65.7101 183.229C65.7308 183.267 65.7615 183.299 65.7989 183.322C65.8363 183.344 65.879 183.356 65.9226 183.355Z" fill="white"/>
<path d="M148.098 56.704C148.088 56.5726 148.04 56.447 147.96 56.3422L147.88 56.2618L147.788 56.2044C147.714 56.1699 147.634 56.1504 147.552 56.147C147.43 56.1422 147.309 56.1638 147.196 56.2101L139.783 59.1674C139.666 59.2167 139.539 59.2395 139.412 59.2344C139.285 59.2292 139.16 59.1961 139.047 59.1375C138.935 59.0788 138.836 58.9961 138.759 58.8951C138.681 58.7941 138.627 58.6773 138.6 58.553C138.525 58.2774 138.445 58.0075 138.359 57.7376C138.273 57.4677 138.21 57.2954 138.135 57.083C138.026 56.7671 137.899 56.457 137.767 56.1642C137.704 56.0149 137.635 55.8656 137.572 55.722L137.365 55.2971C137.297 55.1535 137.222 55.0215 137.147 54.8837C137.065 54.7323 137.005 54.5698 136.969 54.4013C136.869 53.9706 136.92 53.5185 137.113 53.1208L138.629 50.3702L142.39 43.5656C142.52 43.3235 142.555 43.0415 142.488 42.7748C142.421 42.5082 142.257 42.2762 142.028 42.1243L136.86 38.8397L130.308 34.6593L125.203 31.3861C125.167 31.3568 125.126 31.3335 125.083 31.3172L124.979 31.277H124.939C124.895 31.272 124.851 31.272 124.807 31.277C124.725 31.2657 124.642 31.2657 124.56 31.277H124.462C124.455 31.273 124.448 31.2709 124.439 31.2709C124.431 31.2709 124.424 31.273 124.417 31.277H124.33C124.314 31.2721 124.296 31.2721 124.279 31.277H124.21H124.175H124.141C124.094 31.2956 124.051 31.3229 124.015 31.3574C123.978 31.3816 123.945 31.4105 123.917 31.4436L123.825 31.5469L119.231 37.8233L113.943 34.4468L113.845 34.3779L112.243 33.3558L110.072 31.9719C110.052 31.954 110.029 31.9403 110.003 31.9317H109.963C109.925 31.9261 109.886 31.9261 109.848 31.9317H109.636C109.564 31.953 109.495 31.9818 109.429 32.0178L100.902 36.4566H100.867C100.849 36.4629 100.833 36.475 100.821 36.4911H100.787L100.666 36.5772L100.603 36.6231L100.563 36.6691C100.563 36.6691 100.563 36.6691 100.529 36.6691L100.442 36.7495C100.418 36.7695 100.397 36.7926 100.379 36.8184L100.293 36.9217L100.207 37.0308C100.166 37.0875 100.13 37.147 100.098 37.2088C100.09 37.24 100.077 37.2693 100.058 37.295V37.3294C100.058 37.3294 100.058 37.3294 100.058 37.3639C100.055 37.3868 100.055 37.4099 100.058 37.4328C100.058 37.496 100.006 37.5706 99.983 37.6453C99.978 37.6757 99.978 37.7067 99.983 37.7371C99.9803 37.7773 99.9803 37.8176 99.983 37.8577L98.7599 46.9076C98.7599 46.988 98.7255 47.0684 98.7082 47.1488C98.6975 47.1917 98.684 47.2339 98.668 47.2751C98.6502 47.3182 98.6348 47.3623 98.6221 47.4072C98.4484 47.8437 98.1796 48.236 97.8354 48.5556C97.422 48.9059 97.0143 49.2619 96.6123 49.6294C96.308 49.8993 96.0094 50.2037 95.705 50.4678L94.6944 51.3866C94.3958 51.6795 94.1201 51.9608 93.8158 52.2824C93.5115 52.604 93.2416 52.8911 92.9544 53.2069C92.9205 53.2475 92.8819 53.2841 92.8396 53.316C92.8015 53.3534 92.7591 53.3862 92.7133 53.4136C92.6673 53.447 92.6171 53.4741 92.564 53.494C92.5249 53.5241 92.4799 53.5457 92.4319 53.5572C92.3936 53.5757 92.3531 53.5892 92.3113 53.5974H92.2539H92.1735C92.1258 53.6028 92.0776 53.6028 92.0299 53.5974C92.0299 53.5974 91.9955 53.5974 91.984 53.5974C91.9539 53.6054 91.9222 53.6054 91.8921 53.5974C91.8601 53.6059 91.8265 53.6059 91.7945 53.5974C91.7105 53.6061 91.6258 53.6061 91.5418 53.5974C91.4964 53.5921 91.452 53.5805 91.4098 53.5629H91.3466L86.1785 51.4957C86.1158 51.4705 86.0503 51.4531 85.9833 51.444H85.7995C85.577 51.4259 85.3537 51.4668 85.1521 51.5626C84.9504 51.6584 84.7776 51.8056 84.6511 51.9895L78.1852 62.119C78.1465 62.182 78.1157 62.2494 78.0934 62.3199V62.3544C78.0701 62.4236 78.0528 62.4947 78.0417 62.5669C78.0417 62.5669 78.0417 62.5669 78.0417 62.6128C78.039 62.6434 78.039 62.6741 78.0417 62.7047C78.0417 62.7736 78.0417 62.8425 78.0417 62.9057C78.0509 62.9777 78.0663 63.0487 78.0876 63.1181C78.1225 63.2434 78.1746 63.3633 78.2427 63.4741L78.3173 63.5775C78.3469 63.6129 78.3796 63.6455 78.4149 63.6751L82.4346 67.488C82.4747 67.5339 82.5149 67.5742 82.5494 67.6201C82.5749 67.6452 82.5963 67.6743 82.6126 67.7062C82.647 67.7522 82.6757 67.8096 82.7102 67.867C82.7446 67.9244 82.7504 67.9646 82.7676 68.0163C82.7703 68.0276 82.7703 68.0394 82.7676 68.0508C82.802 68.1374 82.8251 68.2281 82.8365 68.3207C82.8419 68.3414 82.8419 68.3631 82.8365 68.3838C82.8394 68.4105 82.8394 68.4375 82.8365 68.4642C82.8365 68.4929 82.8365 68.5216 82.8365 68.5561C82.8365 68.5905 82.8365 68.648 82.8365 68.6939C82.8365 68.7398 82.8365 68.8145 82.8365 68.8719V68.9293C82.8235 68.9923 82.8042 69.0539 82.7791 69.1131C81.917 71.1449 81.1919 73.2321 80.6085 75.3607C80.5672 75.5075 80.5115 75.6499 80.442 75.7856C80.4216 75.8339 80.3966 75.88 80.3673 75.9235V75.9579C80.3673 76.0096 80.3099 76.0613 80.2754 76.113C80.2672 76.1289 80.2554 76.1426 80.241 76.1532C80.2318 76.1766 80.2181 76.1981 80.2008 76.2163C80.1815 76.2445 80.1604 76.2713 80.1376 76.2967C80.0974 76.3541 80.0458 76.4116 79.9998 76.469L79.9481 76.5207C79.9206 76.5577 79.8899 76.5923 79.8563 76.624C79.7523 76.7241 79.641 76.8163 79.5232 76.8996L71.7998 81.8553C71.7386 81.8942 71.681 81.9384 71.6275 81.9873C71.5923 82.0149 71.5596 82.0457 71.5299 82.0792L71.461 82.1539C71.4203 82.192 71.3837 82.2343 71.3519 82.2802C71.3071 82.3363 71.2668 82.3958 71.2313 82.4582L71.1452 82.6018L71.0705 82.7568C71.0436 82.8059 71.0224 82.8579 71.0074 82.9118C70.9907 82.9464 70.9791 82.9831 70.9729 83.0209C70.9729 83.0841 70.9385 83.1473 70.9212 83.2047C70.9162 83.2754 70.9162 83.3464 70.9212 83.4172L70.502 92.846C70.4961 92.8975 70.4961 92.9496 70.502 93.0011V93.0872C70.5048 93.1276 70.5165 93.1668 70.5365 93.2021C70.5518 93.2509 70.5772 93.2959 70.6111 93.3341C70.6382 93.3737 70.6734 93.407 70.7145 93.4317L70.7662 93.4605L79.9194 99.3119L76.164 106.111C76.141 106.146 76.1235 106.185 76.1123 106.226C76.066 106.337 76.0388 106.455 76.0319 106.576C76.0236 106.646 76.0236 106.718 76.0319 106.788C76.0437 106.857 76.061 106.924 76.0836 106.989C76.1144 107.076 76.1548 107.159 76.2041 107.236L76.2903 107.351C76.3583 107.422 76.4334 107.485 76.5142 107.541L89.0325 115.58C89.0906 115.621 89.1544 115.654 89.222 115.677L93.3277 118.29C93.5605 118.436 93.8394 118.489 94.1095 118.439C94.3796 118.389 94.6211 118.24 94.7862 118.02L99.3801 111.75L108.568 117.601C108.612 117.633 108.66 117.658 108.711 117.676C108.806 117.706 108.907 117.716 109.006 117.704C109.105 117.692 109.2 117.659 109.286 117.607L117.664 113.254C117.796 113.183 117.917 113.094 118.025 112.99C118.143 112.878 118.248 112.755 118.341 112.623C118.526 112.37 118.648 112.076 118.697 111.767L119.926 102.717C120.05 102.081 120.374 101.502 120.851 101.063C122.535 99.6421 124.119 98.1072 125.594 96.4694C125.801 96.2585 126.063 96.1108 126.351 96.0437C126.639 95.9766 126.94 95.9928 127.219 96.0904L132.387 98.1519C132.655 98.2479 132.947 98.252 133.217 98.1637C133.487 98.0753 133.721 97.8994 133.88 97.6638L140.374 87.5631C140.519 87.3179 140.579 87.0315 140.544 86.7488C140.508 86.4661 140.38 86.2032 140.179 86.0012L136.114 82.1883C135.91 81.9743 135.771 81.7073 135.712 81.4179C135.653 81.1285 135.677 80.8283 135.781 80.5518C136.645 78.5229 137.37 76.4374 137.951 74.3099C138.15 73.6917 138.54 73.1528 139.065 72.7709L146.76 67.8555C147.013 67.6731 147.225 67.4391 147.381 67.1689C147.538 66.8987 147.635 66.5984 147.667 66.2879L148.086 56.8533C148.104 56.8016 148.098 56.7499 148.098 56.704ZM118.812 63.8187C118.404 73.0064 111.456 83.9167 103.308 88.1431C102.407 88.6107 101.465 88.9951 100.494 89.2915C100.431 88.8322 100.391 88.3498 100.368 87.8502C100.368 87.655 100.368 87.454 100.368 87.2473V86.9085C100.368 86.6903 100.368 86.4778 100.368 86.2596C100.775 77.0719 107.729 66.1615 115.901 61.9295C116.148 61.7974 116.389 61.6768 116.636 61.5677C116.756 61.5045 116.883 61.4529 116.997 61.4012L117.359 61.2519C117.8 61.0657 118.251 60.9028 118.709 60.7638C118.835 61.7769 118.871 62.7991 118.818 63.8187H118.812Z" fill="#8B4DC5"/>
<path opacity="0.3" d="M148.098 56.704C148.088 56.5726 148.04 56.447 147.96 56.3422L147.88 56.2618L147.788 56.2044C147.714 56.1699 147.634 56.1504 147.552 56.147C147.43 56.1422 147.309 56.1638 147.196 56.2101L139.783 59.1674C139.666 59.2167 139.539 59.2395 139.412 59.2344C139.285 59.2292 139.16 59.1961 139.047 59.1375C138.935 59.0788 138.836 58.9961 138.759 58.8951C138.681 58.7941 138.627 58.6773 138.6 58.553C138.525 58.2774 138.445 58.0075 138.359 57.7376C138.273 57.4677 138.21 57.2954 138.135 57.083C138.026 56.7671 137.899 56.457 137.767 56.1642C137.704 56.0149 137.635 55.8656 137.572 55.722L137.365 55.2971C137.297 55.1535 137.222 55.0215 137.147 54.8837C137.065 54.7323 137.005 54.5698 136.969 54.4013C136.869 53.9706 136.92 53.5185 137.113 53.1208L138.629 50.3702L142.39 43.5656C142.52 43.3235 142.555 43.0415 142.488 42.7748C142.421 42.5082 142.257 42.2762 142.028 42.1243L136.86 38.8397L130.308 34.6593L125.203 31.3861C125.167 31.3568 125.126 31.3335 125.083 31.3172L124.979 31.277H124.939C124.895 31.272 124.851 31.272 124.807 31.277C124.725 31.2657 124.642 31.2657 124.56 31.277H124.462C124.455 31.273 124.448 31.2709 124.439 31.2709C124.431 31.2709 124.424 31.273 124.417 31.277H124.33C124.314 31.2721 124.296 31.2721 124.279 31.277H124.21H124.175H124.141C124.094 31.2956 124.051 31.3229 124.015 31.3574C123.978 31.3816 123.945 31.4105 123.917 31.4436L123.825 31.5469L119.231 37.8233L113.943 34.4468L113.845 34.3779L112.243 33.3558L110.072 31.9719C110.052 31.954 110.029 31.9403 110.003 31.9317H109.963C109.925 31.9261 109.886 31.9261 109.848 31.9317H109.636C109.564 31.953 109.495 31.9818 109.429 32.0178L100.902 36.4566H100.867C100.849 36.4629 100.833 36.475 100.821 36.4911H100.787L100.666 36.5772L100.603 36.6231L100.563 36.6691C100.563 36.6691 100.563 36.6691 100.529 36.6691L100.442 36.7495C100.418 36.7695 100.397 36.7926 100.379 36.8184L100.293 36.9217L100.207 37.0308C100.166 37.0875 100.13 37.147 100.098 37.2088C100.09 37.24 100.077 37.2693 100.058 37.295V37.3294C100.058 37.3294 100.058 37.3294 100.058 37.3639C100.055 37.3868 100.055 37.4099 100.058 37.4328C100.058 37.496 100.006 37.5706 99.983 37.6453C99.978 37.6757 99.978 37.7067 99.983 37.7371C99.9803 37.7773 99.9803 37.8176 99.983 37.8577L98.7599 46.9076C98.7599 46.988 98.7255 47.0684 98.7082 47.1488C98.6975 47.1917 98.684 47.2339 98.668 47.2751C98.6502 47.3182 98.6348 47.3623 98.6221 47.4072C98.4484 47.8437 98.1796 48.236 97.8354 48.5556C97.422 48.9059 97.0143 49.2619 96.6123 49.6294C96.308 49.8993 96.0094 50.2037 95.705 50.4678L94.6944 51.3866C94.3958 51.6795 94.1201 51.9608 93.8158 52.2824C93.5115 52.604 93.2416 52.8911 92.9544 53.2069C92.9205 53.2475 92.8819 53.2841 92.8396 53.316C92.8015 53.3534 92.7591 53.3862 92.7133 53.4136C92.6673 53.447 92.6171 53.4741 92.564 53.494C92.5249 53.5241 92.4799 53.5457 92.4319 53.5572C92.3936 53.5757 92.3531 53.5892 92.3113 53.5974H92.2539H92.1735C92.1258 53.6028 92.0776 53.6028 92.0299 53.5974C92.0299 53.5974 91.9955 53.5974 91.984 53.5974C91.9539 53.6054 91.9222 53.6054 91.8921 53.5974C91.8601 53.6059 91.8265 53.6059 91.7945 53.5974C91.7105 53.6061 91.6258 53.6061 91.5418 53.5974C91.4964 53.5921 91.452 53.5805 91.4098 53.5629H91.3466L86.1785 51.4957C86.1158 51.4705 86.0503 51.4531 85.9833 51.444H85.7995C85.577 51.4259 85.3537 51.4668 85.1521 51.5626C84.9504 51.6584 84.7776 51.8056 84.6511 51.9895L78.1852 62.119C78.1465 62.182 78.1157 62.2494 78.0934 62.3199V62.3544C78.0701 62.4236 78.0528 62.4947 78.0417 62.5669C78.0417 62.5669 78.0417 62.5669 78.0417 62.6128C78.039 62.6434 78.039 62.6741 78.0417 62.7047C78.0417 62.7736 78.0417 62.8425 78.0417 62.9057C78.0509 62.9777 78.0663 63.0487 78.0876 63.1181C78.1225 63.2434 78.1746 63.3633 78.2427 63.4741L78.3173 63.5775C78.3469 63.6129 78.3796 63.6455 78.4149 63.6751L82.4346 67.488C82.4747 67.5339 82.5149 67.5742 82.5494 67.6201C82.5749 67.6452 82.5963 67.6743 82.6126 67.7062C82.647 67.7522 82.6757 67.8096 82.7102 67.867C82.7446 67.9244 82.7504 67.9646 82.7676 68.0163C82.7703 68.0276 82.7703 68.0394 82.7676 68.0508C82.802 68.1374 82.8251 68.2281 82.8365 68.3207C82.8419 68.3414 82.8419 68.3631 82.8365 68.3838C82.8394 68.4105 82.8394 68.4375 82.8365 68.4642C82.8365 68.4929 82.8365 68.5216 82.8365 68.5561C82.8365 68.5905 82.8365 68.648 82.8365 68.6939C82.8365 68.7398 82.8365 68.8145 82.8365 68.8719V68.9293C82.8235 68.9923 82.8042 69.0539 82.7791 69.1131C81.917 71.1449 81.1919 73.2321 80.6085 75.3607C80.5672 75.5075 80.5115 75.6499 80.442 75.7856C80.4216 75.8339 80.3966 75.88 80.3673 75.9235V75.9579C80.3673 76.0096 80.3099 76.0613 80.2754 76.113C80.2672 76.1289 80.2554 76.1426 80.241 76.1532C80.2318 76.1766 80.2181 76.1981 80.2008 76.2163C80.1815 76.2445 80.1604 76.2713 80.1376 76.2967C80.0974 76.3541 80.0458 76.4116 79.9998 76.469L79.9481 76.5207C79.9206 76.5577 79.8899 76.5923 79.8563 76.624C79.7523 76.7241 79.641 76.8163 79.5232 76.8996L71.7998 81.8553C71.7386 81.8942 71.681 81.9384 71.6275 81.9873C71.5923 82.0149 71.5596 82.0457 71.5299 82.0792L71.461 82.1539C71.4203 82.192 71.3837 82.2343 71.3519 82.2802C71.3071 82.3363 71.2668 82.3958 71.2313 82.4582L71.1452 82.6018L71.0705 82.7568C71.0436 82.8059 71.0224 82.8579 71.0074 82.9118C70.9907 82.9464 70.9791 82.9831 70.9729 83.0209C70.9729 83.0841 70.9385 83.1473 70.9212 83.2047C70.9162 83.2754 70.9162 83.3464 70.9212 83.4172L70.502 92.846C70.4961 92.8975 70.4961 92.9496 70.502 93.0011V93.0872C70.5048 93.1276 70.5165 93.1668 70.5365 93.2021C70.5518 93.2509 70.5772 93.2959 70.6111 93.3341C70.6382 93.3737 70.6734 93.407 70.7145 93.4317L70.7662 93.4605L79.9194 99.3119L76.164 106.111C76.141 106.146 76.1235 106.185 76.1123 106.226C76.066 106.337 76.0388 106.455 76.0319 106.576C76.0236 106.646 76.0236 106.718 76.0319 106.788C76.0437 106.857 76.061 106.924 76.0836 106.989C76.1144 107.076 76.1548 107.159 76.2041 107.236L76.2903 107.351C76.3583 107.422 76.4334 107.485 76.5142 107.541L89.0325 115.58C89.0906 115.621 89.1544 115.654 89.222 115.677L93.3277 118.29C93.5605 118.436 93.8394 118.489 94.1095 118.439C94.3796 118.389 94.6211 118.24 94.7862 118.02L99.3801 111.75L108.568 117.601C108.612 117.633 108.66 117.658 108.711 117.676C108.806 117.706 108.907 117.716 109.006 117.704C109.105 117.692 109.2 117.659 109.286 117.607L117.664 113.254C117.796 113.183 117.917 113.094 118.025 112.99C118.143 112.878 118.248 112.755 118.341 112.623C118.526 112.37 118.648 112.076 118.697 111.767L119.926 102.717C120.05 102.081 120.374 101.502 120.851 101.063C122.535 99.6421 124.119 98.1072 125.594 96.4694C125.801 96.2585 126.063 96.1108 126.351 96.0437C126.639 95.9766 126.94 95.9928 127.219 96.0904L132.387 98.1519C132.655 98.2479 132.947 98.252 133.217 98.1637C133.487 98.0753 133.721 97.8994 133.88 97.6638L140.374 87.5631C140.519 87.3179 140.579 87.0315 140.544 86.7488C140.508 86.4661 140.38 86.2032 140.179 86.0012L136.114 82.1883C135.91 81.9743 135.771 81.7073 135.712 81.4179C135.653 81.1285 135.677 80.8283 135.781 80.5518C136.645 78.5229 137.37 76.4374 137.951 74.3099C138.15 73.6917 138.54 73.1528 139.065 72.7709L146.76 67.8555C147.013 67.6731 147.225 67.4391 147.381 67.1689C147.538 66.8987 147.635 66.5984 147.667 66.2879L148.086 56.8533C148.104 56.8016 148.098 56.7499 148.098 56.704ZM118.812 63.8187C118.404 73.0064 111.456 83.9167 103.308 88.1431C102.407 88.6107 101.465 88.9951 100.494 89.2915C100.431 88.8322 100.391 88.3498 100.368 87.8502C100.368 87.655 100.368 87.454 100.368 87.2473V86.9085C100.368 86.6903 100.368 86.4778 100.368 86.2596C100.775 77.0719 107.729 66.1615 115.901 61.9295C116.148 61.7974 116.389 61.6768 116.636 61.5677C116.756 61.5045 116.883 61.4529 116.997 61.4012L117.359 61.2519C117.8 61.0657 118.251 60.9028 118.709 60.7638C118.835 61.7769 118.871 62.7991 118.818 63.8187H118.812Z" fill="black"/>
<path opacity="0.05" d="M86.7289 99.5066L83.0825 100.959C82.9803 101.008 82.8676 101.031 82.7545 101.026C82.6413 101.021 82.5311 100.988 82.4336 100.931L79.9529 99.3516L76.1975 106.15C76.0678 106.393 76.0336 106.676 76.1016 106.942C76.1696 107.209 76.3349 107.441 76.565 107.592L89.0832 115.631C89.3173 115.778 89.5982 115.831 89.8699 115.78L93.3153 103.721L86.7289 99.5066Z" fill="black"/>
<path d="M94.5855 76.1295L82.8827 68.6645C82.8939 68.4538 82.8614 68.243 82.7872 68.0454C82.7131 67.8477 82.599 67.6675 82.4521 67.5161L78.4324 63.7089C78.2224 63.5042 78.0922 63.2315 78.0649 62.9395L89.762 70.4044C89.7924 70.6877 89.9203 70.9516 90.1238 71.1509L94.1434 74.9638C94.2946 75.1163 94.4121 75.2989 94.4883 75.4997C94.5645 75.7005 94.5976 75.9151 94.5855 76.1295Z" fill="#8B4DC5"/>
<path opacity="0.4" d="M94.5855 76.1295L82.8827 68.6645C82.8939 68.4538 82.8614 68.243 82.7872 68.0454C82.7131 67.8477 82.599 67.6675 82.4521 67.5161L78.4324 63.7089C78.2224 63.5042 78.0922 63.2315 78.0649 62.9395L89.762 70.4044C89.7924 70.6877 89.9203 70.9516 90.1238 71.1509L94.1434 74.9638C94.2946 75.1163 94.4121 75.2989 94.4883 75.4997C94.5645 75.7005 94.5976 75.9151 94.5855 76.1295Z" fill="black"/>
<path d="M104.014 61.0737C103.694 61.183 103.347 61.183 103.027 61.0737L97.8585 59.0122C97.7382 58.9625 97.6097 58.9353 97.4795 58.9318L85.7939 51.4668C85.9216 51.4707 86.0478 51.496 86.1672 51.5414L91.3353 53.6029C91.6515 53.7123 91.9953 53.7123 92.3115 53.6029L104.014 61.0737Z" fill="#8B4DC5"/>
<path opacity="0.2" d="M104.014 61.0737C103.694 61.183 103.347 61.183 103.027 61.0737L97.8585 59.0122C97.7382 58.9625 97.6097 58.9353 97.4795 58.9318L85.7939 51.4668C85.9216 51.4707 86.0478 51.496 86.1672 51.5414L91.3353 53.6029C91.6515 53.7123 91.9953 53.7123 92.3115 53.6029L104.014 61.0737Z" fill="black"/>
<path d="M111.702 44.88C111.631 45.0357 111.579 45.1997 111.547 45.3681L110.33 54.4237C110.303 54.5956 110.255 54.7635 110.186 54.9233L98.4951 47.4583C98.5601 47.2977 98.6063 47.13 98.6329 46.9588L99.856 37.9089C99.882 37.7373 99.9343 37.5707 100.011 37.415L111.702 44.88Z" fill="#8B4DC5"/>
<path opacity="0.2" d="M111.702 44.88C111.631 45.0357 111.579 45.1997 111.547 45.3681L110.33 54.4237C110.303 54.5956 110.255 54.7635 110.186 54.9233L98.4951 47.4583C98.5601 47.2977 98.6063 47.13 98.6329 46.9588L99.856 37.9089C99.882 37.7373 99.9343 37.5707 100.011 37.415L111.702 44.88Z" fill="black"/>
<path d="M138.623 50.3643L147.811 56.2042C147.72 56.1633 147.623 56.1421 147.523 56.1421C147.424 56.1421 147.327 56.1633 147.236 56.2042L139.817 59.1557C139.7 59.205 139.573 59.2278 139.446 59.2227C139.319 59.2175 139.195 59.1844 139.082 59.1258C138.969 59.0671 138.87 58.9844 138.793 58.8834C138.716 58.7824 138.662 58.6656 138.634 58.5413C138.298 57.2612 137.806 56.0271 137.17 54.8662C137.037 54.5915 136.968 54.2901 136.968 53.9848C136.968 53.6795 137.037 53.3781 137.17 53.1033L138.623 50.3643Z" fill="#8B4DC5"/>
<path d="M136.876 38.8337C136.643 38.6972 136.367 38.6511 136.101 38.704C135.836 38.7569 135.599 38.9051 135.435 39.1208L128.992 47.941C128.867 48.1038 128.711 48.2403 128.533 48.3429L125.237 46.2183L122.165 44.2487L121.929 40.0683C121.931 39.9547 121.904 39.8426 121.85 39.7423C121.797 39.642 121.72 39.5566 121.625 39.494H121.59L119.15 37.9436L123.744 31.6673C123.908 31.4514 124.145 31.3038 124.412 31.2529C124.678 31.202 124.953 31.2514 125.185 31.3917L130.319 34.6705L136.876 38.8337Z" fill="#8B4DC5"/>
<path d="M91.7706 83.8538C91.6112 84.0748 91.4173 84.2687 91.1963 84.428L83.5016 89.3492C83.2687 89.4939 83.0722 89.6904 82.9274 89.9234L71.2476 82.4584C71.384 82.2322 71.5658 82.0366 71.7816 81.8842L79.482 76.9688C79.7005 76.8065 79.894 76.613 80.0563 76.3945L91.7706 83.8538Z" fill="#8B4DC5"/>
<path d="M97.2963 58.9264C97.1106 58.9495 96.9322 59.0129 96.7735 59.1121C96.6148 59.2112 96.4797 59.3438 96.3775 59.5006L89.9059 69.6358C89.7554 69.8771 89.6963 70.1643 89.7394 70.4455L78.0481 62.9805C78.0096 62.705 78.0685 62.4247 78.2146 62.188L84.6747 52.0586C84.7856 51.8896 84.935 51.7494 85.1108 51.6496C85.2865 51.5498 85.4834 51.4931 85.6854 51.4844L97.2963 58.9264Z" fill="#8B4DC5"/>
<path d="M121.591 39.4825C121.489 39.4435 121.38 39.4279 121.272 39.4369C121.163 39.4458 121.059 39.4791 120.965 39.5342L117.519 41.3143L112.57 43.8868C112.177 44.1173 111.866 44.4645 111.679 44.8803L99.9824 37.4153C100.18 37.0085 100.499 36.6734 100.895 36.4563L109.273 32.1094C109.4 32.0389 109.542 32.0032 109.687 32.006C109.773 32.0043 109.858 32.0305 109.928 32.0807L113.764 34.5154L113.862 34.5786L119.15 37.9608L121.591 39.4825Z" fill="#8B4DC5"/>
<path opacity="0.1" d="M138.623 50.3643L147.811 56.2042C147.72 56.1633 147.623 56.1421 147.523 56.1421C147.424 56.1421 147.327 56.1633 147.236 56.2042L139.817 59.1557C139.7 59.205 139.573 59.2278 139.446 59.2227C139.319 59.2175 139.195 59.1844 139.082 59.1258C138.969 59.0671 138.87 58.9844 138.793 58.8834C138.716 58.7824 138.662 58.6656 138.634 58.5413C138.298 57.2612 137.806 56.0271 137.17 54.8662C137.037 54.5915 136.968 54.2901 136.968 53.9848C136.968 53.6795 137.037 53.3781 137.17 53.1033L138.623 50.3643Z" fill="black"/>
<path opacity="0.2" d="M136.876 38.8337C136.643 38.6972 136.367 38.6511 136.101 38.704C135.836 38.7569 135.599 38.9051 135.435 39.1208L128.992 47.941C128.867 48.1038 128.711 48.2403 128.533 48.3429L125.237 46.2183L122.165 44.2487L121.929 40.0683C121.931 39.9547 121.904 39.8426 121.85 39.7423C121.797 39.642 121.72 39.5566 121.625 39.494H121.59L119.15 37.9436L123.744 31.6673C123.908 31.4514 124.145 31.3038 124.412 31.2529C124.678 31.202 124.953 31.2514 125.185 31.3917L130.319 34.6705L136.876 38.8337Z" fill="black"/>
<path opacity="0.2" d="M91.7706 83.8538C91.6112 84.0748 91.4173 84.2687 91.1963 84.428L83.5016 89.3492C83.2687 89.4939 83.0722 89.6904 82.9274 89.9234L71.2476 82.4584C71.384 82.2322 71.5658 82.0366 71.7816 81.8842L79.482 76.9688C79.7005 76.8065 79.894 76.613 80.0563 76.3945L91.7706 83.8538Z" fill="black"/>
<path opacity="0.1" d="M97.2963 58.9264C97.1106 58.9495 96.9322 59.0129 96.7735 59.1121C96.6148 59.2112 96.4797 59.3438 96.3775 59.5006L89.9059 69.6358C89.7554 69.8771 89.6963 70.1643 89.7394 70.4455L78.0481 62.9805C78.0096 62.705 78.0685 62.4247 78.2146 62.188L84.6747 52.0586C84.7856 51.8896 84.935 51.7494 85.1108 51.6496C85.2865 51.5498 85.4834 51.4931 85.6854 51.4844L97.2963 58.9264Z" fill="black"/>
<path opacity="0.1" d="M121.591 39.4825C121.489 39.4435 121.38 39.4279 121.272 39.4369C121.163 39.4458 121.059 39.4791 120.965 39.5342L117.519 41.3143L112.57 43.8868C112.177 44.1173 111.866 44.4645 111.679 44.8803L99.9824 37.4153C100.18 37.0085 100.499 36.6734 100.895 36.4563L109.273 32.1094C109.4 32.0389 109.542 32.0032 109.687 32.006C109.773 32.0043 109.858 32.0305 109.928 32.0807L113.764 34.5154L113.862 34.5786L119.15 37.9608L121.591 39.4825Z" fill="black"/>
<path opacity="0.15" d="M93.3049 103.699L86.73 99.507L90.4912 98.0082C90.6083 97.9568 90.7353 97.9321 90.8631 97.9359C90.9909 97.9397 91.1163 97.9719 91.2301 98.0302C91.3439 98.0885 91.4433 98.1714 91.5211 98.2729C91.5989 98.3744 91.6531 98.4919 91.6798 98.6169C92.015 99.8993 92.5068 101.136 93.1441 102.298C93.3622 102.731 93.4192 103.228 93.3049 103.699Z" fill="black"/>
<path opacity="0.15" d="M108.602 117.63L99.4141 111.778L101.275 109.24C101.472 109.005 101.721 108.818 102.001 108.694C102.282 108.57 102.587 108.511 102.894 108.522C104.215 108.608 105.542 108.532 106.845 108.299C106.969 108.27 107.097 108.27 107.221 108.298C107.346 108.325 107.462 108.38 107.562 108.458C107.663 108.536 107.745 108.635 107.802 108.749C107.86 108.862 107.892 108.987 107.895 109.114L108.343 117.084C108.342 117.189 108.365 117.292 108.41 117.387C108.454 117.481 108.52 117.564 108.602 117.63Z" fill="black"/>
<path d="M148.098 56.7042C148.088 56.5728 148.04 56.4472 147.961 56.3424L147.88 56.262L147.788 56.2046C147.714 56.1701 147.634 56.1506 147.553 56.1472C147.431 56.1424 147.31 56.164 147.197 56.2103L139.784 59.1676C139.666 59.2169 139.54 59.2397 139.412 59.2346C139.285 59.2294 139.161 59.1963 139.048 59.1377C138.935 59.079 138.837 58.9963 138.759 58.8953C138.682 58.7942 138.628 58.6775 138.601 58.5532C138.526 58.2775 138.446 58.0077 138.359 57.7378C138.273 57.4679 138.21 57.2956 138.136 57.0832C138.026 56.7673 137.9 56.4572 137.768 56.1644C137.705 56.0151 137.636 55.8658 137.573 55.7222L137.366 55.2973C137.297 55.1537 137.222 55.0217 137.148 54.8838C137.066 54.7325 137.006 54.57 136.97 54.4015C136.87 53.9708 136.92 53.5187 137.113 53.121L138.629 50.3704L142.391 43.5658C142.521 43.3237 142.556 43.0416 142.489 42.775C142.422 42.5084 142.258 42.2763 142.029 42.1245L136.901 38.8513H136.838H136.792L136.677 38.8054H136.62H136.556H136.424C136.266 38.7998 136.108 38.8271 135.961 38.8854C135.814 38.9437 135.68 39.0318 135.569 39.1442C135.535 39.1745 135.506 39.2092 135.483 39.2476L133.117 42.4805L128.994 47.9414C128.966 47.9818 128.933 48.0185 128.896 48.0505C128.874 48.0832 128.847 48.1122 128.816 48.1366C128.731 48.2169 128.636 48.2863 128.534 48.3434C128.189 48.5557 127.791 48.6653 127.386 48.6592C126.95 48.6247 126.502 48.6133 126.048 48.619C125.172 48.6396 124.298 48.7259 123.435 48.8774C123.311 48.9064 123.181 48.9074 123.057 48.8802C122.932 48.8531 122.815 48.7985 122.713 48.7204C122.612 48.6424 122.53 48.5428 122.472 48.4289C122.414 48.315 122.382 48.1897 122.379 48.062L122.166 44.2721L121.936 40.0917C121.932 40.0275 121.92 39.964 121.902 39.9022C121.892 39.844 121.872 39.7879 121.845 39.7357C121.822 39.6961 121.795 39.6594 121.764 39.6265C121.766 39.622 121.767 39.6172 121.767 39.6122C121.767 39.6072 121.766 39.6023 121.764 39.5978L121.649 39.5117H121.609L121.523 39.483C121.344 39.449 121.159 39.4795 121 39.5691L112.571 43.8873C112.46 43.9435 112.357 44.0151 112.266 44.0998L112.186 44.1745C112.078 44.2798 111.98 44.3951 111.893 44.519C111.842 44.5879 111.801 44.6511 111.755 44.7257L111.681 44.8808C111.642 44.9606 111.61 45.0431 111.583 45.1277C111.557 45.2063 111.538 45.287 111.526 45.3689L110.659 51.8175L110.308 54.4245C110.308 54.5163 110.268 54.6197 110.239 54.7231C110.222 54.7927 110.197 54.8601 110.165 54.924C109.996 55.3616 109.729 55.7545 109.384 56.0725C107.697 57.495 106.109 59.0298 104.629 60.6663C104.454 60.8523 104.232 60.9872 103.986 61.0568C103.894 61.0866 103.8 61.1078 103.705 61.12H103.567C103.371 61.1344 103.175 61.105 102.993 61.0339L97.8245 58.9724C97.7691 58.9491 97.7113 58.9318 97.6523 58.9207C97.6009 58.9123 97.5486 58.9123 97.4972 58.9207H97.4398C97.3844 58.915 97.3286 58.915 97.2733 58.9207C97.0822 58.9385 96.8977 58.9995 96.7336 59.0989C96.5694 59.1984 96.43 59.3338 96.3258 59.4949L95.0165 61.5507L91.1807 67.5743L89.8657 69.6301C89.7666 69.7931 89.7054 69.9762 89.6865 70.1661C89.6676 70.3559 89.6916 70.5475 89.7566 70.7269C89.8176 70.9018 89.9201 71.0594 90.0552 71.1862L94.0748 74.9991C94.2783 75.2132 94.4175 75.4802 94.4764 75.7696C94.5353 76.059 94.5115 76.3591 94.4079 76.6357C93.5458 78.6655 92.8206 80.7508 92.2373 82.8776C92.04 83.4965 91.6496 84.0358 91.1233 84.4165L88.9871 85.8406L83.5032 89.3492C83.2503 89.5302 83.039 89.7632 82.8836 90.0326C82.7281 90.302 82.632 90.6015 82.6017 90.9111L82.1825 100.346C82.1603 100.46 82.1715 100.579 82.2148 100.687C82.2581 100.796 82.3316 100.889 82.4266 100.957C82.5216 101.025 82.6341 101.064 82.7506 101.069C82.8672 101.075 82.9829 101.047 83.084 100.989L90.4974 98.0373C90.6145 97.9869 90.7414 97.9631 90.8688 97.9674C90.9963 97.9717 91.1213 98.004 91.2348 98.0622C91.3483 98.1203 91.4476 98.2028 91.5256 98.3037C91.6036 98.4046 91.6584 98.5214 91.686 98.6459C91.908 99.494 92.196 100.323 92.5474 101.127C92.7311 101.546 92.9264 101.942 93.1216 102.327C93.2631 102.598 93.3398 102.898 93.3458 103.204C93.3517 103.51 93.2868 103.813 93.156 104.09L87.8789 113.61C87.7478 113.853 87.7129 114.136 87.781 114.403C87.8491 114.67 88.0152 114.902 88.2464 115.052L93.3685 118.319C93.6013 118.465 93.8802 118.518 94.1503 118.468C94.4204 118.418 94.6619 118.269 94.8271 118.049L99.4209 111.779L101.281 109.24C101.478 109.006 101.725 108.819 102.005 108.695C102.285 108.57 102.589 108.512 102.895 108.523C104.216 108.608 105.543 108.533 106.846 108.299C106.97 108.271 107.099 108.271 107.223 108.298C107.348 108.326 107.465 108.38 107.565 108.458C107.666 108.536 107.749 108.635 107.807 108.749C107.865 108.862 107.898 108.987 107.902 109.114L108.35 117.084C108.348 117.185 108.368 117.284 108.408 117.376C108.447 117.468 108.506 117.551 108.58 117.619C108.623 117.651 108.672 117.674 108.723 117.687C108.818 117.718 108.919 117.727 109.018 117.716C109.117 117.704 109.213 117.671 109.298 117.619L117.676 113.266C117.808 113.195 117.929 113.106 118.037 113.002C118.155 112.89 118.261 112.767 118.353 112.634C118.539 112.381 118.661 112.088 118.709 111.779L119.938 102.729C120.063 102.093 120.386 101.514 120.863 101.075C122.547 99.6537 124.131 98.1189 125.606 96.4811C125.813 96.2701 126.075 96.1225 126.363 96.0554C126.651 95.9882 126.952 96.0045 127.231 96.1021L132.399 98.1636C132.667 98.2596 132.959 98.2637 133.229 98.1753C133.499 98.087 133.733 97.9111 133.892 97.6755L140.375 87.5633C140.52 87.3181 140.58 87.0317 140.544 86.749C140.509 86.4663 140.381 86.2034 140.18 86.0014L136.114 82.1885C135.911 81.9745 135.772 81.7075 135.713 81.4181C135.654 81.1286 135.677 80.8285 135.781 80.5519C136.646 78.5231 137.371 76.4376 137.952 74.3101C138.15 73.6919 138.541 73.153 139.066 72.7711L146.76 67.8557C147.014 67.6733 147.226 67.4393 147.382 67.1691C147.538 66.8989 147.636 66.5986 147.668 66.2881L148.087 56.8535C148.104 56.8018 148.098 56.7501 148.098 56.7042ZM128.104 78.9786C127.702 80.0124 127.245 81.0245 126.737 82.0105C125.716 84.0164 124.503 85.9184 123.114 87.6896C122.442 88.5541 121.725 89.3821 120.966 90.1703C119.071 92.2055 116.853 93.9147 114.403 95.2293C112.525 96.2841 110.422 96.8747 108.27 96.952C104.118 96.952 101.155 94.1669 100.477 89.3262C100.414 88.8668 100.374 88.3844 100.351 87.8849C100.351 87.6896 100.351 87.4886 100.351 87.2819V86.9431C100.351 86.7249 100.351 86.5125 100.351 86.2942C100.759 77.1066 107.713 66.1962 115.884 61.9641C116.131 61.832 116.372 61.7114 116.619 61.6023C116.74 61.5392 116.866 61.4875 116.981 61.4358L117.343 61.2865C117.784 61.1004 118.234 60.9374 118.692 60.7984C123.366 59.3743 127.128 60.8903 128.879 64.6515C129.722 66.6244 130.081 68.7707 129.924 70.9106C129.762 73.6813 129.147 76.4067 128.104 78.9786Z" fill="#8B4DC5"/>
<path d="M53.0238 70.7029L52.5645 81.0046C58.9269 77.4616 64.9276 72.1156 70.0325 65.7875L65.031 60.252C61.6909 64.4305 57.6231 67.9711 53.0238 70.7029Z" fill="#8B4DC5"/>
<path opacity="0.8" d="M53.0238 70.7029L52.5645 81.0046C58.9269 77.4616 64.9276 72.1156 70.0325 65.7875L65.031 60.252C61.6909 64.4305 57.6231 67.9711 53.0238 70.7029Z" fill="white"/>
<path d="M46.6376 66.6084L46.1782 76.9101L52.5637 81.0044L53.0231 70.7027L46.6376 66.6084Z" fill="#8B4DC5"/>
<path opacity="0.65" d="M46.6376 66.6084L46.1782 76.9101L52.5637 81.0044L53.0231 70.7027L46.6376 66.6084Z" fill="white"/>
<path d="M46.6376 66.6084L46.1782 76.9101L52.5637 81.0044L53.0231 70.7027L46.6376 66.6084Z" fill="#8B4DC5"/>
<path opacity="0.05" d="M46.6376 66.6084L46.1782 76.9101L52.5637 81.0044L53.0231 70.7027L46.6376 66.6084Z" fill="black"/>
<path d="M53.0227 70.7035C57.6219 67.9716 61.6897 64.431 65.0298 60.2525L58.6386 56.1582C55.2992 60.3353 51.2336 63.8756 46.6372 66.6092L53.0227 70.7035Z" fill="#8B4DC5"/>
<path opacity="0.6" d="M53.0227 70.7035C57.6219 67.9716 61.6897 64.431 65.0298 60.2525L58.6386 56.1582C55.2992 60.3353 51.2336 63.8756 46.6372 66.6092L53.0227 70.7035Z" fill="white"/>
<path d="M39.1212 73.7122L33.3789 84.8293C38.1508 86.0294 43.9447 85.2427 50.2843 82.1936L50.7436 71.8574C46.4082 73.9074 42.4345 74.4702 39.1212 73.7122Z" fill="#8B4DC5"/>
<path opacity="0.65" d="M39.1212 73.7122L33.3789 84.8293C38.1508 86.0294 43.9447 85.2427 50.2843 82.1936L50.7436 71.8574C46.4082 73.9074 42.4345 74.4702 39.1212 73.7122Z" fill="white"/>
<path d="M32.7296 69.6182L26.9873 80.7353L33.3785 84.8295L39.1208 73.7124L32.7296 69.6182Z" fill="#8B4DC5"/>
<path opacity="0.55" d="M32.7296 69.6182L26.9873 80.7353L33.3785 84.8295L39.1208 73.7124L32.7296 69.6182Z" fill="white"/>
<path d="M32.7296 69.6182L26.9873 80.7353L33.3785 84.8295L39.1208 73.7124L32.7296 69.6182Z" fill="#8B4DC5"/>
<path opacity="0.1" d="M32.7296 69.6182L26.9873 80.7353L33.3785 84.8295L39.1208 73.7124L32.7296 69.6182Z" fill="black"/>
<path d="M44.3509 67.792C40.0155 69.8133 36.0418 70.376 32.7285 69.618L39.1197 73.7123C42.433 74.4703 46.4067 73.9075 50.7421 71.8862L44.3509 67.792Z" fill="#8B4DC5"/>
<path opacity="0.55" d="M44.3509 67.792C40.0155 69.8133 36.0418 70.376 32.7285 69.618L39.1197 73.7123C42.433 74.4703 46.4067 73.9075 50.7421 71.8862L44.3509 67.792Z" fill="white"/>
<path d="M30.5543 65.6387L21.6997 73.3506C23.5315 78.7943 27.0056 82.5383 31.6052 84.261L37.3475 73.1553C34.2237 71.9035 31.8636 69.3195 30.5543 65.6387Z" fill="#8B4DC5"/>
<path opacity="0.55" d="M30.5543 65.6387L21.6997 73.3506C23.5315 78.7943 27.0056 82.5383 31.6052 84.261L37.3475 73.1553C34.2237 71.9035 31.8636 69.3195 30.5543 65.6387Z" fill="white"/>
<path d="M21.6983 73.3501L15.3071 69.2559C16.7312 73.4765 19.143 76.652 22.3013 78.7077L28.6867 82.802C25.5284 80.7692 23.1167 77.5707 21.6983 73.3501Z" fill="#8B4DC5"/>
<path opacity="0.45" d="M21.6983 73.3501L15.3071 69.2559C16.7312 73.4765 19.143 76.652 22.3013 78.7077L28.6867 82.802C25.5284 80.7692 23.1167 77.5707 21.6983 73.3501Z" fill="white"/>
<path d="M24.1618 61.5439L15.3071 69.2559L21.6983 73.3501L30.5529 65.6382L24.1618 61.5439Z" fill="#8B4DC5"/>
<path opacity="0.55" d="M24.1618 61.5439L15.3071 69.2559L21.6983 73.3501L30.5529 65.6382L24.1618 61.5439Z" fill="white"/>
<path d="M24.1618 61.5439L15.3071 69.2559L21.6983 73.3501L30.5529 65.6382L24.1618 61.5439Z" fill="#8B4DC5"/>
<path opacity="0.1" d="M24.1618 61.5439L15.3071 69.2559L21.6983 73.3501L30.5529 65.6382L24.1618 61.5439Z" fill="black"/>
<path d="M66.9429 57.783L71.9387 63.3128C76.8995 56.6609 80.7329 49.2385 83.2855 41.3428L74.718 42.6807C72.9277 48.0886 70.3044 53.184 66.9429 57.783Z" fill="#8B4DC5"/>
<path opacity="0.85" d="M66.9429 57.783L71.9387 63.3128C76.8995 56.6609 80.7329 49.2385 83.2855 41.3428L74.718 42.6807C72.9277 48.0886 70.3044 53.184 66.9429 57.783Z" fill="white"/>
<path d="M76.9225 37.248L68.355 38.586L74.7404 42.6803L83.3079 41.3423L76.9225 37.248Z" fill="#8B4DC5"/>
<path opacity="0.75" d="M76.9225 37.248L68.355 38.586L74.7404 42.6803L83.3079 41.3423L76.9225 37.248Z" fill="white"/>
<path d="M76.9225 37.248L68.355 38.586L74.7404 42.6803L83.3079 41.3423L76.9225 37.248Z" fill="#8B4DC5"/>
<path d="M68.3551 38.5859C66.5601 43.9956 63.9267 49.0898 60.5513 53.6825L66.9424 57.7767C70.3121 53.1792 72.9431 48.0838 74.7405 42.6745L68.3551 38.5859Z" fill="#8B4DC5"/>
<path opacity="0.65" d="M68.3551 38.5859C66.5601 43.9956 63.9267 49.0898 60.5513 53.6825L66.9424 57.7767C70.3121 53.1792 72.9431 48.0838 74.7405 42.6745L68.3551 38.5859Z" fill="white"/>
<path d="M66.9424 57.7827L60.5513 53.6885L65.5471 59.2183L71.9383 63.3126L66.9424 57.7827Z" fill="#8B4DC5"/>
<path opacity="0.75" d="M66.9424 57.7827L60.5513 53.6885L65.5471 59.2183L71.9383 63.3126L66.9424 57.7827Z" fill="white"/>
<path d="M66.9424 57.7827L60.5513 53.6885L65.5471 59.2183L71.9383 63.3126L66.9424 57.7827Z" fill="#8B4DC5"/>
<path d="M85.8464 27.6985C85.6606 31.3616 85.0831 34.9942 84.1237 38.5342L75.5562 39.9009C76.1935 37.4584 76.5783 34.957 76.7046 32.4359C76.7747 30.9503 76.7171 29.4614 76.5324 27.9856L83.9112 14.7783C84.095 15.209 84.2557 15.6684 84.4165 16.1278C84.4165 16.1278 84.7783 17.236 84.9908 18.2122C85.724 21.3178 86.0121 24.5118 85.8464 27.6985Z" fill="#8B4DC5"/>
<path opacity="0.9" d="M85.8464 27.6985C85.6606 31.3616 85.0831 34.9942 84.1237 38.5342L75.5562 39.9009C76.1935 37.4584 76.5783 34.957 76.7046 32.4359C76.7747 30.9503 76.7171 29.4614 76.5324 27.9856L83.9112 14.7783C84.095 15.209 84.2557 15.6684 84.4165 16.1278C84.4165 16.1278 84.7783 17.236 84.9908 18.2122C85.724 21.3178 86.0121 24.5118 85.8464 27.6985Z" fill="white"/>
<path d="M77.5366 10.6611L70.1577 23.8914L76.5489 27.9857L83.9278 14.7554L77.5366 10.6611Z" fill="#8B4DC5"/>
<path opacity="0.85" d="M77.5366 10.6611L70.1577 23.8914L76.5489 27.9857L83.9278 14.7554L77.5366 10.6611Z" fill="white"/>
<path d="M77.5366 10.6611L70.1577 23.8914L76.5489 27.9857L83.9278 14.7554L77.5366 10.6611Z" fill="#8B4DC5"/>
<path d="M76.5491 27.9859L70.158 23.8916C70.3447 25.3672 70.4043 26.8561 70.336 28.3419C70.2076 30.8533 69.8227 33.345 69.1875 35.7782L75.5557 39.9011C76.1931 37.4587 76.5779 34.9572 76.7042 32.4361C76.78 30.951 76.7281 29.4621 76.5491 27.9859Z" fill="#8B4DC5"/>
<path opacity="0.7" d="M76.761 28.1236L70.3756 24.0293C70.5632 25.5048 70.6208 26.994 70.5479 28.4796C70.4244 31.001 70.0395 33.5027 69.3994 35.9446L75.7849 40.0388C76.422 37.5963 76.8069 35.0949 76.9333 32.5738C77.0064 31.0882 76.9488 29.5991 76.761 28.1236Z" fill="white"/>
<path d="M83.0491 8.53663C82.9916 8.50218 79.9999 6.39475 79.9999 6.39475C79.9445 6.35549 79.8848 6.32273 79.8219 6.29713L73.8614 3.83368C73.5665 3.72016 73.2408 3.71563 72.9429 3.8209C72.6449 3.92617 72.3944 4.13433 72.2363 4.40791L48.1646 47.5671L38.5921 42.3071C38.3204 42.1617 38.0035 42.1252 37.7058 42.2053C37.4082 42.2853 37.1522 42.4757 36.99 42.7378L32.2928 50.1683C32.1407 50.413 32.0916 50.7079 32.1562 50.9887C32.2207 51.2695 32.3937 51.5134 32.6374 51.6671C32.6374 51.6671 35.2099 53.5104 35.6865 53.809C35.7053 53.8256 35.7266 53.8392 35.7497 53.8491L52.4024 63.0368C52.5343 63.11 52.6794 63.1565 52.8293 63.1736C52.9793 63.1908 53.1311 63.1782 53.2762 63.1366C53.4212 63.095 53.5566 63.0252 53.6747 62.9312C53.7928 62.8373 53.8912 62.7209 53.9643 62.5889L83.3591 9.89181C83.495 9.67026 83.5386 9.40429 83.4806 9.15095C83.4227 8.8976 83.2677 8.67706 83.0491 8.53663Z" fill="#263238"/>
<path d="M83.0497 8.53642C82.9923 8.50197 80.0006 6.39454 80.0006 6.39454C79.9452 6.35527 79.8855 6.32252 79.8226 6.29692L73.8621 3.83347C73.6823 3.76303 73.4893 3.73319 73.2967 3.74609C73.1041 3.759 72.9167 3.81433 72.748 3.90812L83.1474 10.2936L83.3713 9.88586C83.5043 9.66343 83.5452 9.39782 83.4851 9.14572C83.425 8.89361 83.2688 8.67496 83.0497 8.53642Z" fill="#455A64"/>
<path d="M82.8717 8.44475L76.9055 5.9813C76.6113 5.86933 76.2869 5.86561 75.9903 5.97081C75.6936 6.076 75.4441 6.28326 75.2862 6.55553L51.2087 49.7204L41.642 44.4605C41.3712 44.3131 41.0543 44.275 40.7564 44.3541C40.4584 44.4331 40.202 44.6232 40.0399 44.8854L35.3427 52.3504C35.2636 52.4769 35.2113 52.6183 35.189 52.7659C35.1667 52.9134 35.1749 53.064 35.2131 53.2082C35.2514 53.3524 35.3187 53.4873 35.4112 53.6045C35.5036 53.7216 35.619 53.8186 35.7504 53.8893L52.4031 63.077C52.535 63.1502 52.6801 63.1967 52.83 63.2138C52.98 63.2309 53.1318 63.2183 53.2768 63.1768C53.4219 63.1352 53.5573 63.0654 53.6754 62.9714C53.7935 62.8774 53.8919 62.7611 53.965 62.6291L83.3598 9.932C83.4438 9.80666 83.4981 9.66383 83.5186 9.51437C83.5392 9.36491 83.5254 9.21273 83.4783 9.06939C83.4313 8.92604 83.3522 8.7953 83.2471 8.68707C83.142 8.57884 83.0136 8.49597 82.8717 8.44475Z" fill="#37474F"/>
<path d="M48.1662 47.5619L51.2039 49.7153L41.643 44.4496C41.3713 44.2997 41.0517 44.2626 40.7529 44.3462L37.7095 42.1986C37.8563 42.1561 38.0102 42.1433 38.1621 42.1611C38.3139 42.1788 38.4607 42.2267 38.5938 42.3019L48.1662 47.5619Z" fill="#455A64"/>
<path d="M29.4111 57.0187C29.5374 54.4976 29.9222 51.9962 30.5595 49.5537L22.015 50.9204C21.0555 54.4604 20.4779 58.093 20.2923 61.7561C20.1159 64.9487 20.3924 68.1502 21.1135 71.2654L29.9566 63.5649C29.4849 61.4168 29.3015 59.2153 29.4111 57.0187Z" fill="#8B4DC5"/>
<path d="M29.4111 57.0187C29.5374 54.4976 29.9222 51.9962 30.5595 49.5537L22.015 50.9204C21.0555 54.4604 20.4779 58.093 20.2923 61.7561C20.1159 64.9487 20.3924 68.1502 21.1135 71.2654L29.9566 63.5649C29.4849 61.4168 29.3015 59.2153 29.4111 57.0187Z" fill="#8B4DC5"/>
<path d="M24.1848 45.4883L15.623 46.8262L22.0142 50.9205L30.576 49.5825L24.1848 45.4883Z" fill="#8B4DC5"/>
<path opacity="0.15" d="M24.1848 45.4883L15.623 46.8262L22.0142 50.9205L30.576 49.5825L24.1848 45.4883Z" fill="black"/>
<path d="M22.0145 50.9204L15.6233 46.8262C14.6693 50.3674 14.0918 53.9994 13.9006 57.6619C13.7261 60.8548 14.0045 64.0563 14.7275 67.1712L21.1129 71.2654C20.3918 68.1503 20.1154 64.9488 20.2918 61.7562C20.4774 58.0931 21.0549 54.4605 22.0145 50.9204Z" fill="#8B4DC5"/>
<path opacity="0.3" d="M22.0145 50.9204L15.6233 46.8262C14.6693 50.3674 14.0918 53.9994 13.9006 57.6619C13.7261 60.8548 14.0045 64.0563 14.7275 67.1712L21.1129 71.2654C20.3918 68.1503 20.1154 64.9488 20.2918 61.7562C20.4774 58.0931 21.0549 54.4605 22.0145 50.9204Z" fill="white"/>
<path d="M67.0061 15.7487L72.7484 4.60862C67.787 3.38551 61.9012 4.36744 55.8316 7.27879L55.3779 17.5575C59.5468 15.6224 63.5665 14.9792 67.0061 15.7487Z" fill="#8B4DC5"/>
<path opacity="0.3" d="M67.0061 15.7487L72.7484 4.60862C67.787 3.38551 61.9012 4.36744 55.8316 7.27879L55.3779 17.5575C59.5468 15.6224 63.5665 14.9792 67.0061 15.7487Z" fill="black"/>
<path d="M49.4569 3.18457L48.9976 13.4633L55.3887 17.5576L55.8481 7.27883L49.4569 3.18457Z" fill="#8B4DC5"/>
<path opacity="0.42" d="M49.4569 3.18457L48.9976 13.4633L55.3887 17.5576L55.8481 7.27883L49.4569 3.18457Z" fill="black"/>
<path d="M55.842 7.2793C61.9116 4.36796 67.7975 3.38602 72.7588 4.60913L66.3734 0.514872C61.412 -0.708239 55.5204 0.273696 49.4565 3.18504L55.842 7.2793Z" fill="#8B4DC5"/>
<path opacity="0.2" d="M55.842 7.2793C61.9116 4.36796 67.7975 3.38602 72.7588 4.60913L66.3734 0.514872C61.412 -0.708239 55.5204 0.273696 49.4565 3.18504L55.842 7.2793Z" fill="black"/>
<path d="M53.1088 18.7529L53.5624 8.45117C47.2057 11.9942 41.205 17.3345 36.1001 23.6683L41.1016 29.1981C44.4435 25.0228 48.5109 21.4844 53.1088 18.7529Z" fill="#8B4DC5"/>
<path opacity="0.2" d="M53.1088 18.7529L53.5624 8.45117C47.2057 11.9942 41.205 17.3345 36.1001 23.6683L41.1016 29.1981C44.4435 25.0228 48.5109 21.4844 53.1088 18.7529Z" fill="black"/>
<path d="M47.1776 4.35645C40.7921 7.89945 34.8144 13.2398 29.7095 19.5735L36.1007 23.6678C41.2056 17.3513 47.2063 11.9937 53.563 8.45071L47.1776 4.35645Z" fill="#8B4DC5"/>
<path opacity="0.1" d="M47.1776 4.35645C40.7921 7.89945 34.8144 13.2398 29.7095 19.5735L36.1007 23.6678C41.2056 17.3513 47.2063 11.9937 53.563 8.45071L47.1776 4.35645Z" fill="black"/>
<path d="M36.1007 23.6675L29.7095 19.5732L34.711 25.1031L41.1022 29.1973L36.1007 23.6675Z" fill="#8B4DC5"/>
<path opacity="0.35" d="M36.1007 23.6675L29.7095 19.5732L34.711 25.1031L41.1022 29.1973L36.1007 23.6675Z" fill="black"/>
<path d="M39.1902 31.6672L34.1944 26.1201C29.2236 32.7787 25.3806 40.2086 22.8188 48.1131L31.3921 46.7924C33.1866 41.3748 35.8178 36.2713 39.1902 31.6672Z" fill="#8B4DC5"/>
<path opacity="0.1" d="M39.1902 31.6672L34.1944 26.1201C29.2236 32.7787 25.3806 40.2086 22.8188 48.1131L31.3921 46.7924C33.1866 41.3748 35.8178 36.2713 39.1902 31.6672Z" fill="black"/>
<path d="M22.8185 48.1131C25.3803 40.2086 29.2233 32.7787 34.1941 26.1201L27.8029 22.0488C22.8339 28.6992 18.9927 36.1216 16.4331 44.0189L22.8185 48.1131Z" fill="#8B4DC5"/>
<path d="M143.954 164.145L140.302 166.253C140.096 166.358 139.867 166.412 139.636 166.412C139.404 166.412 139.176 166.358 138.97 166.253L137.821 165.581C137.635 165.459 137.488 165.286 137.398 165.082C137.308 164.878 137.28 164.652 137.316 164.432L149.467 106.923C149.587 106.451 149.88 106.041 150.288 105.775L153.946 103.662C154.152 103.56 154.379 103.507 154.609 103.507C154.839 103.507 155.066 103.56 155.272 103.662L156.421 104.339C156.611 104.457 156.761 104.63 156.852 104.835C156.942 105.04 156.968 105.268 156.926 105.488L144.781 163.008C144.655 163.476 144.36 163.881 143.954 164.145Z" fill="#455A64"/>
<path d="M143.954 164.145L140.302 166.252C139.934 166.465 139.727 166.304 139.791 165.885L151.941 108.376C152.062 107.904 152.355 107.494 152.762 107.227L156.42 105.114C156.788 104.901 156.995 105.068 156.926 105.481L144.781 163.008C144.654 163.476 144.36 163.88 143.954 164.145Z" fill="#263238"/>
<path d="M142.008 160.39L143.087 155.256L145.58 153.82L168.669 167.148L169.749 173.534L167.262 174.969L142.008 160.39Z" fill="#37474F"/>
<path d="M167.262 174.969L142.008 160.389L143.087 155.256L166.177 168.584L167.262 174.969Z" fill="#455A64"/>
<path d="M171.39 179.976L167.732 182.084C167.527 182.188 167.299 182.243 167.069 182.243C166.838 182.243 166.611 182.188 166.405 182.084L165.257 181.412C164.853 181.147 164.569 180.735 164.465 180.263L152.228 108.381C152.199 108.159 152.234 107.933 152.328 107.729C152.423 107.526 152.573 107.354 152.762 107.233L156.42 105.12C156.626 105.015 156.854 104.96 157.086 104.96C157.317 104.96 157.545 105.015 157.752 105.12L158.9 105.791C159.305 106.056 159.589 106.468 159.693 106.94L171.901 178.828C171.933 179.048 171.902 179.273 171.811 179.476C171.721 179.679 171.575 179.853 171.39 179.976Z" fill="#37474F"/>
<path d="M152.23 108.381L152.689 111.103L164.438 180.275C164.54 180.746 164.822 181.158 165.224 181.423L166.373 182.101C166.579 182.203 166.806 182.256 167.036 182.256C167.266 182.256 167.493 182.203 167.699 182.101L171.351 179.988C171.54 179.866 171.691 179.694 171.786 179.491C171.882 179.288 171.918 179.062 171.891 178.839L159.752 107.193L159.712 106.946C159.604 106.476 159.32 106.065 158.919 105.797L157.771 105.125C157.565 105.02 157.336 104.966 157.105 104.966C156.873 104.966 156.645 105.02 156.439 105.125L152.781 107.233C152.59 107.353 152.437 107.524 152.339 107.727C152.242 107.931 152.204 108.157 152.23 108.381Z" fill="#37474F"/>
<path d="M159.705 106.946L171.913 178.834C171.943 179.057 171.909 179.283 171.814 179.486C171.719 179.69 171.569 179.862 171.379 179.983L167.722 182.09C167.649 182.143 167.564 182.175 167.475 182.183C167.386 182.192 167.296 182.176 167.215 182.138C167.134 182.1 167.065 182.041 167.014 181.966C166.964 181.892 166.935 181.806 166.929 181.717L154.738 109.823C154.711 109.601 154.747 109.376 154.841 109.173C154.936 108.97 155.085 108.797 155.272 108.675L158.93 106.567C159.003 106.519 159.087 106.49 159.174 106.485C159.261 106.479 159.348 106.496 159.426 106.534C159.505 106.572 159.572 106.631 159.621 106.703C159.67 106.775 159.699 106.859 159.705 106.946Z" fill="#455A64"/>
<path opacity="0.15" d="M148.858 109.737L150.776 110.845C151.366 111.147 152.04 111.238 152.689 111.104C152.948 111.058 153.198 110.97 153.429 110.845L159.746 107.193L159.706 106.946C159.598 106.476 159.314 106.065 158.913 105.798L157.765 105.126C157.558 105.021 157.33 104.966 157.099 104.966C156.867 104.966 156.639 105.021 156.432 105.126C156.524 104.712 156.8 104.552 156.432 104.356L155.284 103.69C155.079 103.583 154.85 103.526 154.618 103.526C154.386 103.526 154.157 103.583 153.952 103.69L150.294 105.798C149.886 106.064 149.593 106.474 149.473 106.946L148.858 109.737Z" fill="black"/>
<path d="M146.642 105.257C146.657 105.087 146.719 104.925 146.82 104.787C146.921 104.649 147.058 104.542 147.216 104.476L154.532 100.256C154.944 100.047 155.399 99.9375 155.861 99.9375C156.323 99.9375 156.778 100.047 157.19 100.256L160.774 102.323C160.928 102.387 161.062 102.491 161.163 102.624C161.264 102.758 161.328 102.915 161.348 103.081V104.746C161.331 104.915 161.269 105.075 161.168 105.211C161.066 105.347 160.93 105.452 160.774 105.516L153.458 109.736C153.046 109.946 152.59 110.055 152.128 110.055C151.666 110.055 151.211 109.946 150.799 109.736L147.216 107.669C147.06 107.607 146.924 107.504 146.823 107.37C146.722 107.237 146.659 107.078 146.642 106.911C146.636 106.63 146.642 105.527 146.642 105.257Z" fill="#37474F"/>
<path d="M146.642 105.257C146.657 105.087 146.719 104.924 146.82 104.787C146.921 104.649 147.058 104.542 147.216 104.476L152.131 101.646V110.058C151.667 110.066 151.209 109.955 150.799 109.736L147.216 107.669C147.06 107.607 146.924 107.504 146.823 107.37C146.722 107.237 146.659 107.078 146.642 106.911C146.636 106.63 146.642 105.527 146.642 105.257Z" fill="#263238"/>
<path d="M153.429 108.083L160.745 103.856C161.48 103.431 161.48 102.748 160.745 102.323L157.162 100.256C156.75 100.047 156.295 99.9375 155.833 99.9375C155.371 99.9375 154.915 100.047 154.503 100.256L147.188 104.476C146.458 104.901 146.458 105.59 147.188 106.01L150.771 108.083C151.183 108.289 151.639 108.397 152.1 108.397C152.562 108.397 153.017 108.289 153.429 108.083Z" fill="#455A64"/>
<path d="M158.017 96.357L155.548 94.9042C154.842 94.5424 153.894 94.6458 152.872 95.3061C151.797 96.084 150.92 97.1045 150.314 98.2849C149.707 99.4653 149.387 100.772 149.381 102.099C149.438 103.311 149.903 104.144 150.61 104.511L153.085 105.964C153.791 106.326 154.738 106.217 155.761 105.562C156.836 104.784 157.713 103.764 158.321 102.583C158.929 101.403 159.249 100.096 159.258 98.7687C159.189 97.5858 158.724 96.7245 158.017 96.357Z" fill="#455A64"/>
<path d="M153.016 105.935L150.592 104.505C149.886 104.138 149.444 103.305 149.364 102.099C149.342 100.92 149.595 99.7523 150.104 98.6885L152.574 100.141C152.065 101.205 151.811 102.373 151.833 103.552C151.867 104.729 152.338 105.556 153.016 105.935Z" fill="#263238"/>
<path d="M155.755 105.562C156.831 104.784 157.708 103.764 158.316 102.584C158.924 101.404 159.244 100.097 159.253 98.7692C159.132 96.3345 157.375 95.4329 155.331 96.7537C154.255 97.5312 153.377 98.5516 152.769 99.7319C152.162 100.912 151.841 102.219 151.833 103.547C151.954 105.976 153.705 106.883 155.755 105.562Z" fill="#37474F"/>
<path d="M154.039 105.39C152.833 105.453 152.638 104.092 152.609 103.506C152.626 102.315 152.919 101.145 153.464 100.086C154.009 99.0267 154.791 98.1082 155.75 97.4021C156.135 97.1368 156.578 96.9711 157.042 96.9197C158.254 96.8623 158.449 98.2232 158.478 98.809C158.458 100.002 158.162 101.174 157.613 102.233C157.064 103.292 156.277 104.209 155.314 104.913C154.929 105.18 154.483 105.345 154.016 105.39H154.039Z" fill="#263238"/>
<path d="M155.75 97.4018C156.095 97.167 156.487 97.0103 156.899 96.9424C157.105 97.3408 157.219 97.7804 157.232 98.2287C157.214 99.4192 156.92 100.589 156.376 101.648C155.831 102.707 155.049 103.626 154.091 104.333C153.746 104.567 153.354 104.724 152.942 104.792C152.734 104.395 152.62 103.955 152.609 103.506C152.626 102.315 152.919 101.144 153.464 100.085C154.009 99.0264 154.791 98.1079 155.75 97.4018Z" fill="#8B4DC5"/>
<path d="M86.6068 197.249L82.9604 199.362C82.755 199.467 82.5277 199.521 82.2972 199.521C82.0666 199.521 81.8393 199.467 81.6339 199.362L80.4855 198.69C80.2989 198.568 80.1518 198.395 80.0621 198.191C79.9724 197.987 79.9439 197.761 79.9801 197.542L92.1021 140.078C92.222 139.606 92.5151 139.196 92.9233 138.93L96.5811 136.817C96.7865 136.712 97.0138 136.657 97.2444 136.657C97.475 136.657 97.7023 136.712 97.9076 136.817L99.0561 137.489C99.2426 137.61 99.3897 137.784 99.4794 137.988C99.5692 138.192 99.5976 138.417 99.5614 138.637L87.4336 196.118C87.3065 196.583 87.0121 196.986 86.6068 197.249Z" fill="#455A64"/>
<path d="M86.608 197.249L82.9616 199.363C82.5998 199.575 82.3874 199.409 82.4563 198.995L94.607 141.486C94.7273 141.014 95.0204 140.604 95.4281 140.337L99.086 138.224C99.4535 138.012 99.6602 138.178 99.5913 138.592L87.4348 196.118C87.3077 196.584 87.0133 196.987 86.608 197.249Z" fill="#263238"/>
<path d="M84.5913 193.586L85.6766 188.452L88.1688 187.017L111.253 200.345L112.338 206.73L109.846 208.166L84.5913 193.586Z" fill="#37474F"/>
<path d="M109.846 208.165L84.5913 193.586L85.6766 188.452L108.766 201.78L109.846 208.165Z" fill="#455A64"/>
<path d="M114.032 213.086L110.374 215.194C110.169 215.299 109.942 215.353 109.711 215.353C109.481 215.353 109.253 215.299 109.048 215.194L107.899 214.522C107.496 214.257 107.211 213.845 107.107 213.373L94.8989 141.48C94.8655 141.257 94.8984 141.029 94.9933 140.825C95.0883 140.621 95.2412 140.449 95.433 140.331L99.0908 138.218C99.2972 138.113 99.5254 138.059 99.7569 138.059C99.9884 138.059 100.217 138.113 100.423 138.218L101.571 138.89C101.976 139.154 102.26 139.567 102.364 140.038L114.543 211.944C114.573 212.163 114.541 212.386 114.45 212.588C114.36 212.79 114.215 212.962 114.032 213.086Z" fill="#37474F"/>
<path d="M94.8804 141.492L95.3398 144.208L107.077 213.38C107.179 213.85 107.462 214.263 107.864 214.528L109.012 215.206C109.22 215.307 109.447 215.36 109.678 215.36C109.909 215.36 110.137 215.307 110.344 215.206L113.997 213.092C114.185 212.971 114.336 212.799 114.432 212.596C114.527 212.393 114.563 212.167 114.536 211.944L102.403 140.303L102.363 140.056C102.256 139.585 101.973 139.174 101.57 138.908L100.422 138.236C100.215 138.131 99.9872 138.076 99.7557 138.076C99.5242 138.076 99.2959 138.131 99.0896 138.236L95.4317 140.343C95.2408 140.463 95.0877 140.635 94.9902 140.838C94.8926 141.041 94.8546 141.268 94.8804 141.492Z" fill="#37474F"/>
<path d="M102.358 140.078L114.543 211.943C114.571 212.166 114.536 212.391 114.441 212.595C114.347 212.798 114.197 212.97 114.009 213.092L110.351 215.199C110.278 215.252 110.193 215.284 110.104 215.293C110.015 215.301 109.925 215.285 109.844 215.247C109.763 215.209 109.694 215.15 109.644 215.076C109.593 215.002 109.564 214.915 109.558 214.826L97.3733 142.95C97.345 142.727 97.3801 142.502 97.4746 142.298C97.5691 142.095 97.7191 141.923 97.9073 141.801L101.565 139.694C101.638 139.641 101.725 139.608 101.815 139.601C101.905 139.593 101.995 139.609 102.077 139.649C102.158 139.688 102.227 139.749 102.277 139.825C102.326 139.9 102.354 139.988 102.358 140.078Z" fill="#455A64"/>
<path opacity="0.15" d="M91.5112 142.847L93.4292 143.955C94.0183 144.257 94.6939 144.346 95.3413 144.208C95.6009 144.166 95.8515 144.081 96.0821 143.955L102.399 140.303L102.358 140.056C102.252 139.585 101.968 139.174 101.566 138.908L100.418 138.236C100.211 138.131 99.9829 138.076 99.7514 138.076C99.5199 138.076 99.2917 138.131 99.0853 138.236C99.1772 137.822 99.4528 137.661 99.0853 137.466L97.9369 136.794C97.7305 136.689 97.5023 136.635 97.2708 136.635C97.0393 136.635 96.811 136.689 96.6047 136.794L92.9238 138.93C92.5145 139.195 92.221 139.606 92.1027 140.079L91.5112 142.847Z" fill="black"/>
<path d="M89.2759 138.356C89.2886 138.189 89.3459 138.028 89.4419 137.891C89.5378 137.754 89.6689 137.645 89.8214 137.575L97.1371 133.355C97.549 133.145 98.0044 133.036 98.4664 133.036C98.9284 133.036 99.3839 133.145 99.7958 133.355L103.379 135.422C103.533 135.486 103.668 135.59 103.769 135.723C103.87 135.856 103.933 136.014 103.953 136.18V137.845C103.937 138.013 103.874 138.174 103.773 138.31C103.672 138.445 103.536 138.551 103.379 138.614L96.0633 142.835C95.6514 143.044 95.1959 143.153 94.7339 143.153C94.2719 143.153 93.8165 143.044 93.4046 142.835L89.8214 140.768C89.671 140.702 89.5411 140.597 89.4452 140.463C89.3492 140.33 89.2908 140.173 89.2759 140.01C89.2759 139.74 89.2759 138.637 89.2759 138.356Z" fill="#37474F"/>
<path d="M89.2759 138.356C89.2886 138.189 89.3459 138.028 89.4419 137.891C89.5378 137.753 89.6689 137.644 89.8214 137.575L94.7368 134.738V143.156C94.2726 143.165 93.814 143.054 93.4046 142.835L89.8214 140.768C89.671 140.702 89.5411 140.596 89.4452 140.463C89.3492 140.33 89.2908 140.173 89.2759 140.01C89.2759 139.74 89.2759 138.637 89.2759 138.356Z" fill="#263238"/>
<path d="M96.0801 141.187L103.396 136.967C104.125 136.542 104.125 135.858 103.396 135.433L99.8126 133.366C99.4007 133.157 98.9452 133.048 98.4832 133.048C98.0212 133.048 97.5658 133.157 97.1539 133.366L89.8497 137.587C89.1204 138.012 89.1204 138.701 89.8497 139.12L93.4329 141.187C93.8433 141.395 94.2967 141.503 94.7565 141.503C95.2163 141.503 95.6697 141.395 96.0801 141.187Z" fill="#455A64"/>
<path d="M100.669 129.467L98.1995 128.014C97.4932 127.658 96.5457 127.761 95.5235 128.422C94.449 129.199 93.5729 130.219 92.9663 131.398C92.3597 132.577 92.0397 133.883 92.0322 135.209C92.0896 136.427 92.5548 137.259 93.2611 137.621L95.7303 139.074C96.4366 139.436 97.384 139.326 98.4062 138.672C99.4839 137.896 100.363 136.876 100.972 135.695C101.58 134.515 101.902 133.207 101.909 131.879C101.84 130.667 101.375 129.834 100.669 129.467Z" fill="#455A64"/>
<path d="M95.6738 139.039L93.2506 137.615C92.5443 137.247 92.1021 136.415 92.0217 135.209C92.0007 134.03 92.2522 132.863 92.7567 131.798L95.2317 133.251C94.7228 134.315 94.4691 135.482 94.4909 136.662C94.5426 137.839 95.0192 138.66 95.6738 139.039Z" fill="#263238"/>
<path d="M98.4064 138.672C99.4841 137.895 100.363 136.875 100.972 135.695C101.581 134.514 101.902 133.207 101.909 131.879C101.794 129.444 100.037 128.542 97.9929 129.863C96.9179 130.637 96.0401 131.653 95.4306 132.829C94.8211 134.006 94.4969 135.309 94.4844 136.633C94.605 139.085 96.3564 139.992 98.4064 138.672Z" fill="#37474F"/>
<path d="M96.6896 138.499C95.4837 138.562 95.2885 137.201 95.2598 136.616C95.2764 135.425 95.5687 134.254 96.1136 133.195C96.6586 132.136 97.4414 131.217 98.4008 130.511C98.7849 130.246 99.2289 130.08 99.6928 130.029C100.904 129.972 101.1 131.327 101.128 131.918C101.111 133.109 100.819 134.28 100.274 135.339C99.729 136.398 98.9464 137.316 97.9874 138.022C97.6028 138.29 97.1559 138.454 96.6896 138.499Z" fill="#263238"/>
<path d="M98.4008 130.512C98.7457 130.277 99.1376 130.121 99.5493 130.053C99.7553 130.451 99.8691 130.891 99.8823 131.339C99.8639 132.53 99.5709 133.7 99.0261 134.759C98.4813 135.817 97.6994 136.736 96.7413 137.443C96.3964 137.678 96.0045 137.835 95.5928 137.902C95.3813 137.506 95.2672 137.065 95.2598 136.616C95.2764 135.425 95.5687 134.254 96.1136 133.195C96.6586 132.136 97.4414 131.218 98.4008 130.512Z" fill="#8B4DC5"/>
<path d="M92.2576 150.811L169.537 106.193L168.28 105.47L91 150.087L92.2576 150.811Z" fill="#8B4DC5"/>
<path opacity="0.4" d="M92.2576 150.811L169.537 106.193L168.28 105.47L91 150.087L92.2576 150.811Z" fill="white"/>
<path d="M92.2568 150.811L96.0123 173.126L173.292 128.508L169.537 106.193L92.2568 150.811Z" fill="#8B4DC5"/>
<path d="M91 150.088L94.7555 172.402L96.013 173.126L92.2576 150.811L91 150.088Z" fill="#37474F"/>
<path d="M91.7847 154.739L93.8576 167.079L95.1152 167.803L93.0422 155.463L91.7847 154.739Z" fill="#8B4DC5"/>
<path opacity="0.2" d="M91.7847 154.739L93.8576 167.079L95.1152 167.803L93.0422 155.463" fill="black"/>
<path d="M99.3486 146.717L96.0123 173.126L92.2568 150.811L99.3486 146.717Z" fill="#37474F"/>
<path d="M166.201 132.602L169.537 106.193L173.292 128.508L166.201 132.602Z" fill="#37474F"/>
<path d="M108.984 165.638L112.326 139.224L104.649 143.651L101.312 170.06L108.984 165.638Z" fill="#37474F"/>
<path d="M121.961 158.144L125.303 131.735L117.626 136.163L114.29 162.572L121.961 158.144Z" fill="#37474F"/>
<path d="M134.938 150.65L138.28 124.241L130.603 128.669L127.267 155.077L134.938 150.65Z" fill="#37474F"/>
<path d="M147.918 143.163L151.26 116.748L143.583 121.175L140.247 147.584L147.918 143.163Z" fill="#37474F"/>
<path d="M160.901 135.669L164.237 109.26L156.56 113.687L153.224 140.096L160.901 135.669Z" fill="#37474F"/>
<path d="M104.649 143.651L103.392 142.927L111.069 138.5L112.327 139.224L104.649 143.651Z" fill="#455A64"/>
<path d="M117.626 136.162L116.369 135.433L124.046 131.006L125.304 131.735L117.626 136.162Z" fill="#455A64"/>
<path d="M130.603 128.668L129.346 127.945L137.023 123.518L138.281 124.241L130.603 128.668Z" fill="#455A64"/>
<path d="M143.581 121.175L142.323 120.452L150.001 116.024L151.258 116.748L143.581 121.175Z" fill="#455A64"/>
<path d="M156.559 113.687L155.302 112.958L162.979 108.53L164.237 109.26L156.559 113.687Z" fill="#455A64"/>
<path d="M92.2576 150.811L91 150.087L98.0917 145.993L99.3493 146.717L92.2576 150.811Z" fill="#455A64"/>
<path d="M93.0444 155.462L95.1174 167.803L172.397 123.185L170.324 110.845L93.0444 155.462Z" fill="#8B4DC5"/>
<path d="M125.921 144.459C125.892 144.161 125.198 141.385 125.152 141.075L123.594 141.984C123.594 141.984 124.539 145.194 124.503 146.247C124.459 147.51 123.016 147.929 122.566 147.564C122.007 147.111 121.712 142.936 121.712 142.936L120.334 143.784C120.38 144.077 120.695 146.199 120.747 146.509C120.799 146.819 120.844 147.101 120.902 147.365C120.962 147.693 121.085 148.007 121.264 148.29C121.411 148.536 121.626 148.736 121.884 148.864C122.156 148.985 122.456 149.026 122.751 148.984C123.134 148.926 123.501 148.791 123.83 148.588C124.207 148.369 124.55 148.097 124.847 147.778C125.123 147.473 125.353 147.128 125.53 146.756C125.704 146.393 125.824 146.006 125.886 145.608C125.949 145.228 125.96 144.842 125.921 144.459Z" fill="#FAFAFA"/>
<path d="M129.27 139.607C129.1 139.698 128.95 139.821 128.828 139.969C128.716 140.094 128.627 140.238 128.563 140.394C128.5 140.539 128.461 140.694 128.449 140.853C128.434 141.013 128.434 141.175 128.449 141.335C128.451 141.457 128.463 141.577 128.483 141.697L128.552 142.168C128.552 142.329 128.604 142.484 128.638 142.633C128.673 142.782 128.69 142.903 128.707 142.983C128.739 143.12 128.789 143.251 128.856 143.374C128.907 143.48 128.987 143.569 129.086 143.632C129.191 143.696 129.314 143.723 129.436 143.707C129.602 143.689 129.762 143.632 129.901 143.54C130.041 143.461 130.17 143.365 130.286 143.253C130.404 143.146 130.503 143.02 130.579 142.88C130.66 142.737 130.716 142.582 130.746 142.421C130.775 142.24 130.855 142.067 130.826 141.886C130.814 141.81 130.808 141.667 130.746 141.243C130.682 141.283 130.776 141.174 130.746 141.243L131.917 140.651C131.942 140.635 131.971 140.627 132 140.627C132.03 140.627 132.059 140.635 132.084 140.651C132.11 140.667 132.131 140.688 132.147 140.714C132.163 140.74 132.173 140.769 132.176 140.8L132.227 140.945C132.302 141.357 132.302 141.779 132.227 142.191C132.154 142.592 132.02 142.979 131.831 143.339C131.449 144.057 130.875 144.654 130.171 145.062C129.845 145.262 129.482 145.393 129.103 145.447C128.808 145.487 128.508 145.443 128.236 145.32C127.976 145.192 127.757 144.993 127.605 144.746C127.428 144.465 127.306 144.153 127.243 143.827C127.191 143.569 127.139 143.282 127.093 142.972C127.047 142.662 127.002 142.369 126.967 142.082C126.922 141.7 126.931 141.313 126.996 140.933C127.063 140.536 127.185 140.149 127.358 139.785C127.536 139.41 127.768 139.064 128.047 138.757C128.335 138.436 128.672 138.163 129.046 137.947C129.366 137.752 129.721 137.621 130.091 137.563C130.376 137.525 130.666 137.548 130.941 137.632C131.162 137.715 131.359 137.851 131.515 138.028C131.663 138.191 131.767 138.388 131.819 138.602C131.841 138.661 131.841 138.726 131.819 138.786C131.795 138.844 131.753 138.892 131.699 138.924L130.631 139.538C130.599 139.557 130.564 139.567 130.527 139.567C130.491 139.567 130.455 139.557 130.424 139.538L130.263 139.44C130.161 139.358 130.038 139.306 129.907 139.291C129.664 139.318 129.438 139.43 129.27 139.607Z" fill="#FAFAFA"/>
<path d="M135.268 136.329C135.099 136.419 134.949 136.542 134.826 136.69C134.715 136.816 134.626 136.96 134.562 137.115C134.498 137.261 134.46 137.416 134.447 137.575C134.433 137.735 134.433 137.897 134.447 138.057C134.45 138.178 134.461 138.299 134.482 138.419L134.551 138.89C134.551 139.05 134.602 139.205 134.637 139.355C134.671 139.504 134.688 139.625 134.706 139.705C134.738 139.841 134.788 139.973 134.855 140.096C134.906 140.201 134.985 140.291 135.085 140.354C135.189 140.418 135.313 140.444 135.435 140.429C135.601 140.41 135.76 140.353 135.9 140.262C136.04 140.183 136.169 140.086 136.285 139.975C136.403 139.868 136.502 139.742 136.578 139.602C136.658 139.459 136.715 139.304 136.744 139.142C136.773 138.962 136.853 138.789 136.824 138.608C136.813 138.532 136.807 138.389 136.744 137.964C136.681 138.005 136.774 137.896 136.744 137.964L137.916 137.372C137.941 137.357 137.97 137.349 137.999 137.349C138.028 137.349 138.057 137.357 138.082 137.372C138.108 137.388 138.13 137.41 138.146 137.436C138.162 137.462 138.172 137.491 138.174 137.522L138.226 137.667C138.3 138.079 138.3 138.501 138.226 138.913C138.152 139.313 138.019 139.701 137.829 140.061C137.448 140.779 136.873 141.376 136.17 141.784C135.844 141.984 135.48 142.115 135.102 142.168C134.807 142.209 134.506 142.165 134.235 142.042C133.975 141.913 133.756 141.714 133.603 141.468C133.427 141.187 133.304 140.875 133.241 140.549C133.19 140.291 133.138 140.004 133.092 139.694C133.046 139.383 133 139.091 132.966 138.804C132.92 138.421 132.93 138.035 132.994 137.655C133.062 137.257 133.184 136.871 133.356 136.507C133.534 136.132 133.767 135.786 134.045 135.479C134.333 135.158 134.67 134.884 135.044 134.669C135.364 134.474 135.719 134.343 136.089 134.284C136.374 134.246 136.664 134.27 136.939 134.353C137.16 134.437 137.357 134.573 137.514 134.749C137.661 134.913 137.766 135.11 137.818 135.324C137.84 135.383 137.84 135.448 137.818 135.507C137.794 135.565 137.751 135.614 137.697 135.645L136.629 136.26C136.598 136.278 136.562 136.288 136.526 136.288C136.489 136.288 136.454 136.278 136.423 136.26L136.262 136.162C136.16 136.08 136.036 136.028 135.906 136.013C135.663 136.04 135.437 136.152 135.268 136.329Z" fill="#FAFAFA"/>
<path d="M143.768 135.877C143.794 135.863 143.822 135.856 143.851 135.856C143.88 135.856 143.909 135.863 143.935 135.877C143.96 135.893 143.982 135.915 143.998 135.941C144.014 135.967 144.024 135.996 144.026 136.027L144.193 137.072C144.204 137.148 144.192 137.226 144.159 137.296C144.132 137.366 144.081 137.425 144.015 137.462L140.202 139.639C140.177 139.653 140.148 139.66 140.119 139.66C140.09 139.66 140.061 139.653 140.036 139.639C140.009 139.623 139.987 139.602 139.971 139.576C139.955 139.55 139.945 139.52 139.944 139.489L138.939 133.138C138.928 133.062 138.94 132.984 138.973 132.914C139.001 132.846 139.049 132.788 139.111 132.748L142.861 130.583C142.886 130.569 142.915 130.562 142.944 130.562C142.973 130.562 143.002 130.569 143.027 130.583C143.054 130.6 143.076 130.623 143.093 130.65C143.11 130.677 143.121 130.707 143.125 130.738L143.286 131.777C143.297 131.854 143.285 131.932 143.251 132.001C143.223 132.069 143.175 132.127 143.113 132.168L140.633 133.598L140.799 134.66L143.096 133.334C143.121 133.318 143.15 133.31 143.179 133.31C143.209 133.31 143.238 133.318 143.263 133.334C143.289 133.35 143.31 133.371 143.326 133.397C143.342 133.423 143.352 133.453 143.355 133.483L143.521 134.528C143.532 134.604 143.52 134.682 143.487 134.752C143.458 134.82 143.41 134.878 143.349 134.918L141.052 136.245L141.224 137.347L143.768 135.877Z" fill="#FAFAFA"/>
<path d="M146.699 128.423C146.999 128.24 147.33 128.116 147.676 128.056C147.947 128.013 148.225 128.026 148.491 128.096C148.709 128.158 148.907 128.277 149.065 128.441C149.219 128.598 149.321 128.798 149.358 129.015C149.366 129.077 149.356 129.141 149.329 129.199C149.309 129.254 149.271 129.3 149.22 129.331L148.187 129.928C148.134 129.959 148.073 129.976 148.012 129.976C147.95 129.976 147.889 129.959 147.836 129.928L147.745 129.87C147.691 129.843 147.632 129.826 147.572 129.819C147.487 129.802 147.399 129.802 147.314 129.819C147.186 129.847 147.063 129.898 146.952 129.968C146.849 130.024 146.751 130.09 146.659 130.163C146.573 130.227 146.494 130.3 146.424 130.381C146.357 130.458 146.305 130.545 146.269 130.64C146.234 130.729 146.224 130.827 146.24 130.921C146.244 130.962 146.256 131.001 146.276 131.037C146.295 131.072 146.322 131.103 146.355 131.128C146.445 131.167 146.546 131.177 146.642 131.157C146.814 131.135 146.983 131.097 147.147 131.042C147.354 130.984 147.612 130.904 147.917 130.801C148.18 130.71 148.454 130.655 148.732 130.634C148.944 130.613 149.157 130.647 149.352 130.732C149.532 130.816 149.679 130.958 149.772 131.134C149.896 131.362 149.976 131.611 150.007 131.869C150.063 132.203 150.049 132.545 149.967 132.874C149.882 133.217 149.742 133.545 149.553 133.844C149.352 134.17 149.109 134.467 148.83 134.728C148.537 135.007 148.211 135.248 147.859 135.446C147.545 135.639 147.199 135.775 146.837 135.848C146.558 135.912 146.267 135.912 145.987 135.848C145.753 135.787 145.54 135.662 145.373 135.486C145.211 135.312 145.103 135.095 145.063 134.86C145.057 134.802 145.066 134.743 145.089 134.688C145.112 134.634 145.149 134.587 145.195 134.55L146.28 133.947C146.335 133.909 146.398 133.885 146.464 133.878C146.513 133.877 146.562 133.887 146.608 133.907L146.722 133.976C146.785 134.015 146.852 134.044 146.923 134.062C147.022 134.08 147.123 134.08 147.222 134.062C147.371 134.035 147.513 133.981 147.641 133.901C147.897 133.76 148.131 133.582 148.336 133.373C148.416 133.302 148.479 133.213 148.518 133.113C148.557 133.013 148.571 132.906 148.56 132.799C148.556 132.757 148.54 132.717 148.513 132.684C148.487 132.652 148.451 132.628 148.411 132.615C148.299 132.592 148.184 132.592 148.072 132.615C147.877 132.65 147.685 132.7 147.498 132.764L146.699 133.011C146.491 133.104 146.265 133.152 146.036 133.152C145.808 133.152 145.582 133.104 145.373 133.011C145.2 132.873 145.059 132.698 144.96 132.5C144.861 132.302 144.806 132.084 144.799 131.863C144.745 131.565 144.745 131.259 144.799 130.961C144.869 130.634 144.987 130.318 145.149 130.025C145.321 129.702 145.537 129.404 145.792 129.141C146.06 128.861 146.365 128.62 146.699 128.423Z" fill="#FAFAFA"/>
<path d="M115.668 145.184C115.968 145.001 116.299 144.876 116.644 144.817C116.916 144.773 117.194 144.787 117.46 144.857C117.678 144.919 117.876 145.038 118.034 145.201C118.188 145.358 118.29 145.559 118.327 145.775C118.334 145.838 118.324 145.902 118.298 145.959C118.278 146.014 118.239 146.061 118.189 146.091L117.155 146.689C117.102 146.72 117.042 146.736 116.98 146.736C116.919 146.736 116.858 146.72 116.805 146.689L116.713 146.631C116.659 146.604 116.601 146.586 116.541 146.579C116.456 146.563 116.368 146.563 116.283 146.579C116.154 146.608 116.032 146.659 115.921 146.729C115.818 146.785 115.72 146.85 115.628 146.924C115.542 146.988 115.463 147.061 115.393 147.142C115.326 147.219 115.274 147.306 115.238 147.401C115.202 147.49 115.192 147.587 115.209 147.682C115.213 147.722 115.225 147.762 115.244 147.797C115.264 147.833 115.291 147.864 115.324 147.889C115.414 147.928 115.514 147.938 115.611 147.917C115.783 147.896 115.952 147.857 116.116 147.803C116.323 147.745 116.581 147.665 116.886 147.561C117.149 147.471 117.423 147.415 117.701 147.395C117.913 147.374 118.126 147.408 118.321 147.492C118.501 147.577 118.648 147.718 118.74 147.894C118.865 148.122 118.945 148.372 118.976 148.629C119.031 148.964 119.018 149.306 118.936 149.634C118.85 149.978 118.711 150.305 118.522 150.605C118.321 150.93 118.078 151.228 117.799 151.489C117.506 151.768 117.18 152.009 116.828 152.207C116.513 152.399 116.168 152.535 115.806 152.609C115.526 152.673 115.236 152.673 114.956 152.609C114.722 152.548 114.509 152.423 114.342 152.247C114.18 152.073 114.072 151.855 114.032 151.621C114.026 151.563 114.035 151.503 114.058 151.449C114.081 151.395 114.117 151.347 114.164 151.311L115.249 150.708C115.303 150.67 115.367 150.646 115.433 150.639C115.482 150.638 115.531 150.648 115.576 150.668L115.691 150.737C115.753 150.775 115.821 150.805 115.892 150.823C115.991 150.84 116.092 150.84 116.191 150.823C116.339 150.796 116.481 150.741 116.61 150.662C116.866 150.521 117.1 150.343 117.305 150.134C117.385 150.063 117.448 149.974 117.486 149.874C117.525 149.774 117.54 149.666 117.529 149.56C117.525 149.518 117.509 149.478 117.482 149.445C117.455 149.412 117.42 149.388 117.379 149.376C117.268 149.352 117.152 149.352 117.041 149.376C116.846 149.411 116.654 149.461 116.466 149.525L115.668 149.772C115.459 149.865 115.233 149.913 115.005 149.913C114.777 149.913 114.551 149.865 114.342 149.772C114.169 149.633 114.028 149.459 113.929 149.261C113.83 149.062 113.775 148.845 113.767 148.624C113.714 148.326 113.714 148.02 113.767 147.722C113.837 147.395 113.955 147.079 114.118 146.786C114.29 146.463 114.506 146.165 114.761 145.902C115.029 145.622 115.334 145.38 115.668 145.184Z" fill="#FAFAFA"/>
<path d="M152.528 125.058C152.827 124.879 153.155 124.757 153.498 124.696C153.773 124.658 154.053 124.679 154.319 124.759C154.538 124.822 154.736 124.941 154.894 125.104C155.048 125.26 155.149 125.461 155.181 125.678C155.2 125.738 155.2 125.802 155.181 125.862C155.16 125.915 155.124 125.961 155.077 125.994L154.021 126.603C153.966 126.64 153.903 126.662 153.837 126.666C153.782 126.665 153.727 126.653 153.676 126.631L153.584 126.58C153.532 126.549 153.473 126.529 153.412 126.522C153.325 126.506 153.235 126.506 153.148 126.522C153.02 126.552 152.898 126.603 152.786 126.671C152.687 126.731 152.591 126.796 152.499 126.867C152.413 126.931 152.334 127.004 152.264 127.085C152.197 127.161 152.145 127.249 152.109 127.343C152.073 127.435 152.063 127.534 152.08 127.63C152.083 127.67 152.095 127.709 152.115 127.744C152.135 127.779 152.162 127.809 152.195 127.831C152.285 127.87 152.385 127.88 152.482 127.86C152.651 127.838 152.818 127.802 152.981 127.751L153.757 127.51C154.021 127.42 154.294 127.363 154.572 127.338C154.782 127.317 154.993 127.351 155.186 127.435C155.367 127.521 155.515 127.662 155.611 127.837C155.736 128.065 155.816 128.315 155.847 128.572C155.9 128.907 155.886 129.248 155.807 129.577C155.716 129.919 155.577 130.246 155.393 130.548C155.19 130.872 154.947 131.169 154.67 131.432C154.376 131.71 154.05 131.953 153.699 132.155C153.382 132.345 153.034 132.479 152.671 132.552C152.392 132.616 152.101 132.616 151.821 132.552C151.588 132.49 151.376 132.367 151.207 132.196C151.045 132.019 150.937 131.8 150.897 131.564C150.89 131.503 150.9 131.442 150.926 131.386C150.946 131.331 150.984 131.284 151.035 131.254L152.086 130.645C152.14 130.608 152.203 130.584 152.269 130.576C152.319 130.575 152.368 130.584 152.413 130.605C152.455 130.627 152.495 130.652 152.534 130.68C152.684 130.768 152.862 130.799 153.033 130.766C153.181 130.734 153.323 130.677 153.452 130.599C153.707 130.456 153.941 130.278 154.147 130.071C154.228 130.001 154.291 129.912 154.329 129.812C154.367 129.711 154.38 129.603 154.365 129.497C154.363 129.454 154.348 129.414 154.323 129.38C154.297 129.346 154.262 129.321 154.222 129.307C154.108 129.284 153.991 129.284 153.877 129.307C153.683 129.345 153.491 129.395 153.303 129.457L152.505 129.703C152.296 129.796 152.07 129.844 151.842 129.844C151.613 129.844 151.387 129.796 151.178 129.703C151.004 129.566 150.862 129.392 150.763 129.193C150.664 128.995 150.61 128.777 150.604 128.555C150.56 128.257 150.569 127.954 150.633 127.659C150.7 127.33 150.817 127.013 150.977 126.717C151.155 126.396 151.373 126.099 151.626 125.833C151.887 125.532 152.191 125.271 152.528 125.058Z" fill="#FAFAFA"/>
</svg>
