<svg width="85" height="64" viewBox="0 0 85 64" fill="none" xmlns="http://www.w3.org/2000/svg">
<path d="M68.5312 24.16C66.1229 10.36 55.3917 0 42.5 0C32.2646 0 23.375 6.56 18.9479 16.16C8.2875 17.44 0 27.64 0 40C0 53.24 9.52708 64 21.25 64H67.2917C77.0667 64 85 55.04 85 44C85 33.44 77.7396 24.88 68.5312 24.16ZM67.2917 56H21.25C13.4229 56 7.08333 48.84 7.08333 40C7.08333 31.8 12.5021 24.96 19.6917 24.12L23.4813 23.68L25.2521 19.88C28.6167 12.56 35.2042 8 42.5 8C51.7792 8 59.7833 15.44 61.5896 25.72L62.6521 31.72L68.0708 32.16C73.5958 32.56 77.9167 37.8 77.9167 44C77.9167 50.6 73.1354 56 67.2917 56ZM28.3333 36H37.3646V48H47.6354V36H56.6667L42.5 20L28.3333 36Z" fill="#8B4DC4"/>
</svg>
